Source-HROTx_VROTd.ufo
<glyph name="exclam" format="2">
  <advance width="205"/>
  <unicode hex="0021"/>
  <outline>
    <contour>
      <point x="115.09289533790067" y="257.2297149435832" type="curve"/>
      <point x="107.09619407771254" y="265.0" type="line"/>
      <point x="182.75661966467314" y="265.0" type="line"/>
      <point x="174.759918404485" y="257.2297149435832" type="line"/>
      <point x="183.97221924060221" y="577.9229034506116"/>
      <point x="189.73752786926843" y="615.4527919201506"/>
      <point x="203.2016598605167" y="681.5957620497252" type="curve"/>
      <point x="211.04089091213504" y="672.0" type="line"/>
      <point x="78.81192283025064" y="672.0" type="line"/>
      <point x="86.65115388186896" y="681.5957620497252" type="line"/>
      <point x="100.11528587311729" y="615.4527919201506"/>
      <point x="105.88059450178342" y="577.9229034506116"/>
    </contour>
    <contour>
      <point x="88.00431098567577" y="-8.0" type="line" smooth="yes"/>
      <point x="83.58603298702943" y="-7.999999999999999"/>
      <point x="80.00431098567577" y="-4.418277998646345"/>
      <point x="80.00431098567577" y="1.959434878635765e-15" type="curve" smooth="yes"/>
      <point x="80.00431098567577" y="161.0" type="line" smooth="yes"/>
      <point x="80.00431098567577" y="165.41827799864635"/>
      <point x="83.58603298702943" y="169.0"/>
      <point x="88.00431098567577" y="169.0" type="curve" smooth="yes"/>
      <point x="201.84850275670993" y="169.0" type="line" smooth="yes"/>
      <point x="206.26678075535628" y="169.0"/>
      <point x="209.84850275670993" y="165.41827799864635"/>
      <point x="209.84850275670993" y="161.0" type="curve" smooth="yes"/>
      <point x="209.84850275670993" y="-9.797174393178826e-16" type="line" smooth="yes"/>
      <point x="209.84850275670993" y="-4.418277998646348"/>
      <point x="206.26678075535628" y="-8.0"/>
      <point x="201.84850275670993" y="-8.0" type="curve" smooth="yes"/>
    </contour>
    <contour>
      <point x="99.0994928175244" y="256.7702850564168" type="curve" smooth="yes"/>
      <point x="89.92930619188742" y="575.9974184833268"/>
      <point x="84.3752722314864" y="612.5636416809746"/>
      <point x="70.97269177863231" y="678.4042379502748" type="curve" smooth="yes"/>
      <point x="69.96346315954841" y="683.3621051525101"/>
      <point x="73.75237842382636" y="688.0"/>
      <point x="78.81192283025064" y="688.0" type="curve" smooth="yes"/>
      <point x="211.04089091213504" y="688.0" type="line" smooth="yes"/>
      <point x="216.10043531855908" y="688.0"/>
      <point x="219.8893505828372" y="683.3621051525099"/>
      <point x="218.88012196375337" y="678.4042379502748" type="curve" smooth="yes"/>
      <point x="205.47754151089933" y="612.5636416809746"/>
      <point x="199.92350755049827" y="575.9974184833268"/>
      <point x="190.75332092486127" y="256.7702850564168" type="curve" smooth="yes"/>
      <point x="190.62902156881069" y="252.4432491149771"/>
      <point x="187.08544056284225" y="249.0"/>
      <point x="182.75661966467314" y="249.0" type="curve" smooth="yes"/>
      <point x="107.09619407771254" y="249.0" type="line" smooth="yes"/>
      <point x="102.76737317954348" y="249.0"/>
      <point x="99.22379217357499" y="252.44324911497716"/>
    </contour>
    <contour>
      <point x="88.00431098567577" y="8.0" type="line"/>
      <point x="201.84850275670993" y="8.0" type="line"/>
      <point x="193.84850275670993" y="9.797174393178826e-16" type="line"/>
      <point x="193.84850275670993" y="161.0" type="line"/>
      <point x="201.84850275670993" y="153.0" type="line"/>
      <point x="88.00431098567577" y="153.0" type="line"/>
      <point x="96.00431098567577" y="161.0" type="line"/>
      <point x="96.00431098567577" y="-1.959434878635765e-15" type="line"/>
    </contour>
  </outline>
</glyph>
<glyph name="quotedbl" format="2">
  <advance width="366"/>
  <unicode hex="0022"/>
  <outline>
    <contour>
      <point x="119.5532996442636" y="398.67956691409444" type="line"/>
      <point x="111.58221510015869" y="406.0" type="line"/>
      <point x="183.0" y="406.0" type="line"/>
      <point x="175.0289154558951" y="398.67956691409444" type="line"/>
      <point x="199.07054601623767" y="680.6795669140944" type="line"/>
      <point x="207.04163056034258" y="672.0" type="line"/>
      <point x="87.54058453981608" y="672.0" type="line"/>
      <point x="95.51166908392099" y="680.6795669140944" type="line"/>
    </contour>
    <contour>
      <point x="275.8238982864906" y="398.67956691409444" type="line"/>
      <point x="267.8528137423857" y="406.0" type="line"/>
      <point x="339.270598642227" y="406.0" type="line"/>
      <point x="331.29951409812213" y="398.67956691409444" type="line"/>
      <point x="355.3411446584647" y="680.6795669140944" type="line"/>
      <point x="363.3122292025696" y="672.0" type="line"/>
      <point x="243.81118318204307" y="672.0" type="line"/>
      <point x="251.78226772614798" y="680.6795669140944" type="line"/>
    </contour>
    <contour>
      <point x="103.61113055605378" y="397.32043308590556" type="curve" smooth="yes"/>
      <point x="79.56949999571117" y="679.3204330859056" type="line" smooth="yes"/>
      <point x="79.17141078095682" y="683.9898817025025"/>
      <point x="82.85419729525944" y="688.0"/>
      <point x="87.54058453981608" y="688.0" type="curve" smooth="yes"/>
      <point x="207.04163056034258" y="688.0" type="line" smooth="yes"/>
      <point x="211.728017804899" y="688.0"/>
      <point x="215.41080431920182" y="683.9898817025024"/>
      <point x="215.0127151044475" y="679.3204330859056" type="curve" smooth="yes"/>
      <point x="190.9710845441049" y="397.32043308590556" type="line" smooth="yes"/>
      <point x="190.61814715841777" y="393.1805997865806"/>
      <point x="187.154850724685" y="390.0"/>
      <point x="183.0" y="390.0" type="curve" smooth="yes"/>
      <point x="111.58221510015869" y="390.0" type="line" smooth="yes"/>
      <point x="107.42736437547379" y="390.0"/>
      <point x="103.96406794174092" y="393.1805997865807"/>
    </contour>
    <contour>
      <point x="259.8817291982808" y="397.32043308590556" type="curve" smooth="yes"/>
      <point x="235.84009863793815" y="679.3204330859056" type="line" smooth="yes"/>
      <point x="235.4420094231838" y="683.9898817025025"/>
      <point x="239.12479593748643" y="688.0"/>
      <point x="243.81118318204307" y="688.0" type="curve" smooth="yes"/>
      <point x="363.3122292025696" y="688.0" type="line" smooth="yes"/>
      <point x="367.99861644712604" y="688.0"/>
      <point x="371.68140296142883" y="683.9898817025024"/>
      <point x="371.2833137466745" y="679.3204330859056" type="curve" smooth="yes"/>
      <point x="347.2416831863319" y="397.32043308590556" type="line" smooth="yes"/>
      <point x="346.88874580064476" y="393.1805997865806"/>
      <point x="343.425449366912" y="390.0"/>
      <point x="339.270598642227" y="390.0" type="curve" smooth="yes"/>
      <point x="267.8528137423857" y="390.0" type="line" smooth="yes"/>
      <point x="263.6979630177008" y="390.0"/>
      <point x="260.23466658396796" y="393.1805997865807"/>
    </contour>
  </outline>
</glyph>
<glyph name="numbersign" format="2">
  <advance width="480"/>
  <unicode hex="0023"/>
  <outline>
    <contour>
      <point x="80.9009742330268" y="148.0" type="line" smooth="yes"/>
      <point x="76.48269623438046" y="148.0"/>
      <point x="72.9009742330268" y="151.58172200135365"/>
      <point x="72.9009742330268" y="156.0" type="curve" smooth="yes"/>
      <point x="72.9009742330268" y="281.0" type="line" smooth="yes"/>
      <point x="72.9009742330268" y="285.4182779986464"/>
      <point x="76.48269623438046" y="289.0"/>
      <point x="80.9009742330268" y="289.0" type="curve" smooth="yes"/>
      <point x="153.7329726952412" y="289.0" type="line"/>
      <point x="145.7472978150681" y="281.47853600509507" type="line"/>
      <point x="152.81836562693357" y="399.47853600509507" type="line"/>
      <point x="160.80404050710666" y="391.0" type="line"/>
      <point x="80.9009742330268" y="391.0" type="line" smooth="yes"/>
      <point x="76.48269623438046" y="391.0"/>
      <point x="72.9009742330268" y="394.5817220013536"/>
      <point x="72.9009742330268" y="399.0" type="curve" smooth="yes"/>
      <point x="72.9009742330268" y="524.0" type="line" smooth="yes"/>
      <point x="72.9009742330268" y="528.4182779986463"/>
      <point x="76.48269623438046" y="532.0"/>
      <point x="80.9009742330268" y="532.0" type="curve" smooth="yes"/>
      <point x="167.87510831897214" y="532.0" type="line"/>
      <point x="159.88691644348944" y="524.4345003572748" type="line"/>
      <point x="168.37219781772802" y="680.4345003572748" type="line" smooth="yes"/>
      <point x="168.60299632179604" y="684.6776792274444"/>
      <point x="172.11093856703764" y="688.0"/>
      <point x="176.36038969321072" y="688.0" type="curve" smooth="yes"/>
      <point x="264.74873734152914" y="688.0" type="line" smooth="yes"/>
      <point x="269.3377530659464" y="688.0"/>
      <point x="272.9861703384867" y="684.1477419085068"/>
      <point x="272.73692921701183" y="679.5654996427252" type="curve" smooth="yes"/>
      <point x="264.2516478427733" y="523.5654996427252" type="line"/>
      <point x="256.2634559672906" y="532.0" type="line"/>
      <point x="329.8025612106915" y="532.0" type="line"/>
      <point x="321.8143693352088" y="524.4345003572748" type="line"/>
      <point x="330.2996507094474" y="680.4345003572748" type="line" smooth="yes"/>
      <point x="330.53044921351545" y="684.6776792274444"/>
      <point x="334.038391458757" y="688.0"/>
      <point x="338.2878425849301" y="688.0" type="curve" smooth="yes"/>
      <point x="426.6761902332486" y="688.0" type="line" smooth="yes"/>
      <point x="431.26520595766584" y="688.0"/>
      <point x="434.91362323020616" y="684.1477419085068"/>
      <point x="434.6643821087313" y="679.5654996427252" type="curve" smooth="yes"/>
      <point x="426.17910073449275" y="523.5654996427252" type="line"/>
      <point x="418.19090885901005" y="532.0" type="line"/>
      <point x="483.95183950935893" y="532.0" type="line" smooth="yes"/>
      <point x="488.3701175080053" y="532.0"/>
      <point x="491.95183950935893" y="528.4182779986463"/>
      <point x="491.95183950935893" y="524.0" type="curve" smooth="yes"/>
      <point x="491.95183950935893" y="399.0" type="line" smooth="yes"/>
      <point x="491.95183950935893" y="394.5817220013536"/>
      <point x="488.3701175080053" y="391.0"/>
      <point x="483.95183950935893" y="391.0" type="curve" smooth="yes"/>
      <point x="411.1198410471445" y="391.0" type="line"/>
      <point x="419.10551592731764" y="398.52146399490493" type="line"/>
      <point x="412.0344481154521" y="280.52146399490493" type="line"/>
      <point x="404.048773235279" y="289.0" type="line"/>
      <point x="483.95183950935893" y="289.0" type="line" smooth="yes"/>
      <point x="488.3701175080053" y="289.0"/>
      <point x="491.95183950935893" y="285.4182779986464"/>
      <point x="491.95183950935893" y="281.0" type="curve" smooth="yes"/>
      <point x="491.95183950935893" y="156.0" type="line" smooth="yes"/>
      <point x="491.95183950935893" y="151.58172200135365"/>
      <point x="488.3701175080053" y="148.0"/>
      <point x="483.95183950935893" y="148.0" type="curve" smooth="yes"/>
      <point x="396.97770542341357" y="148.0" type="line"/>
      <point x="404.96589729889627" y="155.56549964272514" type="line"/>
      <point x="396.4806159246577" y="-0.43450035727485375" type="line" smooth="yes"/>
      <point x="396.2498174205897" y="-4.677679227444189"/>
      <point x="392.74187517534784" y="-8.0"/>
      <point x="388.492424049175" y="-8.0" type="curve" smooth="yes"/>
      <point x="300.1040764008565" y="-8.0" type="line" smooth="yes"/>
      <point x="295.51506067643925" y="-7.999999999999999"/>
      <point x="291.86664340389893" y="-4.147741908506707"/>
      <point x="292.1158845253738" y="0.4345003572748547" type="curve" smooth="yes"/>
      <point x="300.6011658996124" y="156.43450035727486" type="line"/>
      <point x="308.5893577750951" y="148.0" type="line"/>
      <point x="235.05025253169413" y="148.0" type="line"/>
      <point x="243.03844440717685" y="155.56549964272514" type="line"/>
      <point x="234.55316303293833" y="-0.43450035727485375" type="line" smooth="yes"/>
      <point x="234.3223645288703" y="-4.67767922744419"/>
      <point x="230.81442228362843" y="-8.0"/>
      <point x="226.5649711574556" y="-8.0" type="curve" smooth="yes"/>
      <point x="138.17662350913716" y="-8.0" type="line" smooth="yes"/>
      <point x="133.58760778471986" y="-7.999999999999999"/>
      <point x="129.93919051217952" y="-4.147741908506723"/>
      <point x="130.18843163365443" y="0.4345003572748547" type="curve" smooth="yes"/>
      <point x="138.673713007893" y="156.43450035727486" type="line"/>
      <point x="146.6619048833757" y="148.0" type="line"/>
    </contour>
    <contour>
      <point x="250.10699522373275" y="280.521463994905" type="line"/>
      <point x="242.12132034355966" y="289.0" type="line"/>
      <point x="315.66042558696057" y="289.0" type="line"/>
      <point x="307.67475070678745" y="281.47853600509507" type="line"/>
      <point x="314.7458185186529" y="399.47853600509507" type="line"/>
      <point x="322.73149339882605" y="391.0" type="line"/>
      <point x="249.19238815542508" y="391.0" type="line"/>
      <point x="257.1780630355982" y="398.521463994905" type="line"/>
    </contour>
    <contour>
      <point x="80.9009742330268" y="164.0" type="line"/>
      <point x="146.6619048833757" y="164.0" type="line" smooth="yes"/>
      <point x="151.250920607793" y="164.0"/>
      <point x="154.89933788033332" y="160.14774190850673"/>
      <point x="154.6500967588584" y="155.56549964272514" type="curve" smooth="yes"/>
      <point x="146.16481538461989" y="-0.4345003572748547" type="line"/>
      <point x="138.17662350913716" y="8.0" type="line"/>
      <point x="226.5649711574556" y="8.0" type="line"/>
      <point x="218.57677928197288" y="0.43450035727485375" type="line"/>
      <point x="227.0620606562114" y="156.43450035727486" type="line" smooth="yes"/>
      <point x="227.29285916027942" y="160.6776792274442"/>
      <point x="230.8008014055213" y="164.0"/>
      <point x="235.05025253169413" y="164.0" type="curve" smooth="yes"/>
      <point x="308.5893577750951" y="164.0" type="line" smooth="yes"/>
      <point x="313.1783734995124" y="164.0"/>
      <point x="316.8267907720527" y="160.14774190850673"/>
      <point x="316.5775496505778" y="155.56549964272514" type="curve" smooth="yes"/>
      <point x="308.0922682763392" y="-0.4345003572748547" type="line"/>
      <point x="300.1040764008565" y="8.0" type="line"/>
      <point x="388.492424049175" y="8.0" type="line"/>
      <point x="380.5042321736923" y="0.43450035727485375" type="line"/>
      <point x="388.98951354793087" y="156.43450035727486" type="line" smooth="yes"/>
      <point x="389.22031205199886" y="160.67767922744417"/>
      <point x="392.72825429724077" y="164.0"/>
      <point x="396.97770542341357" y="164.0" type="curve" smooth="yes"/>
      <point x="483.95183950935893" y="164.0" type="line"/>
      <point x="475.95183950935893" y="156.0" type="line"/>
      <point x="475.95183950935893" y="281.0" type="line"/>
      <point x="483.95183950935893" y="273.0" type="line"/>
      <point x="404.048773235279" y="273.0" type="line" smooth="yes"/>
      <point x="399.4423233528983" y="273.0"/>
      <point x="395.78755433955774" y="276.8803346160321"/>
      <point x="396.06309835510586" y="281.47853600509507" type="curve" smooth="yes"/>
      <point x="403.1341661669714" y="399.47853600509507" type="line" smooth="yes"/>
      <point x="403.3873371047778" y="403.70338173646127"/>
      <point x="406.8874165672993" y="407.0"/>
      <point x="411.1198410471445" y="407.0" type="curve" smooth="yes"/>
      <point x="483.95183950935893" y="407.0" type="line"/>
      <point x="475.95183950935893" y="399.0" type="line"/>
      <point x="475.95183950935893" y="524.0" type="line"/>
      <point x="483.95183950935893" y="516.0" type="line"/>
      <point x="418.19090885901005" y="516.0" type="line" smooth="yes"/>
      <point x="413.601893134593" y="516.0"/>
      <point x="409.95347586205247" y="519.8522580914935"/>
      <point x="410.20271698352735" y="524.4345003572748" type="curve" smooth="yes"/>
      <point x="418.6879983577659" y="680.4345003572748" type="line"/>
      <point x="426.6761902332486" y="672.0" type="line"/>
      <point x="338.2878425849301" y="672.0" type="line"/>
      <point x="346.2760344604128" y="679.5654996427252" type="line"/>
      <point x="337.7907530861742" y="523.5654996427252" type="line" smooth="yes"/>
      <point x="337.55995458210623" y="519.3223207725558"/>
      <point x="334.0520123368644" y="516.0"/>
      <point x="329.8025612106915" y="516.0" type="curve" smooth="yes"/>
      <point x="256.2634559672906" y="516.0" type="line" smooth="yes"/>
      <point x="251.6744402428736" y="516.0"/>
      <point x="248.026022970333" y="519.8522580914935"/>
      <point x="248.27526409180788" y="524.4345003572748" type="curve" smooth="yes"/>
      <point x="256.76054546604644" y="680.4345003572748" type="line"/>
      <point x="264.74873734152914" y="672.0" type="line"/>
      <point x="176.36038969321072" y="672.0" type="line"/>
      <point x="184.34858156869342" y="679.5654996427252" type="line"/>
      <point x="175.86330019445484" y="523.5654996427252" type="line" smooth="yes"/>
      <point x="175.63250169038682" y="519.3223207725558"/>
      <point x="172.12455944514497" y="516.0"/>
      <point x="167.87510831897214" y="516.0" type="curve" smooth="yes"/>
      <point x="80.9009742330268" y="516.0" type="line"/>
      <point x="88.9009742330268" y="524.0" type="line"/>
      <point x="88.9009742330268" y="399.0" type="line"/>
      <point x="80.9009742330268" y="407.0" type="line"/>
      <point x="160.80404050710666" y="407.0" type="line" smooth="yes"/>
      <point x="165.41049038948734" y="407.0"/>
      <point x="169.06525940282788" y="403.1196653839679"/>
      <point x="168.78971538727976" y="398.52146399490493" type="curve" smooth="yes"/>
      <point x="161.71864757541428" y="280.52146399490493" type="line" smooth="yes"/>
      <point x="161.46547663760782" y="276.29661826353873"/>
      <point x="157.9653971750864" y="273.0"/>
      <point x="153.7329726952412" y="273.0" type="curve" smooth="yes"/>
      <point x="80.9009742330268" y="273.0" type="line"/>
      <point x="88.9009742330268" y="281.0" type="line"/>
      <point x="88.9009742330268" y="156.0" type="line"/>
    </contour>
    <contour>
      <point x="234.13564546338657" y="281.478536005095" type="curve" smooth="yes"/>
      <point x="241.20671327525199" y="399.478536005095" type="line" smooth="yes"/>
      <point x="241.45988421305844" y="403.7033817364612"/>
      <point x="244.95996367557984" y="407.0"/>
      <point x="249.19238815542508" y="407.0" type="curve" smooth="yes"/>
      <point x="322.73149339882605" y="407.0" type="line" smooth="yes"/>
      <point x="327.3379432812067" y="407.0"/>
      <point x="330.9927122945473" y="403.1196653839679"/>
      <point x="330.71716827899917" y="398.52146399490493" type="curve" smooth="yes"/>
      <point x="323.6461004671337" y="280.52146399490493" type="line" smooth="yes"/>
      <point x="323.39292952932726" y="276.29661826353873"/>
      <point x="319.8928500668058" y="273.0"/>
      <point x="315.66042558696057" y="273.0" type="curve" smooth="yes"/>
      <point x="242.12132034355966" y="273.0" type="line" smooth="yes"/>
      <point x="237.51487046117902" y="273.0"/>
      <point x="233.86010144783845" y="276.8803346160321"/>
    </contour>
  </outline>
</glyph>
<glyph name="dollar" format="2">
  <advance width="382"/>
  <unicode hex="0024"/>
  <outline>
    <contour>
      <point x="166.25126265847084" y="-108.0" type="line" smooth="yes"/>
      <point x="161.64796132203892" y="-108.0"/>
      <point x="157.99433305116207" y="-104.12474201059213"/>
      <point x="158.26511548271688" y="-99.52941176470588" type="curve" smooth="yes"/>
      <point x="165.33618329458236" y="20.47058823529412" type="line"/>
      <point x="172.2544766395107" y="12.071589806525454" type="line"/>
      <point x="141.979823987617" y="16.149192128091418"/>
      <point x="110.30555099130936" y="25.28179869668044"/>
      <point x="77.8684231499947" y="37.51460566137833" type="curve" smooth="yes"/>
      <point x="74.75327241238968" y="38.68940257390035"/>
      <point x="72.69134213489858" y="41.67068897462668"/>
      <point x="72.69134213489858" y="45.0" type="curve" smooth="yes"/>
      <point x="72.69134213489858" y="211.0" type="line" smooth="yes"/>
      <point x="72.69134213489858" y="218.3168765754731"/>
      <point x="81.7017173084034" y="221.79424961863825"/>
      <point x="86.61719891309404" y="216.3744042873899" type="curve" smooth="yes"/>
      <point x="126.58784221191827" y="172.30248582808778"/>
      <point x="179.49145745282573" y="151.0"/>
      <point x="223.52691193458116" y="151.0" type="curve" smooth="yes"/>
      <point x="265.8985343533147" y="151.0"/>
      <point x="286.2375900532359" y="167.68237918214606"/>
      <point x="286.2375900532359" y="195.0" type="curve" smooth="yes"/>
      <point x="286.2375900532359" y="228.80490324547253"/>
      <point x="244.91950243042447" y="246.9072231201331"/>
      <point x="204.03163503713847" y="270.0368937617721" type="curve" smooth="yes"/>
      <point x="142.05129966910778" y="305.09826611293283"/>
      <point x="69.8629150101524" y="352.37884727251037"/>
      <point x="69.86291501015239" y="472.0" type="curve" smooth="yes"/>
      <point x="69.86291501015238" y="575.1190793686111"/>
      <point x="120.83727012963905" y="640.9728024279713"/>
      <point x="200.38221590192128" y="660.7633328118462" type="curve"/>
      <point x="194.31896301515098" y="653.2899045510502" type="line"/>
      <point x="198.5616037022703" y="770.2899045510502" type="line" smooth="yes"/>
      <point x="198.7176252149357" y="774.5925354661014"/>
      <point x="202.25089038319257" y="778.0"/>
      <point x="206.55634918610406" y="778.0" type="curve" smooth="yes"/>
      <point x="297.7731239591687" y="778.0" type="line" smooth="yes"/>
      <point x="302.3697918710508" y="778.0"/>
      <point x="306.0210076232116" y="774.135428751235"/>
      <point x="305.7602406067063" y="769.5461634009606" type="curve" smooth="yes"/>
      <point x="299.3962795760274" y="657.5461634009606" type="line"/>
      <point x="292.5293869957122" y="665.9211803438134" type="line"/>
      <point x="321.4056606534697" y="661.8374585600536"/>
      <point x="350.98527452013684" y="653.6925915936305"/>
      <point x="382.0272687022261" y="641.4414262423513" type="curve" smooth="yes"/>
      <point x="385.082612135237" y="640.2355914179778"/>
      <point x="387.0904037956217" y="637.2846858475834"/>
      <point x="387.0904037956217" y="634.0" type="curve" smooth="yes"/>
      <point x="387.0904037956217" y="470.0" type="line" smooth="yes"/>
      <point x="387.0904037956217" y="462.5969511099579"/>
      <point x="377.9004615281703" y="459.16537170603044"/>
      <point x="373.0483199940924" y="464.756601928587" type="curve" smooth="yes"/>
      <point x="336.6288160666246" y="506.723603430837"/>
      <point x="288.77443627434496" y="528.0"/>
      <point x="248.9827560572969" y="528.0" type="curve" smooth="yes"/>
      <point x="210.84733979328294" y="528.0"/>
      <point x="192.6360389693211" y="512.3562167878183"/>
      <point x="192.63603896932108" y="488.0" type="curve" smooth="yes"/>
      <point x="192.63603896932105" y="454.00907677668846"/>
      <point x="233.0947897754376" y="434.31529544512296"/>
      <point x="273.49727752575666" y="410.9233323270019" type="curve" smooth="yes"/>
      <point x="335.56783910487036" y="374.98613221812434"/>
      <point x="407.5965004500315" y="327.55871905977415"/>
      <point x="407.5965004500315" y="210.0" type="curve" smooth="yes"/>
      <point x="407.5965004500315" y="95.65368950738535"/>
      <point x="349.2300781706703" y="29.77772966410815"/>
      <point x="263.22970515521706" y="13.145539047000565" type="curve"/>
      <point x="269.70576495158724" y="20.71966710169875" type="line"/>
      <point x="265.4631242644679" y="-100.28033289830125" type="line" smooth="yes"/>
      <point x="265.31212393085974" y="-104.58685841248491"/>
      <point x="261.7772094059482" y="-108.0"/>
      <point x="257.46803743153544" y="-108.0" type="curve" smooth="yes"/>
    </contour>
    <contour>
      <point x="166.25126265847084" y="-92.0" type="line"/>
      <point x="257.46803743153544" y="-92.0" type="line"/>
      <point x="249.47295059860298" y="-99.71966710169875" type="line"/>
      <point x="253.7155912857223" y="21.28033289830125" type="line" smooth="yes"/>
      <point x="253.84620460672502" y="25.005421353071924"/>
      <point x="256.5320833468245" y="28.146712532672744"/>
      <point x="260.19165108209245" y="28.854460952999435" type="curve" smooth="yes"/>
      <point x="339.6528369474869" y="44.22199418145623"/>
      <point x="391.5965004500315" y="104.3482090543596"/>
      <point x="391.5965004500315" y="210.0" type="curve" smooth="yes"/>
      <point x="391.5965004500315" y="320.4807846366384"/>
      <point x="323.81386671822133" y="363.3031619949216"/>
      <point x="265.4804278976569" y="397.0766676729981" type="curve" smooth="yes"/>
      <point x="215.83276675417596" y="425.8213396730561"/>
      <point x="176.63603896932105" y="446.2310414008671"/>
      <point x="176.63603896932108" y="488.0" type="curve" smooth="yes"/>
      <point x="176.6360389693211" y="519.5792024018426"/>
      <point x="199.5380479825136" y="544.0"/>
      <point x="248.9827560572969" y="544.0" type="curve" smooth="yes"/>
      <point x="292.6344068796119" y="544.0"/>
      <point x="345.1801292174049" y="521.2813860539092"/>
      <point x="385.13248759715094" y="475.243398071413" type="curve"/>
      <point x="371.0904037956217" y="470.0" type="line"/>
      <point x="371.0904037956217" y="634.0" type="line"/>
      <point x="376.1535388890173" y="626.5585737576487" type="line"/>
      <point x="346.37628242463757" y="638.310592346166"/>
      <point x="317.98871231650435" y="646.1614801266808"/>
      <point x="290.28893886126735" y="650.0788196561866" type="curve" smooth="yes"/>
      <point x="286.1710129328949" y="650.6611823258619"/>
      <point x="283.1861135768207" y="654.3016328480519"/>
      <point x="283.42204628095215" y="658.4538365990394" type="curve" smooth="yes"/>
      <point x="289.78600731163107" y="770.4538365990394" type="line"/>
      <point x="297.7731239591687" y="762.0" type="line"/>
      <point x="206.55634918610406" y="762.0" type="line"/>
      <point x="214.5510946699378" y="769.7100954489498" type="line"/>
      <point x="210.3084539828185" y="652.7100954489498" type="line" smooth="yes"/>
      <point x="210.17920988476322" y="649.1459097005846"/>
      <point x="207.70621936407807" y="646.0977575632567"/>
      <point x="204.2452010960482" y="645.2366671881538" type="curve" smooth="yes"/>
      <point x="131.04199820183817" y="627.0239423316659"/>
      <point x="85.86291501015238" y="566.8978821469627"/>
      <point x="85.86291501015239" y="472.0" type="curve" smooth="yes"/>
      <point x="85.8629150101524" y="359.58095598377145"/>
      <point x="153.66084554203425" y="316.9135156912604"/>
      <point x="211.90949045981574" y="283.9631062382279" type="curve" smooth="yes"/>
      <point x="262.6669201040899" y="255.25036808057558"/>
      <point x="302.2375900532359" y="236.96477115349194"/>
      <point x="302.2375900532359" y="195.0" type="curve" smooth="yes"/>
      <point x="302.2375900532359" y="160.38606444305677"/>
      <point x="277.2156507022931" y="135.0"/>
      <point x="223.52691193458116" y="135.0" type="curve" smooth="yes"/>
      <point x="175.65263901607798" y="135.0"/>
      <point x="118.22059462119063" y="157.71168004638676"/>
      <point x="74.76548535670311" y="205.6255957126101" type="curve"/>
      <point x="88.69134213489858" y="211.0" type="line"/>
      <point x="88.69134213489858" y="45.0" type="line"/>
      <point x="83.51426111980246" y="52.48539433862167" type="line"/>
      <point x="114.72329640699945" y="40.715730079492474"/>
      <point x="145.26175136644468" y="31.85163161318428"/>
      <point x="174.39018430116192" y="27.928410193474548" type="curve" smooth="yes"/>
      <point x="178.53839676811126" y="27.369699876296938"/>
      <point x="181.55469346197393" y="23.707832717827188"/>
      <point x="181.30847764609027" y="19.52941176470588" type="curve" smooth="yes"/>
      <point x="174.2374098342248" y="-100.47058823529412" type="line"/>
    </contour>
  </outline>
</glyph>
<glyph name="percent" format="2">
  <advance width="723"/>
  <unicode hex="0025"/>
  <outline>
    <contour>
      <point x="596.6130047445271" y="86.0" type="curve" smooth="yes"/>
      <point x="561.5933038660817" y="86.0"/>
      <point x="539.8226368426552" y="128.58642028453158"/>
      <point x="539.8226368426552" y="204.0" type="curve" smooth="yes"/>
      <point x="539.8226368426552" y="279.33822265825455"/>
      <point x="561.6282973196834" y="321.0"/>
      <point x="596.6130047445271" y="321.0" type="curve" smooth="yes"/>
      <point x="631.5273486076563" y="321.0"/>
      <point x="654.8175862087719" y="279.1866974328155"/>
      <point x="654.8175862087719" y="204.0" type="curve" smooth="yes"/>
      <point x="654.8175862087719" y="128.73809707307728"/>
      <point x="631.5622716801055" y="86.0"/>
    </contour>
    <contour>
      <point x="596.6130047445271" y="-6.0" type="curve" smooth="yes"/>
      <point x="673.9793530714348" y="-6.0"/>
      <point x="725.7917202947174" y="86.02474047544298"/>
      <point x="725.7917202947174" y="204.0" type="curve" smooth="yes"/>
      <point x="725.7917202947174" y="321.0238461412944"/>
      <point x="673.9793530714348" y="412.0"/>
      <point x="596.6130047445271" y="412.0" type="curve" smooth="yes"/>
      <point x="519.2466564176193" y="412.0"/>
      <point x="467.43428919433677" y="321.0238461412944"/>
      <point x="467.43428919433677" y="204.0" type="curve" smooth="yes"/>
      <point x="467.43428919433677" y="86.02474047544298"/>
      <point x="519.2466564176193" y="-6.0"/>
    </contour>
    <contour>
      <point x="211.23980899785863" y="360.0" type="curve" smooth="yes"/>
      <point x="176.22010811941328" y="360.0"/>
      <point x="154.44944109598686" y="402.5864202845315"/>
      <point x="154.44944109598686" y="478.0" type="curve" smooth="yes"/>
      <point x="154.44944109598686" y="553.3382226582545"/>
      <point x="176.25510157301497" y="595.0"/>
      <point x="211.23980899785863" y="595.0" type="curve" smooth="yes"/>
      <point x="246.15415286098795" y="595.0"/>
      <point x="269.4443904621035" y="553.1866974328154"/>
      <point x="269.4443904621035" y="478.0" type="curve" smooth="yes"/>
      <point x="269.4443904621035" y="402.7380970730773"/>
      <point x="246.18907593343704" y="360.0"/>
    </contour>
    <contour>
      <point x="211.23980899785863" y="268.0" type="curve" smooth="yes"/>
      <point x="288.6061573247664" y="268.0"/>
      <point x="340.4185245480489" y="360.02474047544297"/>
      <point x="340.4185245480489" y="478.0" type="curve" smooth="yes"/>
      <point x="340.4185245480489" y="595.0238461412945"/>
      <point x="288.6061573247664" y="686.0"/>
      <point x="211.23980899785863" y="686.0" type="curve" smooth="yes"/>
      <point x="133.87346067095086" y="686.0"/>
      <point x="82.06109344766841" y="595.0238461412945"/>
      <point x="82.06109344766838" y="478.0" type="curve" smooth="yes"/>
      <point x="82.06109344766836" y="360.02474047544297"/>
      <point x="133.87346067095086" y="268.0"/>
    </contour>
    <contour>
      <point x="211.23980899785863" y="-8.0" type="line" smooth="yes"/>
      <point x="205.4848394130596" y="-7.999999999999999"/>
      <point x="201.6124739907377" y="-2.105729228230877"/>
      <point x="203.89735544941894" y="3.176220377902877" type="curve" smooth="yes"/>
      <point x="498.0537764230227" y="683.1762203779028" type="line" smooth="yes"/>
      <point x="499.320449416515" y="686.1043823154321"/>
      <point x="502.2058392736265" y="688.0"/>
      <point x="505.3962299714624" y="688.0" type="curve" smooth="yes"/>
      <point x="595.9058979633405" y="688.0" type="line" smooth="yes"/>
      <point x="601.6608675481394" y="688.0"/>
      <point x="605.5332329704614" y="682.1057292282309"/>
      <point x="603.2483515117802" y="676.8237796220972" type="curve" smooth="yes"/>
      <point x="309.09193053817637" y="-3.1762203779028724" type="line" smooth="yes"/>
      <point x="307.82525754468406" y="-6.104382315432201"/>
      <point x="304.93986768757264" y="-8.0"/>
      <point x="301.7494769897367" y="-8.0" type="curve" smooth="yes"/>
    </contour>
    <contour>
      <point x="596.6130047445271" y="102.0" type="curve" smooth="yes"/>
      <point x="623.595758435174" y="102.0"/>
      <point x="638.8175862087719" y="145.89367712032825"/>
      <point x="638.8175862087719" y="204.0" type="curve" smooth="yes"/>
      <point x="638.8175862087719" y="262.1644728113648"/>
      <point x="623.6227614394298" y="305.0"/>
      <point x="596.6130047445271" y="305.0" type="curve" smooth="yes"/>
      <point x="569.7107293988267" y="305.0"/>
      <point x="555.8226368426552" y="261.9330158573445"/>
      <point x="555.8226368426552" y="204.0" type="curve" smooth="yes"/>
      <point x="555.8226368426552" y="146.12490267525882"/>
      <point x="569.7376249486036" y="102.0"/>
    </contour>
    <contour>
      <point x="596.6130047445271" y="-22.0" type="curve" smooth="yes"/>
      <point x="511.444173568328" y="-22.0"/>
      <point x="451.43428919433677" y="74.12680346552325"/>
      <point x="451.43428919433677" y="204.0" type="curve" smooth="yes"/>
      <point x="451.43428919433677" y="332.82583204629543"/>
      <point x="511.444173568328" y="428.0"/>
      <point x="596.6130047445271" y="428.0" type="curve" smooth="yes"/>
      <point x="681.7818359207263" y="428.0"/>
      <point x="741.7917202947174" y="332.82583204629543"/>
      <point x="741.7917202947174" y="204.0" type="curve" smooth="yes"/>
      <point x="741.7917202947174" y="74.12680346552325"/>
      <point x="681.7818359207263" y="-22.0"/>
    </contour>
    <contour>
      <point x="211.23980899785863" y="376.0" type="curve" smooth="yes"/>
      <point x="238.22256268850586" y="376.0"/>
      <point x="253.4443904621035" y="419.89367712032833"/>
      <point x="253.4443904621035" y="478.0" type="curve" smooth="yes"/>
      <point x="253.4443904621035" y="536.164472811365"/>
      <point x="238.2495656927616" y="579.0"/>
      <point x="211.23980899785863" y="579.0" type="curve" smooth="yes"/>
      <point x="184.33753365215844" y="579.0"/>
      <point x="170.44944109598686" y="535.9330158573447"/>
      <point x="170.44944109598686" y="478.0" type="curve" smooth="yes"/>
      <point x="170.44944109598686" y="420.12490267525885"/>
      <point x="184.3644292019353" y="376.0"/>
    </contour>
    <contour>
      <point x="211.23980899785863" y="252.0" type="curve" smooth="yes"/>
      <point x="126.07097782165948" y="252.0"/>
      <point x="66.06109344766836" y="348.1268034655233"/>
      <point x="66.06109344766838" y="478.0" type="curve" smooth="yes"/>
      <point x="66.06109344766841" y="606.8258320462954"/>
      <point x="126.07097782165948" y="702.0"/>
      <point x="211.23980899785863" y="702.0" type="curve" smooth="yes"/>
      <point x="296.4086401740577" y="702.0"/>
      <point x="356.4185245480489" y="606.8258320462954"/>
      <point x="356.4185245480489" y="478.0" type="curve" smooth="yes"/>
      <point x="356.4185245480489" y="348.1268034655233"/>
      <point x="296.4086401740577" y="252.0"/>
    </contour>
    <contour>
      <point x="211.23980899785863" y="8.0" type="line"/>
      <point x="301.7494769897367" y="8.0" type="line"/>
      <point x="294.40702344129704" y="3.1762203779028724" type="line"/>
      <point x="588.5634444149008" y="683.1762203779028" type="line"/>
      <point x="595.9058979633405" y="672.0" type="line"/>
      <point x="505.3962299714624" y="672.0" type="line"/>
      <point x="512.7386835199021" y="676.8237796220972" type="line"/>
      <point x="218.58226254629832" y="-3.176220377902877" type="line"/>
    </contour>
  </outline>
</glyph>
<glyph name="ampersand" format="2">
  <advance width="467"/>
  <unicode hex="0026"/>
  <outline>
    <contour>
      <point x="449.0358402782517" y="201.0" type="line" smooth="yes"/>
      <point x="449.0358402782517" y="61.08615822031631"/>
      <point x="370.72752054363536" y="-25.000000000000014"/>
      <point x="258.6022907321224" y="-25.0" type="curve" smooth="yes"/>
      <point x="153.4907237132351" y="-24.99999999999999"/>
      <point x="76.65402256023172" y="52.14003463098545"/>
      <point x="76.65402256023174" y="180.0" type="curve"/>
      <point x="76.65402256023174" y="250.61617629237082"/>
      <point x="103.36595511761078" y="310.949109620548"/>
      <point x="156.2363779482226" y="350.41109048981394" type="curve"/>
      <point x="156.11886308976025" y="337.6783220000112" type="line"/>
      <point x="110.40849589100061" y="373.1283788055009"/>
      <point x="90.08905140277615" y="428.3984274960331"/>
      <point x="90.08905140277614" y="492.0" type="curve" smooth="yes"/>
      <point x="90.08905140277611" y="674.9821495834523"/>
      <point x="245.88267371880866" y="733.2323450963435"/>
      <point x="392.0837119183004" y="681.5424723326565" type="curve" smooth="yes"/>
      <point x="395.2800834225362" y="680.4123843497382"/>
      <point x="397.41704525163374" y="677.3902639487549"/>
      <point x="397.41704525163374" y="674.0" type="curve" smooth="yes"/>
      <point x="397.41704525163374" y="511.0" type="line" smooth="yes"/>
      <point x="397.41704525163374" y="504.0019323388349"/>
      <point x="389.06604410824326" y="500.3769237417976"/>
      <point x="383.9538603107781" y="505.15589097449333" type="curve" smooth="yes"/>
      <point x="344.2417037865372" y="542.2795747636275"/>
      <point x="309.96834958005417" y="559.0"/>
      <point x="276.9870670429727" y="559.0" type="curve" smooth="yes"/>
      <point x="236.0223987739411" y="559.0"/>
      <point x="210.74085501838522" y="535.4495920831345"/>
      <point x="210.74085501838516" y="492.0" type="curve" smooth="yes"/>
      <point x="210.7408550183851" y="434.4604495556116"/>
      <point x="248.58581191029813" y="414.0"/>
      <point x="310.92819253992695" y="414.0" type="curve" smooth="yes"/>
      <point x="339.9195705685754" y="414.0" type="line"/>
      <point x="331.9195705685754" y="406.0" type="line"/>
      <point x="331.9195705685754" y="494.0" type="line" smooth="yes"/>
      <point x="331.9195705685754" y="498.4182779986464"/>
      <point x="335.50129256992903" y="502.0"/>
      <point x="339.9195705685754" y="502.0" type="curve" smooth="yes"/>
      <point x="441.0358402782517" y="502.0" type="line" smooth="yes"/>
      <point x="445.4541182768981" y="502.0"/>
      <point x="449.0358402782517" y="498.4182779986464"/>
      <point x="449.0358402782517" y="494.0" type="curve" smooth="yes"/>
      <point x="449.0358402782517" y="406.0" type="line"/>
      <point x="441.0358402782517" y="414.0" type="line"/>
      <point x="484.8764607118177" y="414.0" type="line" smooth="yes"/>
      <point x="489.29473871046406" y="414.0"/>
      <point x="492.8764607118177" y="410.4182779986464"/>
      <point x="492.8764607118177" y="406.0" type="curve" smooth="yes"/>
      <point x="492.8764607118177" y="288.0" type="line" smooth="yes"/>
      <point x="492.8764607118177" y="283.5817220013536"/>
      <point x="489.29473871046406" y="280.0"/>
      <point x="484.8764607118177" y="280.0" type="curve" smooth="yes"/>
      <point x="441.0358402782517" y="280.0" type="line"/>
      <point x="449.0358402782517" y="288.0" type="line"/>
    </contour>
    <contour>
      <point x="262.84493141924173" y="116.0" type="curve" smooth="yes"/>
      <point x="304.9088135267515" y="116.0"/>
      <point x="331.9195705685754" y="148.2582557096122"/>
      <point x="331.9195705685754" y="205.0" type="curve" smooth="yes"/>
      <point x="331.9195705685754" y="288.0" type="line"/>
      <point x="339.9195705685754" y="280.0" type="line"/>
      <point x="311.6352993211135" y="280.0" type="line" smooth="yes"/>
      <point x="240.6431897963301" y="280.0"/>
      <point x="198.01293295702735" y="271.94052651529756"/>
      <point x="198.01293295702732" y="195.0" type="curve" smooth="yes"/>
      <point x="198.01293295702732" y="150.68955178502046"/>
      <point x="221.92121757731212" y="116.0"/>
    </contour>
    <contour>
      <point x="433.0358402782517" y="201.0" type="curve" smooth="yes"/>
      <point x="433.0358402782517" y="288.0" type="line" smooth="yes"/>
      <point x="433.0358402782517" y="292.4182779986464"/>
      <point x="436.61756227960535" y="296.0"/>
      <point x="441.0358402782517" y="296.0" type="curve" smooth="yes"/>
      <point x="484.8764607118177" y="296.0" type="line"/>
      <point x="476.8764607118177" y="288.0" type="line"/>
      <point x="476.8764607118177" y="406.0" type="line"/>
      <point x="484.8764607118177" y="398.0" type="line"/>
      <point x="441.0358402782517" y="398.0" type="line" smooth="yes"/>
      <point x="436.61756227960535" y="398.0"/>
      <point x="433.0358402782517" y="401.5817220013536"/>
      <point x="433.0358402782517" y="406.0" type="curve" smooth="yes"/>
      <point x="433.0358402782517" y="494.0" type="line"/>
      <point x="441.0358402782517" y="486.0" type="line"/>
      <point x="339.9195705685754" y="486.0" type="line"/>
      <point x="347.9195705685754" y="494.0" type="line"/>
      <point x="347.9195705685754" y="406.0" type="line" smooth="yes"/>
      <point x="347.9195705685754" y="401.5817220013536"/>
      <point x="344.3378485672218" y="398.0"/>
      <point x="339.9195705685754" y="398.0" type="curve" smooth="yes"/>
      <point x="310.92819253992695" y="398.0" type="line" smooth="yes"/>
      <point x="238.9539722160562" y="398.0"/>
      <point x="194.7408550183851" y="425.57064264798606"/>
      <point x="194.74085501838516" y="492.0" type="curve" smooth="yes"/>
      <point x="194.74085501838522" y="544.5494959704905"/>
      <point x="227.44292711141384" y="575.0"/>
      <point x="276.9870670429727" y="575.0" type="curve" smooth="yes"/>
      <point x="313.25825951311816" y="575.0"/>
      <point x="351.2067535447632" y="557.6709106637569"/>
      <point x="394.88023019248936" y="516.8441090255067" type="curve"/>
      <point x="381.41704525163374" y="511.0" type="line"/>
      <point x="381.41704525163374" y="674.0" type="line"/>
      <point x="386.75037858496705" y="666.4575276673435" type="line"/>
      <point x="250.10352350746402" y="714.7694865939022"/>
      <point x="106.08905140277611" y="663.0243346000185"/>
      <point x="106.08905140277614" y="492.0" type="curve" smooth="yes"/>
      <point x="106.08905140277615" y="433.6152323676485"/>
      <point x="123.96319042483572" y="382.86400749998796"/>
      <point x="165.92424676699747" y="350.3216779999888" type="curve" smooth="yes"/>
      <point x="170.10233296634863" y="347.0814197788899"/>
      <point x="170.04391208416737" y="340.7515005030014"/>
      <point x="165.8067319085351" y="337.58890951018606" type="curve" smooth="yes"/>
      <point x="116.85860471659372" y="301.0544928095046"/>
      <point x="92.65402256023174" y="245.37737725385082"/>
      <point x="92.65402256023174" y="180.0" type="curve"/>
      <point x="92.65402256023172" y="61.86208830623848"/>
      <point x="161.48306356330687" y="-8.99999999999999"/>
      <point x="258.6022907321224" y="-9.0" type="curve" smooth="yes"/>
      <point x="362.8253508527539" y="-9.000000000000014"/>
      <point x="433.0358402782517" y="70.94676605768505"/>
    </contour>
    <contour>
      <point x="262.84493141924173" y="100.0" type="curve" smooth="yes"/>
      <point x="213.2760194177171" y="100.0"/>
      <point x="182.01293295702732" y="141.3289007248892"/>
      <point x="182.01293295702732" y="195.0" type="curve" smooth="yes"/>
      <point x="182.01293295702735" y="281.98179693579146"/>
      <point x="231.3782289006188" y="296.0"/>
      <point x="311.6352993211135" y="296.0" type="curve" smooth="yes"/>
      <point x="339.9195705685754" y="296.0" type="line" smooth="yes"/>
      <point x="344.3378485672218" y="296.0"/>
      <point x="347.9195705685754" y="292.4182779986464"/>
      <point x="347.9195705685754" y="288.0" type="curve" smooth="yes"/>
      <point x="347.9195705685754" y="205.0" type="line" smooth="yes"/>
      <point x="347.9195705685754" y="137.80063511692765"/>
      <point x="312.66127382272913" y="100.0"/>
    </contour>
  </outline>
</glyph>
<glyph name="quotesingle" format="2">
  <advance width="211"/>
  <unicode hex="0027"/>
  <outline>
    <contour>
      <point x="120.18859896537711" y="398.67956691409444" type="line"/>
      <point x="112.2175144212722" y="406.0" type="line"/>
      <point x="183.6352993211135" y="406.0" type="line"/>
      <point x="175.6642147770086" y="398.67956691409444" type="line"/>
      <point x="199.7058453373512" y="680.6795669140944" type="line"/>
      <point x="207.67692988145612" y="672.0" type="line"/>
      <point x="88.17588386092956" y="672.0" type="line"/>
      <point x="96.14696840503447" y="680.6795669140944" type="line"/>
    </contour>
    <contour>
      <point x="104.24642987716729" y="397.32043308590556" type="curve" smooth="yes"/>
      <point x="80.20479931682465" y="679.3204330859056" type="line" smooth="yes"/>
      <point x="79.8067101020703" y="683.9898817025025"/>
      <point x="83.48949661637292" y="688.0"/>
      <point x="88.17588386092956" y="688.0" type="curve" smooth="yes"/>
      <point x="207.67692988145612" y="688.0" type="line" smooth="yes"/>
      <point x="212.36331712601253" y="688.0"/>
      <point x="216.04610364031535" y="683.9898817025024"/>
      <point x="215.64801442556103" y="679.3204330859056" type="curve" smooth="yes"/>
      <point x="191.60638386521842" y="397.32043308590556" type="line" smooth="yes"/>
      <point x="191.25344647953128" y="393.1805997865806"/>
      <point x="187.7901500457985" y="390.0"/>
      <point x="183.6352993211135" y="390.0" type="curve" smooth="yes"/>
      <point x="112.2175144212722" y="390.0" type="line" smooth="yes"/>
      <point x="108.0626636965873" y="390.0"/>
      <point x="104.59936726285443" y="393.1805997865807"/>
    </contour>
  </outline>
</glyph>
<glyph name="parenleft" format="2">
  <advance width="341"/>
  <unicode hex="0028"/>
  <outline>
    <contour>
      <point x="190.87436867076457" y="340.0" type="curve" smooth="yes"/>
      <point x="190.87436867076454" y="118.7312281163602"/>
      <point x="242.4121702775528" y="10.0"/>
      <point x="347.63024868723016" y="10.0" type="curve" smooth="yes"/>
      <point x="352.04852668587654" y="9.999999999999998"/>
      <point x="355.63024868723016" y="6.418277998646346"/>
      <point x="355.63024868723016" y="1.9999999999999991" type="curve" smooth="yes"/>
      <point x="355.63024868723016" y="-153.0" type="line" smooth="yes"/>
      <point x="355.63024868723016" y="-158.27727129993522"/>
      <point x="350.6103627162511" y="-162.10870532771548"/>
      <point x="345.5199989759473" y="-160.71666029808432" type="curve" smooth="yes"/>
      <point x="215.4431804597967" y="-125.14498056683604"/>
      <point x="63.15149724329005" y="38.14888913769308"/>
      <point x="63.151497243290066" y="340.0" type="curve" smooth="yes"/>
      <point x="63.15149724329008" y="641.8511108623069"/>
      <point x="215.4431804597967" y="805.1449805668361"/>
      <point x="345.5199989759474" y="840.7166602980843" type="curve" smooth="yes"/>
      <point x="350.61036271625096" y="842.1087053277155"/>
      <point x="355.63024868723016" y="838.2772712999351"/>
      <point x="355.63024868723016" y="833.0" type="curve" smooth="yes"/>
      <point x="355.63024868723016" y="678.0" type="line" smooth="yes"/>
      <point x="355.63024868723016" y="673.5817220013537"/>
      <point x="352.04852668587654" y="670.0"/>
      <point x="347.63024868723016" y="670.0" type="curve" smooth="yes"/>
      <point x="242.4121702775528" y="670.0"/>
      <point x="190.8743686707646" y="561.2687718836397"/>
    </contour>
    <contour>
      <point x="174.87436867076457" y="340.0" type="curve" smooth="yes"/>
      <point x="174.8743686707646" y="576.5030550768461"/>
      <point x="235.16793969818778" y="686.0"/>
      <point x="347.63024868723016" y="686.0" type="curve"/>
      <point x="339.63024868723016" y="678.0" type="line"/>
      <point x="339.63024868723016" y="833.0" type="line"/>
      <point x="349.74049839851295" y="825.2833397019157" type="line"/>
      <point x="223.89652765804178" y="790.8692029298604"/>
      <point x="79.15149724329008" y="632.0285320371548"/>
      <point x="79.15149724329007" y="340.0" type="curve" smooth="yes"/>
      <point x="79.15149724329005" y="47.97146796284519"/>
      <point x="223.89652765804178" y="-110.86920292986039"/>
      <point x="349.740498398513" y="-145.28333970191568" type="curve"/>
      <point x="339.63024868723016" y="-153.0" type="line"/>
      <point x="339.63024868723016" y="2.000000000000001" type="line"/>
      <point x="347.63024868723016" y="-6.0" type="line"/>
      <point x="235.16793969818778" y="-6.0"/>
      <point x="174.87436867076454" y="103.49694492315393"/>
    </contour>
  </outline>
</glyph>
<glyph name="parenright" format="2">
  <advance width="341"/>
  <unicode hex="0029"/>
  <outline>
    <contour>
      <point x="234.97844507162108" y="341.0" type="curve" smooth="yes"/>
      <point x="234.97844507162114" y="562.2687718836397"/>
      <point x="183.44064346483285" y="671.0"/>
      <point x="78.22256505515554" y="671.0" type="curve" smooth="yes"/>
      <point x="73.8042870565092" y="671.0"/>
      <point x="70.22256505515554" y="674.5817220013537"/>
      <point x="70.22256505515554" y="679.0" type="curve" smooth="yes"/>
      <point x="70.22256505515554" y="834.0" type="line" smooth="yes"/>
      <point x="70.22256505515554" y="839.2772712999353"/>
      <point x="75.24245102613465" y="843.1087053277155"/>
      <point x="80.33281476643836" y="841.7166602980843" type="curve" smooth="yes"/>
      <point x="210.409633282589" y="806.1449805668361"/>
      <point x="362.7013164990957" y="642.8511108623069"/>
      <point x="362.70131649909564" y="341.0" type="curve" smooth="yes"/>
      <point x="362.7013164990956" y="39.14888913769308"/>
      <point x="210.409633282589" y="-124.14498056683604"/>
      <point x="80.33281476643836" y="-159.71666029808432" type="curve" smooth="yes"/>
      <point x="75.24245102613465" y="-161.10870532771548"/>
      <point x="70.22256505515554" y="-157.2772712999352"/>
      <point x="70.22256505515554" y="-152.0" type="curve" smooth="yes"/>
      <point x="70.22256505515554" y="3.0000000000000018" type="line" smooth="yes"/>
      <point x="70.22256505515554" y="7.418277998646349"/>
      <point x="73.8042870565092" y="11.000000000000002"/>
      <point x="78.22256505515554" y="11.0" type="curve" smooth="yes"/>
      <point x="183.44064346483285" y="11.0"/>
      <point x="234.97844507162102" y="119.7312281163602"/>
    </contour>
    <contour>
      <point x="250.97844507162108" y="341.0" type="curve" smooth="yes"/>
      <point x="250.97844507162102" y="104.49694492315393"/>
      <point x="190.68487404419787" y="-5.0"/>
      <point x="78.22256505515554" y="-5.0" type="curve"/>
      <point x="86.22256505515554" y="2.9999999999999982" type="line"/>
      <point x="86.22256505515554" y="-152.0" type="line"/>
      <point x="76.11231534387272" y="-144.28333970191568" type="line"/>
      <point x="201.95628608434393" y="-109.86920292986039"/>
      <point x="346.7013164990956" y="48.97146796284519"/>
      <point x="346.70131649909564" y="341.0" type="curve" smooth="yes"/>
      <point x="346.7013164990957" y="633.0285320371548"/>
      <point x="201.95628608434393" y="791.8692029298604"/>
      <point x="76.11231534387272" y="826.2833397019157" type="curve"/>
      <point x="86.22256505515554" y="834.0" type="line"/>
      <point x="86.22256505515554" y="679.0" type="line"/>
      <point x="78.22256505515554" y="687.0" type="line"/>
      <point x="190.68487404419787" y="687.0"/>
      <point x="250.97844507162114" y="577.5030550768461"/>
    </contour>
  </outline>
</glyph>
<glyph name="asterisk" format="2">
  <advance width="434"/>
  <unicode hex="002A"/>
  <outline>
    <contour>
      <point x="117.06773414612735" y="630.7302375317469" type="line" smooth="yes"/>
      <point x="115.5917364368211" y="634.0260943399561"/>
      <point x="116.5068033678066" y="637.9021688887749"/>
      <point x="119.30098356781829" y="640.1899185140528" type="curve" smooth="yes"/>
      <point x="199.91115662308474" y="706.1899185140528" type="line" smooth="yes"/>
      <point x="204.16053958713567" y="709.6691229990138"/>
      <point x="210.57169759037922" y="707.9300642630476"/>
      <point x="212.48046497575072" y="702.7804306360912" type="curve" smooth="yes"/>
      <point x="258.4424057528763" y="578.7804306360912" type="line"/>
      <point x="243.43984524103226" y="578.7804306360912" type="line"/>
      <point x="289.4017860181578" y="702.7804306360912" type="line" smooth="yes"/>
      <point x="291.31055340352935" y="707.9300642630477"/>
      <point x="297.72171140677284" y="709.6691229990138"/>
      <point x="301.97109437082383" y="706.1899185140528" type="curve" smooth="yes"/>
      <point x="382.5812674260903" y="640.1899185140528" type="line" smooth="yes"/>
      <point x="385.375447626102" y="637.9021688887749"/>
      <point x="386.2905145570875" y="634.0260943399561"/>
      <point x="384.8145168477812" y="630.7302375317469" type="curve" smooth="yes"/>
      <point x="331.0744014776036" y="510.73023753174687" type="line"/>
      <point x="323.2992564033012" y="521.9859532642945" type="line"/>
      <point x="424.41552611297743" y="527.9859532642945" type="line" smooth="yes"/>
      <point x="429.01204151246316" y="528.2586996034948"/>
      <point x="432.88939366884495" y="524.6046003500039"/>
      <point x="432.88939366884495" y="520.0" type="curve" smooth="yes"/>
      <point x="432.88939366884495" y="388.0" type="line" smooth="yes"/>
      <point x="432.88939366884495" y="383.3927461850705"/>
      <point x="429.0077623838016" y="379.7376863504918"/>
      <point x="424.40882867284427" y="380.01444696438506" type="curve" smooth="yes"/>
      <point x="324.70677252554106" y="386.01444696438506" type="line"/>
      <point x="332.48861503997665" y="397.26976246825313" type="line"/>
      <point x="386.2287304101543" y="277.26976246825313" type="line" smooth="yes"/>
      <point x="387.7047281194605" y="273.9739056600439"/>
      <point x="386.78966118847507" y="270.0978311112251"/>
      <point x="383.9954809884634" y="267.8100814859472" type="curve" smooth="yes"/>
      <point x="303.38530793319694" y="201.8100814859472" type="line" smooth="yes"/>
      <point x="299.1346977708557" y="198.3298722259797"/>
      <point x="292.7215901104579" y="200.07107827408072"/>
      <point x="290.8146932965747" y="205.2230961104788" type="curve" smooth="yes"/>
      <point x="243.43853895707605" y="333.22309611047876" type="line"/>
      <point x="258.4437120368325" y="333.22309611047876" type="line"/>
      <point x="211.06755769733383" y="205.2230961104788" type="line" smooth="yes"/>
      <point x="209.16066088345065" y="200.07107827408066"/>
      <point x="202.74755322305288" y="198.32987222597967"/>
      <point x="198.49694306071163" y="201.8100814859472" type="curve" smooth="yes"/>
      <point x="117.88677000544517" y="267.8100814859472" type="line" smooth="yes"/>
      <point x="115.09258980543345" y="270.0978311112251"/>
      <point x="114.17752287444797" y="273.97390566004384"/>
      <point x="115.65352058375424" y="277.26976246825313" type="curve" smooth="yes"/>
      <point x="169.3936359539319" y="397.26976246825313" type="line"/>
      <point x="177.17547846836752" y="386.01444696438506" type="line"/>
      <point x="77.47342232106426" y="380.01444696438506" type="line" smooth="yes"/>
      <point x="72.87448861010691" y="379.73768635049186"/>
      <point x="68.99285732506357" y="383.3927461850705"/>
      <point x="68.99285732506357" y="388.0" type="curve" smooth="yes"/>
      <point x="68.99285732506357" y="520.0" type="line" smooth="yes"/>
      <point x="68.99285732506357" y="524.6046003500039"/>
      <point x="72.87020948144547" y="528.2586996034948"/>
      <point x="77.4667248809311" y="527.9859532642945" type="curve" smooth="yes"/>
      <point x="178.5829945906074" y="521.9859532642945" type="line"/>
      <point x="170.80784951630494" y="510.73023753174687" type="line"/>
    </contour>
    <contour>
      <point x="131.67028918299718" y="637.2697624682531" type="line"/>
      <point x="185.41040455317477" y="517.2697624682531" type="line" smooth="yes"/>
      <point x="187.86496240509337" y="511.7888114096016"/>
      <point x="183.6301855569129" y="505.65832201829335"/>
      <point x="177.6352594788723" y="506.0140467357055" type="curve" smooth="yes"/>
      <point x="76.51898976919604" y="512.0140467357055" type="line"/>
      <point x="84.99285732506357" y="520.0" type="line"/>
      <point x="84.99285732506357" y="388.0" type="line"/>
      <point x="76.51229232906287" y="395.98555303561494" type="line"/>
      <point x="176.2143484763661" y="401.98555303561494" type="line" smooth="yes"/>
      <point x="182.21191452189487" y="402.34648236509645"/>
      <point x="186.45195282333574" y="396.21387704152767"/>
      <point x="183.99619099080172" y="390.73023753174687" type="curve" smooth="yes"/>
      <point x="130.25607562062407" y="270.73023753174687" type="line"/>
      <point x="128.02282619893313" y="280.1899185140528" type="line"/>
      <point x="208.63299925419958" y="214.1899185140528" type="line"/>
      <point x="196.06238461757738" y="210.7769038895212" type="line"/>
      <point x="243.43853895707605" y="338.77690388952124" type="line" smooth="yes"/>
      <point x="246.01614528478515" y="345.7410320368262"/>
      <point x="255.8661057091234" y="345.7410320368262"/>
      <point x="258.4437120368325" y="338.77690388952124" type="curve" smooth="yes"/>
      <point x="305.81986637633116" y="210.7769038895212" type="line"/>
      <point x="293.24925173970894" y="214.1899185140528" type="line"/>
      <point x="373.8594247949754" y="280.1899185140528" type="line"/>
      <point x="371.62617537328447" y="270.73023753174687" type="line"/>
      <point x="317.8860600031068" y="390.73023753174687" type="line" smooth="yes"/>
      <point x="315.43029817057277" y="396.21387704152767"/>
      <point x="319.6703364720136" y="402.34648236509645"/>
      <point x="325.6679025175424" y="401.98555303561494" type="curve" smooth="yes"/>
      <point x="425.3699586648456" y="395.98555303561494" type="line"/>
      <point x="416.88939366884495" y="388.0" type="line"/>
      <point x="416.88939366884495" y="520.0" type="line"/>
      <point x="425.36326122471246" y="512.0140467357055" type="line"/>
      <point x="324.2469915150362" y="506.0140467357055" type="line" smooth="yes"/>
      <point x="318.25206543699574" y="505.6583220182934"/>
      <point x="314.01728858881523" y="511.7888114096017"/>
      <point x="316.47184644073377" y="517.2697624682531" type="curve" smooth="yes"/>
      <point x="370.21196181091136" y="637.2697624682531" type="line"/>
      <point x="372.4452112326023" y="627.8100814859472" type="line"/>
      <point x="291.83503817733583" y="693.8100814859472" type="line"/>
      <point x="304.4043465300019" y="697.2195693639088" type="line"/>
      <point x="258.4424057528763" y="573.2195693639088" type="line" smooth="yes"/>
      <point x="255.86281932291848" y="566.2601435453637"/>
      <point x="246.0194316709901" y="566.2601435453637"/>
      <point x="243.43984524103226" y="573.2195693639088" type="curve" smooth="yes"/>
      <point x="197.4779044639067" y="697.2195693639088" type="line"/>
      <point x="210.04721281657268" y="693.8100814859472" type="line"/>
      <point x="129.43703976130624" y="627.8100814859472" type="line"/>
    </contour>
  </outline>
</glyph>
<glyph name="plus" format="2">
  <advance width="382"/>
  <unicode hex="002B"/>
  <outline>
    <contour>
      <point x="70.79184719828692" y="239.0" type="line" smooth="yes"/>
      <point x="66.37356919964057" y="239.0"/>
      <point x="62.791847198286916" y="242.58172200135365"/>
      <point x="62.791847198286916" y="247.0" type="curve" smooth="yes"/>
      <point x="62.791847198286916" y="374.0" type="line" smooth="yes"/>
      <point x="62.791847198286916" y="378.4182779986464"/>
      <point x="66.37356919964057" y="382.0"/>
      <point x="70.79184719828692" y="382.0" type="curve" smooth="yes"/>
      <point x="186.05025253169413" y="382.0" type="line"/>
      <point x="178.05025253169413" y="374.0" type="line"/>
      <point x="178.05025253169413" y="544.0" type="line" smooth="yes"/>
      <point x="178.05025253169413" y="548.4182779986463"/>
      <point x="181.63197453304778" y="552.0"/>
      <point x="186.05025253169413" y="552.0" type="curve" smooth="yes"/>
      <point x="278.6812408671319" y="552.0" type="line" smooth="yes"/>
      <point x="283.0995188657783" y="552.0"/>
      <point x="286.6812408671319" y="548.4182779986463"/>
      <point x="286.6812408671319" y="544.0" type="curve" smooth="yes"/>
      <point x="286.6812408671319" y="374.0" type="line"/>
      <point x="278.6812408671319" y="382.0" type="line"/>
      <point x="396.0609665440988" y="382.0" type="line" smooth="yes"/>
      <point x="400.47924454274516" y="382.0"/>
      <point x="404.0609665440988" y="378.4182779986464"/>
      <point x="404.0609665440988" y="374.0" type="curve" smooth="yes"/>
      <point x="404.0609665440988" y="247.0" type="line" smooth="yes"/>
      <point x="404.0609665440988" y="242.58172200135365"/>
      <point x="400.47924454274516" y="239.0"/>
      <point x="396.0609665440988" y="239.0" type="curve" smooth="yes"/>
      <point x="278.6812408671319" y="239.0" type="line"/>
      <point x="286.6812408671319" y="247.0" type="line"/>
      <point x="286.6812408671319" y="74.0" type="line" smooth="yes"/>
      <point x="286.6812408671319" y="69.58172200135365"/>
      <point x="283.0995188657783" y="66.0"/>
      <point x="278.6812408671319" y="66.0" type="curve" smooth="yes"/>
      <point x="186.05025253169413" y="66.0" type="line" smooth="yes"/>
      <point x="181.63197453304778" y="66.0"/>
      <point x="178.05025253169413" y="69.58172200135365"/>
      <point x="178.05025253169413" y="74.0" type="curve" smooth="yes"/>
      <point x="178.05025253169413" y="247.0" type="line"/>
      <point x="186.05025253169413" y="239.0" type="line"/>
    </contour>
    <contour>
      <point x="70.79184719828692" y="255.0" type="line"/>
      <point x="186.05025253169413" y="255.0" type="line" smooth="yes"/>
      <point x="190.46853053034047" y="255.0"/>
      <point x="194.05025253169413" y="251.41827799864635"/>
      <point x="194.05025253169413" y="247.0" type="curve" smooth="yes"/>
      <point x="194.05025253169413" y="74.0" type="line"/>
      <point x="186.05025253169413" y="82.0" type="line"/>
      <point x="278.6812408671319" y="82.0" type="line"/>
      <point x="270.6812408671319" y="74.0" type="line"/>
      <point x="270.6812408671319" y="247.0" type="line" smooth="yes"/>
      <point x="270.6812408671319" y="251.41827799864635"/>
      <point x="274.26296286848554" y="255.0"/>
      <point x="278.6812408671319" y="255.0" type="curve" smooth="yes"/>
      <point x="396.0609665440988" y="255.0" type="line"/>
      <point x="388.0609665440988" y="247.0" type="line"/>
      <point x="388.0609665440988" y="374.0" type="line"/>
      <point x="396.0609665440988" y="366.0" type="line"/>
      <point x="278.6812408671319" y="366.0" type="line" smooth="yes"/>
      <point x="274.26296286848554" y="366.0"/>
      <point x="270.6812408671319" y="369.5817220013536"/>
      <point x="270.6812408671319" y="374.0" type="curve" smooth="yes"/>
      <point x="270.6812408671319" y="544.0" type="line"/>
      <point x="278.6812408671319" y="536.0" type="line"/>
      <point x="186.05025253169413" y="536.0" type="line"/>
      <point x="194.05025253169413" y="544.0" type="line"/>
      <point x="194.05025253169413" y="374.0" type="line" smooth="yes"/>
      <point x="194.05025253169413" y="369.5817220013536"/>
      <point x="190.46853053034047" y="366.0"/>
      <point x="186.05025253169413" y="366.0" type="curve" smooth="yes"/>
      <point x="70.79184719828692" y="366.0" type="line"/>
      <point x="78.79184719828692" y="374.0" type="line"/>
      <point x="78.79184719828692" y="247.0" type="line"/>
    </contour>
  </outline>
</glyph>
<glyph name="comma" format="2">
  <advance width="194"/>
  <unicode hex="002C"/>
  <outline>
    <contour>
      <point x="84.97918471982868" y="153.0" type="line"/>
      <point x="92.83759801514721" y="162.49844602170415" type="line"/>
      <point x="110.03346296499778" y="72.31687672318233"/>
      <point x="109.35054134937587" y="-12.026808219266892"/>
      <point x="67.79386772057026" y="-132.60665930380728" type="curve"/>
      <point x="57.03014013405563" y="-122.66801298811569" type="line"/>
      <point x="168.26751250989702" y="-74.114494266924"/>
      <point x="201.9487048559526" y="52.70259285411392"/>
      <point x="195.0822003883081" y="160.4914044151595" type="curve"/>
      <point x="203.06601717798213" y="153.0" type="line"/>
    </contour>
    <contour>
      <point x="84.97918471982868" y="169.0" type="curve" smooth="yes"/>
      <point x="203.06601717798213" y="169.0" type="line" smooth="yes"/>
      <point x="207.28682644175677" y="169.0"/>
      <point x="210.78149834815494" y="165.72086656810745"/>
      <point x="211.04983396765616" y="161.5085955848405" type="curve" smooth="yes"/>
      <point x="218.32333561808088" y="47.33083563713217"/>
      <point x="181.2614813594238" y="-85.90056361201569"/>
      <point x="63.430754622543404" y="-137.3319870118843" type="curve" smooth="yes"/>
      <point x="57.0459154761249" y="-140.1188777879447"/>
      <point x="50.39709661507354" y="-133.9797165590896"/>
      <point x="52.66702703602877" y="-127.39334069619271" type="curve" smooth="yes"/>
      <point x="93.13358718822343" y="-9.976536823975108"/>
      <point x="93.86555493576313" y="71.6856250318474"/>
      <point x="77.12077142451015" y="159.50155397829585" type="curve" smooth="yes"/>
      <point x="76.18066478714331" y="164.43182600084012"/>
      <point x="79.96008293704882" y="169.0"/>
    </contour>
  </outline>
</glyph>
<glyph name="hyphen" format="2">
  <advance width="240"/>
  <unicode hex="002D"/>
  <outline>
    <contour>
      <point x="69.36549281579569" y="218.36801526395422" type="line" smooth="yes"/>
      <point x="64.21149879293668" y="216.74827120895043"/>
      <point x="58.966991411008934" y="220.5974797370684"/>
      <point x="58.966991411008934" y="226.0" type="curve" smooth="yes"/>
      <point x="58.966991411008934" y="351.0" type="line" smooth="yes"/>
      <point x="58.966991411008934" y="354.49432085264675"/>
      <point x="61.234914579941375" y="357.5843430518147"/>
      <point x="64.56849000622218" y="358.6319847360458" type="curve" smooth="yes"/>
      <point x="255.48732092658997" y="418.6319847360458" type="line" smooth="yes"/>
      <point x="260.6413149494491" y="420.25172879104963"/>
      <point x="265.88582233137674" y="416.4025202629317"/>
      <point x="265.88582233137674" y="411.0" type="curve" smooth="yes"/>
      <point x="265.88582233137674" y="286.0" type="line" smooth="yes"/>
      <point x="265.88582233137674" y="282.50567914735325"/>
      <point x="263.6178991624443" y="279.4156569481853"/>
      <point x="260.2843237361635" y="278.3680152639542" type="curve" smooth="yes"/>
    </contour>
    <contour>
      <point x="64.56849000622218" y="233.63198473604578" type="line"/>
      <point x="255.48732092658997" y="293.6319847360458" type="line"/>
      <point x="249.88582233137674" y="286.0" type="line"/>
      <point x="249.88582233137674" y="411.0" type="line"/>
      <point x="260.2843237361635" y="403.3680152639542" type="line"/>
      <point x="69.36549281579569" y="343.3680152639542" type="line"/>
      <point x="74.96699141100893" y="351.0" type="line"/>
      <point x="74.96699141100893" y="226.0" type="line"/>
    </contour>
  </outline>
</glyph>
<glyph name="period" format="2">
  <advance width="191"/>
  <unicode hex="002E"/>
  <outline>
    <contour>
      <point x="81.00431098567577" y="-8.0" type="line" smooth="yes"/>
      <point x="76.58603298702943" y="-7.999999999999999"/>
      <point x="73.00431098567577" y="-4.418277998646345"/>
      <point x="73.00431098567577" y="1.959434878635765e-15" type="curve" smooth="yes"/>
      <point x="73.00431098567577" y="161.0" type="line" smooth="yes"/>
      <point x="73.00431098567577" y="165.41827799864635"/>
      <point x="76.58603298702943" y="169.0"/>
      <point x="81.00431098567577" y="169.0" type="curve" smooth="yes"/>
      <point x="194.84850275670993" y="169.0" type="line" smooth="yes"/>
      <point x="199.26678075535628" y="169.0"/>
      <point x="202.84850275670993" y="165.41827799864635"/>
      <point x="202.84850275670993" y="161.0" type="curve" smooth="yes"/>
      <point x="202.84850275670993" y="-9.797174393178826e-16" type="line" smooth="yes"/>
      <point x="202.84850275670993" y="-4.418277998646348"/>
      <point x="199.26678075535628" y="-8.0"/>
      <point x="194.84850275670993" y="-8.0" type="curve" smooth="yes"/>
    </contour>
    <contour>
      <point x="81.00431098567577" y="8.0" type="line"/>
      <point x="194.84850275670993" y="8.0" type="line"/>
      <point x="186.84850275670993" y="9.797174393178826e-16" type="line"/>
      <point x="186.84850275670993" y="161.0" type="line"/>
      <point x="194.84850275670993" y="153.0" type="line"/>
      <point x="81.00431098567577" y="153.0" type="line"/>
      <point x="89.00431098567577" y="161.0" type="line"/>
      <point x="89.00431098567577" y="-1.959434878635765e-15" type="line"/>
    </contour>
  </outline>
</glyph>
<glyph name="slash" format="2">
  <advance width="346"/>
  <unicode hex="002F"/>
  <outline>
    <contour>
      <point x="59.86291501015239" y="-83.0" type="line" smooth="yes"/>
      <point x="54.636210707986336" y="-83.0"/>
      <point x="50.813345448311736" y="-78.06980921356495"/>
      <point x="52.1149470344869" y="-73.007767019633" type="curve" smooth="yes"/>
      <point x="264.24698139045114" y="751.992232980367" type="line" smooth="yes"/>
      <point x="265.15617994505743" y="755.528185529106"/>
      <point x="268.3439765589552" y="758.0"/>
      <point x="271.99494936611666" y="758.0" type="curve" smooth="yes"/>
      <point x="371.69700551341987" y="758.0" type="line" smooth="yes"/>
      <point x="376.9237098155858" y="758.0"/>
      <point x="380.74657507526047" y="753.0698092135649"/>
      <point x="379.4449734890853" y="748.007767019633" type="curve" smooth="yes"/>
      <point x="167.3129391331211" y="-76.992232980367" type="line" smooth="yes"/>
      <point x="166.40374057851477" y="-80.52818552910622"/>
      <point x="163.21594396461722" y="-83.0"/>
      <point x="159.5649711574556" y="-83.0" type="curve" smooth="yes"/>
    </contour>
    <contour>
      <point x="59.86291501015239" y="-67.0" type="line"/>
      <point x="159.5649711574556" y="-67.0" type="line"/>
      <point x="151.8170031817901" y="-73.007767019633" type="line"/>
      <point x="363.9490375377544" y="751.992232980367" type="line"/>
      <point x="371.69700551341987" y="742.0" type="line"/>
      <point x="271.99494936611666" y="742.0" type="line"/>
      <point x="279.7429173417822" y="748.007767019633" type="line"/>
      <point x="67.61088298581788" y="-76.992232980367" type="line"/>
    </contour>
  </outline>
</glyph>
<glyph name="zero" format="2">
  <advance width="456"/>
  <unicode hex="0030"/>
  <outline>
    <contour>
      <point x="270.42640687119285" y="579.0" type="curve" smooth="yes"/>
      <point x="335.97729860780737" y="579.0"/>
      <point x="373.88582233137674" y="489.2427284696491"/>
      <point x="373.88582233137674" y="339.0" type="curve" smooth="yes"/>
      <point x="373.88582233137674" y="188.83442636150414"/>
      <point x="335.94363596046736" y="101.00000000000001"/>
      <point x="270.42640687119285" y="101.0" type="curve" smooth="yes"/>
      <point x="204.87551513457828" y="100.99999999999999"/>
      <point x="166.9669914110089" y="190.75727153035092"/>
      <point x="166.9669914110089" y="341.0" type="curve" smooth="yes"/>
      <point x="166.9669914110089" y="491.1655736384959"/>
      <point x="204.9091777819183" y="579.0"/>
    </contour>
    <contour>
      <point x="270.42640687119285" y="704.0" type="curve" smooth="yes"/>
      <point x="396.3209012128166" y="704.0"/>
      <point x="482.07315985291865" y="551.0034131396623"/>
      <point x="482.0731598529186" y="339.0" type="curve" smooth="yes"/>
      <point x="482.07315985291854" y="128.02572964256893"/>
      <point x="396.3209012128166" y="-24.000000000000014"/>
      <point x="270.42640687119285" y="-24.0" type="curve" smooth="yes"/>
      <point x="144.53191252956913" y="-23.999999999999986"/>
      <point x="58.779653889467085" y="128.99658686033763"/>
      <point x="58.77965388946714" y="341.0" type="curve" smooth="yes"/>
      <point x="58.7796538894672" y="551.974270357431"/>
      <point x="144.53191252956913" y="704.0"/>
    </contour>
    <contour>
      <point x="270.42640687119285" y="563.0" type="curve" smooth="yes"/>
      <point x="213.10581206037435" y="563.0"/>
      <point x="182.9669914110089" y="472.37887729252964"/>
      <point x="182.9669914110089" y="341.0" type="curve" smooth="yes"/>
      <point x="182.9669914110089" y="209.68681214611664"/>
      <point x="213.13447235777977" y="116.99999999999999"/>
      <point x="270.42640687119285" y="117.0" type="curve" smooth="yes"/>
      <point x="327.74700168201133" y="117.00000000000001"/>
      <point x="357.88582233137674" y="207.62112270747036"/>
      <point x="357.88582233137674" y="339.0" type="curve" smooth="yes"/>
      <point x="357.88582233137674" y="470.3131878538834"/>
      <point x="327.71834138460594" y="563.0"/>
    </contour>
    <contour>
      <point x="270.42640687119285" y="688.0" type="curve" smooth="yes"/>
      <point x="151.75464041060093" y="688.0"/>
      <point x="74.7796538894672" y="539.8704070974858"/>
      <point x="74.77965388946714" y="341.0" type="curve" smooth="yes"/>
      <point x="74.77965388946708" y="141.15949335569718"/>
      <point x="151.75464041060093" y="-7.999999999999987"/>
      <point x="270.42640687119285" y="-8.0" type="curve" smooth="yes"/>
      <point x="389.0981733317847" y="-8.000000000000014"/>
      <point x="466.07315985291854" y="140.12959290251422"/>
      <point x="466.0731598529186" y="339.0" type="curve" smooth="yes"/>
      <point x="466.07315985291865" y="538.8405066443028"/>
      <point x="389.0981733317847" y="688.0"/>
    </contour>
  </outline>
</glyph>
<glyph name="one" format="2">
  <advance width="278"/>
  <unicode hex="0031"/>
  <outline>
    <contour>
      <point x="266.50104602052653" y="349.0" type="curve" smooth="yes"/>
      <point x="266.50104602052625" y="96.74796636366958"/>
      <point x="271.09058856708236" y="42.39139637317538"/>
      <point x="285.1354014452198" y="2.6666666666666647" type="curve" smooth="yes"/>
      <point x="286.9758924326155" y="-2.5390279649342147"/>
      <point x="283.1144020747504" y="-8.0"/>
      <point x="277.5929291125633" y="-8.0" type="curve" smooth="yes"/>
      <point x="131.22182540694797" y="-8.0" type="line" smooth="yes"/>
      <point x="125.33983386402716" y="-7.999999999999999"/>
      <point x="121.46901660400522" y="-1.8656218706464456"/>
      <point x="124.00089184738036" y="3.443561895524783" type="curve" smooth="yes"/>
      <point x="144.26455221882253" y="45.93518819850675"/>
      <point x="149.38477631085024" y="98.00295160564139"/>
      <point x="149.3847763108502" y="349.0" type="curve" smooth="yes"/>
      <point x="149.3847763108502" y="428.88555488404785"/>
      <point x="148.6795941000318" y="486.8130836973325"/>
      <point x="147.26740366059784" y="531.7487083196096" type="curve"/>
      <point x="157.93012263395724" y="524.4575276673435" type="line"/>
      <point x="116.91555882880375" y="509.9566895703272"/>
      <point x="92.55177904564857" y="489.7701016861701"/>
      <point x="68.62661682597569" y="462.70187057173985" type="curve" smooth="yes"/>
      <point x="63.747587905888345" y="457.18187947574137"/>
      <point x="54.63246763185285" y="460.63282788968854"/>
      <point x="54.63246763185285" y="468.0" type="curve" smooth="yes"/>
      <point x="54.63246763185285" y="630.0" type="line" smooth="yes"/>
      <point x="54.63246763185285" y="633.5246058093621"/>
      <point x="56.939180756718244" y="636.6339528690525"/>
      <point x="60.312300058143265" y="637.6561623826763" type="curve" smooth="yes"/>
      <point x="268.2016937269883" y="700.6561623826763" type="line" smooth="yes"/>
      <point x="273.8210387681115" y="702.3590810902784"/>
      <point x="279.2992276702061" y="697.6297743391362"/>
      <point x="278.4346652363873" y="691.8220637218683" type="curve" smooth="yes"/>
      <point x="269.97410997578027" y="634.9881617467707"/>
      <point x="266.50104602052676" y="585.309381896458"/>
    </contour>
    <contour>
      <point x="250.50104602052653" y="349.0" type="curve" smooth="yes"/>
      <point x="250.50104602052676" y="586.6321494343871"/>
      <point x="254.10114322359127" y="637.0259003382156"/>
      <point x="262.6090573650085" y="694.1779362781317" type="curve"/>
      <point x="272.84202887440745" y="685.3438376173237" type="line"/>
      <point x="64.95263520556243" y="622.3438376173237" type="line"/>
      <point x="70.63246763185285" y="630.0" type="line"/>
      <point x="70.63246763185285" y="468.0" type="line"/>
      <point x="56.63831843773001" y="473.29812942826015" type="line"/>
      <point x="82.21071392489748" y="502.22999224451667"/>
      <point x="108.75839703690825" y="524.0432601096619"/>
      <point x="152.59678930062393" y="539.5424723326565" type="curve" smooth="yes"/>
      <point x="157.70273673727093" y="541.3476973610741"/>
      <point x="163.08939401240562" y="537.6642943376071"/>
      <point x="163.25950827398333" y="532.2512916803904" type="curve" smooth="yes"/>
      <point x="164.67607704130998" y="487.1763495176709"/>
      <point x="165.3847763108502" y="429.13323051150127"/>
      <point x="165.3847763108502" y="349.0" type="curve" smooth="yes"/>
      <point x="165.38477631085024" y="92.01355332035371"/>
      <point x="159.18995941724862" y="40.06201766047832"/>
      <point x="138.44275896651558" y="-3.443561895524783" type="curve"/>
      <point x="131.22182540694797" y="8.0" type="line"/>
      <point x="277.5929291125633" y="8.0" type="line"/>
      <point x="270.05045677990677" y="-2.6666666666666647" type="line"/>
      <point x="255.81358474647277" y="37.601288364238535"/>
      <point x="250.50104602052625" y="93.29848555375197"/>
    </contour>
  </outline>
</glyph>
<glyph name="two" format="2">
  <advance width="367"/>
  <unicode hex="0032"/>
  <outline>
    <contour>
      <point x="382.7723843109611" y="499.0" type="curve" smooth="yes"/>
      <point x="382.772384310961" y="410.13464072882704"/>
      <point x="349.1766709300027" y="349.94579025091787"/>
      <point x="307.76525177868433" y="291.38119793657177" type="curve" smooth="yes"/>
      <point x="272.2190927164631" y="241.11133622975294"/>
      <point x="231.2399432193656" y="190.23068971560983"/>
      <point x="201.0737843299711" y="121.77403899933628" type="curve"/>
      <point x="193.95147337796462" y="132.9975388401202" type="line"/>
      <point x="310.02898493002414" y="130.11756706602475"/>
      <point x="350.0802210831094" y="143.5191105901336"/>
      <point x="375.1964077932042" y="171.3588377397232" type="curve" smooth="yes"/>
      <point x="380.3313392000537" y="177.0505890771622"/>
      <point x="389.758185285969" y="172.95898195245985"/>
      <point x="389.1074706354329" y="165.32091123506885" type="curve" smooth="yes"/>
      <point x="374.96533501170194" y="-0.6790887649311492" type="line" smooth="yes"/>
      <point x="374.6126303171017" y="-4.819126794646293"/>
      <point x="371.14924467433013" y="-8.0"/>
      <point x="366.9942097179091" y="-8.0" type="curve" smooth="yes"/>
      <point x="61.52408024532053" y="-8.0" type="line" smooth="yes"/>
      <point x="56.724887029433326" y="-7.999999999999999"/>
      <point x="53.00568960932991" y="-3.8038502199856676"/>
      <point x="53.581963912629796" y="0.9606186329688791" type="curve" smooth="yes"/>
      <point x="72.16431525084364" y="154.59411167370538"/>
      <point x="133.4506243963391" y="245.78579472392565"/>
      <point x="184.31143080143264" y="320.5017455192154" type="curve" smooth="yes"/>
      <point x="224.00532023707163" y="378.8131821552232"/>
      <point x="258.5850467894193" y="426.8531551280928"/>
      <point x="258.5850467894193" y="488.0" type="curve" smooth="yes"/>
      <point x="258.5850467894193" y="530.4593672588918"/>
      <point x="242.20908420254236" y="559.0"/>
      <point x="199.40990257669733" y="559.0" type="curve" smooth="yes"/>
      <point x="161.79233751676304" y="559.0"/>
      <point x="118.58764768438043" y="533.5520228087989"/>
      <point x="82.98530932408548" y="494.6025567670193" type="curve" smooth="yes"/>
      <point x="78.05905361435005" y="489.21316274638804"/>
      <point x="69.08042943142459" y="492.69838625868795"/>
      <point x="69.08042943142459" y="500.0" type="curve" smooth="yes"/>
      <point x="69.08042943142459" y="664.0" type="line" smooth="yes"/>
      <point x="69.08042943142459" y="667.2280141299852"/>
      <point x="71.02044090900377" y="670.139756862573"/>
      <point x="73.99946653948692" y="671.3829308312148" type="curve" smooth="yes"/>
      <point x="118.16805806587338" y="689.8148780609786"/>
      <point x="160.22499549809234" y="698.0"/>
      <point x="202.94543648263004" y="698.0" type="curve" smooth="yes"/>
      <point x="309.52709534793553" y="698.0"/>
      <point x="382.77238431096123" y="625.8204534554452"/>
    </contour>
    <contour>
      <point x="366.7723843109611" y="499.0" type="curve" smooth="yes"/>
      <point x="366.77238431096123" y="616.1774408669829"/>
      <point x="301.42297452093953" y="682.0"/>
      <point x="202.94543648263004" y="682.0" type="curve" smooth="yes"/>
      <point x="162.23049824173182" y="682.0"/>
      <point x="122.25649796225704" y="674.1837322421126"/>
      <point x="80.16139232336226" y="656.6170691687852" type="curve"/>
      <point x="85.08042943142459" y="664.0" type="line"/>
      <point x="85.08042943142459" y="500.0" type="line"/>
      <point x="71.1755495387637" y="505.3974432329807" type="line"/>
      <point x="110.50583407461211" y="548.4253355708331"/>
      <point x="157.85337551995173" y="575.0"/>
      <point x="199.40990257669733" y="575.0" type="curve" smooth="yes"/>
      <point x="251.3283035556692" y="575.0"/>
      <point x="274.5850467894193" y="539.5061823829221"/>
      <point x="274.5850467894193" y="488.0" type="curve" smooth="yes"/>
      <point x="274.5850467894193" y="423.22879212010554"/>
      <point x="239.58448088925417" y="373.26599069085654"/>
      <point x="197.53781160348487" y="311.4982544807846" type="curve" smooth="yes"/>
      <point x="147.7636135023307" y="238.37856175352974"/>
      <point x="87.65154797269297" y="149.3905939820179"/>
      <point x="69.46619657801128" y="-0.9606186329688791" type="curve"/>
      <point x="61.52408024532053" y="8.0" type="line"/>
      <point x="366.9942097179091" y="8.0" type="line"/>
      <point x="359.02308442411623" y="0.6790887649311492" type="line"/>
      <point x="373.1652200478472" y="166.67908876493115" type="line"/>
      <point x="387.0762828900759" y="160.6411622602768" type="line"/>
      <point x="359.8931752851453" y="130.51038215682107"/>
      <point x="319.1846611262597" y="113.88548390779818"/>
      <point x="193.5546232764452" y="117.00246115987981" type="curve" smooth="yes"/>
      <point x="187.8633007334521" y="117.14366722177702"/>
      <point x="184.13660799177705" y="123.01627453626911"/>
      <point x="186.43231232443873" y="128.22596100066372" type="curve" smooth="yes"/>
      <point x="217.08752406941193" y="197.79242886796723"/>
      <point x="258.5788740385454" y="249.533966878965"/>
      <point x="294.70130635643596" y="300.61880206342823" type="curve" smooth="yes"/>
      <point x="334.3858040468578" y="356.7411585551685"/>
      <point x="366.772384310961" y="413.8404663006316"/>
    </contour>
  </outline>
</glyph>
<glyph name="three" format="2">
  <advance width="369"/>
  <unicode hex="0033"/>
  <outline>
    <contour>
      <point x="203.2383297014435" y="119.0" type="curve" smooth="yes"/>
      <point x="251.22167989946846" y="119.0"/>
      <point x="275.1413959755234" y="148.56447629732492"/>
      <point x="275.1413959755234" y="199.0" type="curve" smooth="yes"/>
      <point x="275.1413959755234" y="268.48792093863597"/>
      <point x="233.8627089002991" y="306.8577483374749"/>
      <point x="108.66845273913283" y="304.0020803536953" type="curve" smooth="yes"/>
      <point x="102.65466523957538" y="303.86490648525813"/>
      <point x="98.64649803874212" y="310.16472230625"/>
      <point x="101.31875953922001" y="315.55392217571847" type="curve" smooth="yes"/>
      <point x="220.81980555974658" y="556.5539221757184" type="line"/>
      <point x="228.17401941981663" y="545.0021847477707" type="line"/>
      <point x="145.79045876975704" y="543.076433528136"/>
      <point x="115.21721078087386" y="532.9442574373574"/>
      <point x="94.11067871350325" y="517.5382476802796" type="curve" smooth="yes"/>
      <point x="88.82445477622825" y="513.6797446682355"/>
      <point x="81.39413793040936" y="517.4553679240944"/>
      <point x="81.39413793040936" y="524.0" type="curve" smooth="yes"/>
      <point x="81.39413793040936" y="680.0" type="line" smooth="yes"/>
      <point x="81.39413793040936" y="684.4182779986463"/>
      <point x="84.97585993176301" y="688.0"/>
      <point x="89.39413793040936" y="688.0" type="curve" smooth="yes"/>
      <point x="394.1571606218114" y="688.0" type="line" smooth="yes"/>
      <point x="400.0811889125536" y="688.0"/>
      <point x="403.9503238956295" y="681.7855151306711"/>
      <point x="401.3360129084524" y="676.4695496255309" type="curve" smooth="yes"/>
      <point x="270.5212583889411" y="410.46954962553093" type="line"/>
      <point x="265.7703523532637" y="421.622668627353" type="line"/>
      <point x="347.23818696648357" y="395.67381353564497"/>
      <point x="399.3287334970653" y="314.90928297783745"/>
      <point x="399.3287334970652" y="208.0" type="curve" smooth="yes"/>
      <point x="399.328733497065" y="18.8150656849054"/>
      <point x="237.32594412803263" y="-72.74595003627152"/>
      <point x="79.42882287258155" y="6.856454019806512" type="curve" smooth="yes"/>
      <point x="76.73155599990085" y="8.216256692198751"/>
      <point x="75.03017689973044" y="10.979352405475641"/>
      <point x="75.03017689973044" y="14.000000000000002" type="curve" smooth="yes"/>
      <point x="75.03017689973044" y="177.0" type="line" smooth="yes"/>
      <point x="75.03017689973044" y="184.1945254255612"/>
      <point x="83.78651598592923" y="187.73262070911548"/>
      <point x="88.78456286464271" y="182.55761119248373" type="curve" smooth="yes"/>
      <point x="126.42094611620274" y="143.5886606754455"/>
      <point x="163.5857116328356" y="119.0"/>
    </contour>
    <contour>
      <point x="203.2383297014435" y="103.0" type="curve" smooth="yes"/>
      <point x="159.4993100781791" y="103.0"/>
      <point x="118.79079261113688" y="128.457492112583"/>
      <point x="77.27579093481816" y="171.44238880751627" type="curve"/>
      <point x="91.03017689973044" y="177.0" type="line"/>
      <point x="91.03017689973044" y="13.999999999999998" type="line"/>
      <point x="86.63153092687932" y="21.143545980193487" type="line"/>
      <point x="234.21013441058264" y="-53.25687076670723"/>
      <point x="383.328733497065" y="31.1782303287944"/>
      <point x="383.3287334970652" y="208.0" type="curve" smooth="yes"/>
      <point x="383.3287334970653" y="307.1265997172827"/>
      <point x="336.4516742690268" y="382.31747707233575"/>
      <point x="260.9144598513364" y="406.377331372647" type="curve" smooth="yes"/>
      <point x="256.25479605587356" y="407.8615114932872"/>
      <point x="254.00542356025736" y="413.14208722655496"/>
      <point x="256.16355381565904" y="417.53045037446907" type="curve" smooth="yes"/>
      <point x="386.97830833517037" y="683.5304503744691" type="line"/>
      <point x="394.1571606218114" y="672.0" type="line"/>
      <point x="89.39413793040936" y="672.0" type="line"/>
      <point x="97.39413793040936" y="680.0" type="line"/>
      <point x="97.39413793040936" y="524.0" type="line"/>
      <point x="84.67759714731547" y="530.4617523197204" type="line"/>
      <point x="107.38442755013298" y="547.0358465205825"/>
      <point x="139.17022825513124" y="558.9260534771216"/>
      <point x="227.80011466612874" y="560.9978152522293" type="curve" smooth="yes"/>
      <point x="233.8158099331457" y="561.1384347205553"/>
      <point x="237.8274726458828" y="554.8370576884511"/>
      <point x="235.15432852619878" y="549.4460778242816" type="curve" smooth="yes"/>
      <point x="115.65328250567224" y="308.44607782428153" type="line"/>
      <point x="108.30358930575942" y="319.9979196463047" type="line"/>
      <point x="246.05491625161198" y="323.14001311084843"/>
      <point x="291.1413959755234" y="275.45760763723223"/>
      <point x="291.1413959755234" y="199.0" type="curve" smooth="yes"/>
      <point x="291.1413959755234" y="139.44722784471963"/>
      <point x="259.8956480319846" y="103.0"/>
    </contour>
  </outline>
</glyph>
<glyph name="four" format="2">
  <advance width="409"/>
  <unicode hex="0034"/>
  <outline>
    <contour>
      <point x="248.69417382415924" y="-8.0" type="line" smooth="yes"/>
      <point x="243.2121579768338" y="-7.999999999999999"/>
      <point x="239.35424143097376" y="-2.6111607842207265"/>
      <point x="241.12105148724083" y="2.578336298869403" type="curve" smooth="yes"/>
      <point x="250.19114255583614" y="29.219123732061632"/>
      <point x="255.5736323480227" y="61.4424890519955"/>
      <point x="257.6667302869293" y="155.17859298359778" type="curve"/>
      <point x="265.66473657263634" y="147.0" type="line"/>
      <point x="38.6834598117546" y="147.0" type="line" smooth="yes"/>
      <point x="33.09950892936373" y="147.0"/>
      <point x="29.233381060726344" y="152.57584673415272"/>
      <point x="31.191423035933237" y="157.8052424048093" type="curve" smooth="yes"/>
      <point x="227.76710820579342" y="682.8052424048093" type="line" smooth="yes"/>
      <point x="228.93697142743002" y="685.9296277570899"/>
      <point x="231.92292499682915" y="688.0"/>
      <point x="235.25914498161478" y="688.0" type="curve" smooth="yes"/>
      <point x="385.8728893743495" y="688.0" type="line" smooth="yes"/>
      <point x="391.3943623365367" y="688.0"/>
      <point x="395.25585269440177" y="682.5390279649343"/>
      <point x="393.415361707006" y="677.3333333333334" type="curve" smooth="yes"/>
      <point x="377.9508186556054" y="633.5930002949472"/>
      <point x="374.0780477106969" y="553.3438862323601"/>
      <point x="374.7809814857606" y="271.0199184391397" type="curve"/>
      <point x="366.3546805399247" y="278.98863232107834" type="line"/>
      <point x="401.6771479836692" y="280.87367052920763"/>
      <point x="413.87773386619455" y="286.1271158938045"/>
      <point x="429.20635181347984" y="297.4373451425801" type="curve" smooth="yes"/>
      <point x="434.4878512425282" y="301.3343024237415"/>
      <point x="441.95615049503465" y="297.5635746564075"/>
      <point x="441.95615049503465" y="291.0" type="curve" smooth="yes"/>
      <point x="441.95615049503465" y="134.0" type="line" smooth="yes"/>
      <point x="441.95615049503465" y="127.51045962234171"/>
      <point x="434.636035871668" y="123.72128946862023"/>
      <point x="429.3373483415176" y="127.46802735257819" type="curve" smooth="yes"/>
      <point x="414.66785729859276" y="137.84092394558567"/>
      <point x="402.46587994477494" y="143.12629345368714"/>
      <point x="368.45933252708545" y="145.01227465241575" type="curve"/>
      <point x="376.900246272177" y="153.1824317166867" type="line"/>
      <point x="378.9933442110838" y="61.41971944680235"/>
      <point x="384.37592064267244" y="29.219123732061654"/>
      <point x="393.4460117112679" y="2.5783362988694245" type="curve" smooth="yes"/>
      <point x="395.212821767535" y="-2.611160784220724"/>
      <point x="391.354905221675" y="-8.0"/>
      <point x="385.8728893743495" y="-8.0" type="curve" smooth="yes"/>
    </contour>
    <contour>
      <point x="187.63324376988356" y="266.2939371676923" type="line"/>
      <point x="180.10481604906408" y="277.0" type="line"/>
      <point x="267.786056916196" y="277.0" type="line"/>
      <point x="259.786056916196" y="269.0" type="line"/>
      <point x="259.786056916196" y="347.92644867233366"/>
      <point x="259.0788662834185" y="449.95905873792964"/>
      <point x="258.37241783947945" y="508.90412799954595" type="curve"/>
      <point x="273.9002710746424" y="506.2939371676923" type="line"/>
    </contour>
    <contour>
      <point x="248.69417382415924" y="8.0" type="line"/>
      <point x="385.8728893743495" y="8.0" type="line"/>
      <point x="378.2997670374311" y="-2.5783362988694245" type="line"/>
      <point x="368.98534018959526" y="24.780117308547304"/>
      <point x="363.05389009829895" y="58.5828947466557"/>
      <point x="360.9044069795676" y="152.8175682833133" type="curve" smooth="yes"/>
      <point x="360.7980346182423" y="157.48099860079952"/>
      <point x="364.68783450311554" y="161.24602653115574"/>
      <point x="369.3453207246592" y="160.98772534758425" type="curve" smooth="yes"/>
      <point x="407.44549550678767" y="158.8747142140285"/>
      <point x="422.13958313469243" y="152.1535338819784"/>
      <point x="438.5749526485517" y="140.5319726474218" type="curve"/>
      <point x="425.95615049503465" y="134.0" type="line"/>
      <point x="425.95615049503465" y="291.0" type="line"/>
      <point x="438.70594917658946" y="284.5626548574199" type="line"/>
      <point x="421.5235174121001" y="271.88458805608525"/>
      <point x="406.801631308089" y="265.1243788124774"/>
      <point x="367.20733202470063" y="263.01136767892166" type="curve" smooth="yes"/>
      <point x="362.6359194329134" y="262.7674071624496"/>
      <point x="358.7924292005747" y="266.4021781214276"/>
      <point x="358.7810310788647" y="270.9800815608603" type="curve" smooth="yes"/>
      <point x="358.0695432211219" y="556.7396824798278"/>
      <point x="362.6776841713508" y="638.3940524397842"/>
      <point x="378.33041704169295" y="682.6666666666666" type="curve"/>
      <point x="385.8728893743495" y="672.0" type="line"/>
      <point x="235.25914498161478" y="672.0" type="line"/>
      <point x="242.75118175743614" y="677.1947575951907" type="line"/>
      <point x="46.175496587575964" y="152.1947575951907" type="line"/>
      <point x="38.6834598117546" y="163.0" type="line"/>
      <point x="265.66473657263634" y="163.0" type="line" smooth="yes"/>
      <point x="270.15292762423593" y="163.0"/>
      <point x="273.76293778720117" y="159.3084795466707"/>
      <point x="273.6627428583434" y="154.82140701640222" type="curve" smooth="yes"/>
      <point x="271.51325973961207" y="58.5601813606767"/>
      <point x="265.58172300891334" y="24.780117308547325"/>
      <point x="256.26729616107764" y="-2.578336298869403" type="curve"/>
    </contour>
    <contour>
      <point x="172.5763883282446" y="271.7060628323077" type="curve" smooth="yes"/>
      <point x="258.8434156330034" y="511.7060628323077" type="line" smooth="yes"/>
      <point x="261.85870636168863" y="520.0947809496935"/>
      <point x="274.2644413582289" y="518.0094098903478"/>
      <point x="274.37126886816634" y="509.09587200045405" type="curve" smooth="yes"/>
      <point x="275.07884549830544" y="450.0566684615616"/>
      <point x="275.786056916196" y="348.0524928741103"/>
      <point x="275.786056916196" y="269.0" type="curve" smooth="yes"/>
      <point x="275.786056916196" y="264.5817220013536"/>
      <point x="272.2043349148424" y="261.0"/>
      <point x="267.786056916196" y="261.0" type="curve" smooth="yes"/>
      <point x="180.10481604906408" y="261.0" type="line" smooth="yes"/>
      <point x="174.56565387308348" y="261.0"/>
      <point x="170.7027232174264" y="266.4934150728368"/>
    </contour>
  </outline>
</glyph>
<glyph name="five" format="2">
  <advance width="373"/>
  <unicode hex="0035"/>
  <outline>
    <contour>
      <point x="87.41261163545856" y="282.3629845665996" type="curve" smooth="yes"/>
      <point x="82.05182217173383" y="280.6906387214614"/>
      <point x="76.68140524129464" y="284.91740065562595"/>
      <point x="77.04716406057621" y="290.52106238580296" type="curve" smooth="yes"/>
      <point x="102.5030081832919" y="680.5210623858029" type="line" smooth="yes"/>
      <point x="102.77760765305976" y="684.7281039081031"/>
      <point x="106.27002727966676" y="688.0"/>
      <point x="110.48602102244612" y="688.0" type="curve" smooth="yes"/>
      <point x="360.0947147812974" y="688.0" type="line" smooth="yes"/>
      <point x="364.5129927799438" y="688.0"/>
      <point x="368.0947147812974" y="684.4182779986463"/>
      <point x="368.0947147812974" y="680.0" type="curve" smooth="yes"/>
      <point x="368.0947147812974" y="524.0" type="line" smooth="yes"/>
      <point x="368.0947147812974" y="517.4586801237818"/>
      <point x="360.6710346161577" y="513.6822133589149"/>
      <point x="355.3840076318738" y="517.5339936473608" type="curve" smooth="yes"/>
      <point x="332.93822644497396" y="533.8865142211104"/>
      <point x="294.54052010149485" y="543.0384572154903"/>
      <point x="194.55476754166799" y="544.0003701904169" type="curve"/>
      <point x="202.6133594410077" y="551.4581888900705" type="line"/>
      <point x="194.12807806676912" y="426.45818889007046" type="line"/>
      <point x="185.71431362427037" y="434.98832029172326" type="line"/>
      <point x="319.55515055178165" y="442.2285207697329"/>
      <point x="394.9647724663862" y="357.7696952061915"/>
      <point x="394.9647724663862" y="214.0" type="curve" smooth="yes"/>
      <point x="394.96477246638614" y="15.7092289312033"/>
      <point x="235.81388478794432" y="-72.69901105876339"/>
      <point x="74.42316864133159" y="6.823850255285267" type="curve" smooth="yes"/>
      <point x="71.68996930349789" y="8.17059334606348"/>
      <point x="69.95910908786496" y="10.953018612972274"/>
      <point x="69.95910908786496" y="14.000000000000002" type="curve" smooth="yes"/>
      <point x="69.95910908786496" y="177.0" type="line" smooth="yes"/>
      <point x="69.95910908786496" y="184.1945254255612"/>
      <point x="78.71544817406375" y="187.73262070911548"/>
      <point x="83.71349505277723" y="182.55761119248373" type="curve" smooth="yes"/>
      <point x="121.38754293370623" y="143.54966247871891"/>
      <point x="159.88917500597233" y="119.0"/>
      <point x="199.58147545195112" y="119.0" type="curve" smooth="yes"/>
      <point x="247.7565311898339" y="119.0"/>
      <point x="270.77743494484446" y="154.15624165515422"/>
      <point x="270.77743494484446" y="214.0" type="curve" smooth="yes"/>
      <point x="270.77743494484446" y="283.147914069702"/>
      <point x="224.05057909426066" y="324.9884110479227"/>
    </contour>
    <contour>
      <point x="82.64774216400231" y="297.6370154334004" type="line"/>
      <point x="234.43811440218056" y="344.9893690488913"/>
      <point x="286.77743494484446" y="290.81604030957396"/>
      <point x="286.77743494484446" y="214.0" type="curve" smooth="yes"/>
      <point x="286.77743494484446" y="143.8662583342805"/>
      <point x="256.04011052601834" y="103.0"/>
      <point x="199.58147545195112" y="103.0" type="curve" smooth="yes"/>
      <point x="155.88616206590112" y="103.0"/>
      <point x="113.67824091310182" y="128.5004447920844"/>
      <point x="72.20472312295269" y="171.44238880751627" type="curve"/>
      <point x="85.95910908786496" y="177.0" type="line"/>
      <point x="85.95910908786496" y="13.999999999999998" type="line"/>
      <point x="81.49504953439833" y="21.176149744714735" type="line"/>
      <point x="232.71654323837757" y="-53.335979321001766"/>
      <point x="378.96477246638614" y="28.203522329641945"/>
      <point x="378.9647724663862" y="214.0" type="curve" smooth="yes"/>
      <point x="378.9647724663862" y="348.24009219292583"/>
      <point x="311.5479360542604" y="425.7719721208701"/>
      <point x="186.57857959454307" y="419.01167970827674" type="curve" smooth="yes"/>
      <point x="181.78173869131285" y="418.75219171793105"/>
      <point x="177.83946744451345" y="422.7489867299589"/>
      <point x="178.16481515204433" y="427.54181110992954" type="curve" smooth="yes"/>
      <point x="186.6500965262829" y="552.5418111099295" type="line" smooth="yes"/>
      <point x="186.93709766088344" y="556.7697371200187"/>
      <point x="190.4712285624736" y="560.0403962939945"/>
      <point x="194.70868842562263" y="559.9996298095831" type="curve" smooth="yes"/>
      <point x="302.4907144823777" y="558.9627127821715"/>
      <point x="340.6094568975718" y="548.0935958186373"/>
      <point x="364.80542193072097" y="530.4660063526392" type="curve"/>
      <point x="352.0947147812974" y="524.0" type="line"/>
      <point x="352.0947147812974" y="680.0" type="line"/>
      <point x="360.0947147812974" y="672.0" type="line"/>
      <point x="110.48602102244612" y="672.0" type="line"/>
      <point x="118.46903386160035" y="679.4789376141971" type="line"/>
      <point x="93.01318973888466" y="289.47893761419704" type="line"/>
    </contour>
  </outline>
</glyph>
<glyph name="six" format="2">
  <advance width="404"/>
  <unicode hex="0036"/>
  <outline>
    <contour>
      <point x="401.6259377015544" y="501.0" type="line" smooth="yes"/>
      <point x="401.6259377015544" y="493.8397470886032"/>
      <point x="392.9405488836934" y="490.2855488277039"/>
      <point x="387.920942769399" y="495.3916996492626" type="curve" smooth="yes"/>
      <point x="349.6316354762515" y="534.3411656910422"/>
      <point x="310.43433682250924" y="557.0"/>
      <point x="274.8319984622144" y="557.0" type="curve" smooth="yes"/>
      <point x="223.4381026191308" y="557.0"/>
      <point x="187.04801820876875" y="515.2550939209788"/>
      <point x="181.70839266663017" y="390.6574747361576" type="curve"/>
      <point x="167.58915246566673" y="396.14442057001037" type="line"/>
      <point x="196.105914711618" y="430.10550850533104"/>
      <point x="233.7744089695036" y="448.0"/>
      <point x="271.29646455628165" y="448.0" type="curve" smooth="yes"/>
      <point x="351.4164701860629" y="448.0"/>
      <point x="432.73863607376245" y="373.88727512181435"/>
      <point x="432.73863607376245" y="219.0" type="curve" smooth="yes"/>
      <point x="432.73863607376245" y="81.09003535424976"/>
      <point x="360.09102464269614" y="-26.000000000000064"/>
      <point x="249.37615433949867" y="-26.0" type="curve" smooth="yes"/>
      <point x="138.0359368003748" y="-25.999999999999936"/>
      <point x="59.64971157455595" y="86.47201678017291"/>
      <point x="59.649711574555965" y="317.0" type="curve" smooth="yes"/>
      <point x="59.64971157455598" y="639.0757213418042"/>
      <point x="202.43737302038804" y="759.2213405716362"/>
      <point x="396.92174844830896" y="671.2895563322865" type="curve" smooth="yes"/>
      <point x="399.7855959389935" y="669.9947313927961"/>
      <point x="401.6259377015544" y="667.142959445145"/>
      <point x="401.6259377015544" y="664.0" type="curve" smooth="yes"/>
    </contour>
    <contour>
      <point x="250.08326112068522" y="115.0" type="curve" smooth="yes"/>
      <point x="287.0962581707277" y="115.0"/>
      <point x="311.3797256769669" y="158.04576707656523"/>
      <point x="311.3797256769669" y="214.0" type="curve" smooth="yes"/>
      <point x="311.3797256769669" y="271.87487113793236"/>
      <point x="287.1703767899339" y="313.0"/>
      <point x="250.08326112068522" y="313.0" type="curve" smooth="yes"/>
      <point x="213.03322329532688" y="313.0"/>
      <point x="189.49390334559013" y="273.0102291500274"/>
      <point x="189.49390334559013" y="217.0" type="curve" smooth="yes"/>
      <point x="189.49390334559013" y="158.27959847174535"/>
      <point x="213.03322329532688" y="115.0"/>
    </contour>
    <contour>
      <point x="385.6259377015544" y="501.0" type="line"/>
      <point x="385.6259377015544" y="664.0" type="line"/>
      <point x="390.3301269547998" y="656.7104436677135" type="line"/>
      <point x="204.32588234842754" y="740.8081253881275"/>
      <point x="75.64971157455598" y="625.0322063015157"/>
      <point x="75.64971157455597" y="317.0" type="curve" smooth="yes"/>
      <point x="75.64971157455595" y="99.69770151299115"/>
      <point x="144.4236672385128" y="-9.999999999999943"/>
      <point x="249.37615433949867" y="-10.0" type="curve" smooth="yes"/>
      <point x="352.185391183788" y="-10.000000000000057"/>
      <point x="416.73863607376245" y="90.93754389429094"/>
      <point x="416.73863607376245" y="219.0" type="curve" smooth="yes"/>
      <point x="416.73863607376245" y="362.1101531900037"/>
      <point x="345.3244069437005" y="432.0"/>
      <point x="271.29646455628165" y="432.0" type="curve" smooth="yes"/>
      <point x="238.10598636167813" y="432.0"/>
      <point x="205.0670684673082" y="415.896171048842"/>
      <point x="179.84230503940947" y="385.85557942998963" type="curve" smooth="yes"/>
      <point x="174.93003730184248" y="380.00547782453697"/>
      <point x="165.39599674982915" y="383.7105471726088"/>
      <point x="165.72306483844602" y="391.3425252638424" type="curve" smooth="yes"/>
      <point x="171.68762477379255" y="530.5226909073872"/>
      <point x="217.42310908450418" y="573.0"/>
      <point x="274.8319984622144" y="573.0" type="curve" smooth="yes"/>
      <point x="314.14262768345213" y="573.0"/>
      <point x="357.05346347124646" y="549.6146894940182"/>
      <point x="399.3309326337098" y="506.6083003507374" type="curve"/>
    </contour>
    <contour>
      <point x="250.08326112068522" y="99.0" type="curve" smooth="yes"/>
      <point x="205.20632277688193" y="99.0"/>
      <point x="173.49390334559013" y="145.87478681322062"/>
      <point x="173.49390334559013" y="217.0" type="curve" smooth="yes"/>
      <point x="173.49390334559013" y="284.8425110396973"/>
      <point x="205.20632277688193" y="329.0"/>
      <point x="250.08326112068522" y="329.0" type="curve" smooth="yes"/>
      <point x="294.915356161424" y="329.0"/>
      <point x="327.3797256769669" y="283.96100064685504"/>
      <point x="327.3797256769669" y="214.0" type="curve" smooth="yes"/>
      <point x="327.3797256769669" y="146.08962948863527"/>
      <point x="295.00508762206687" y="99.0"/>
    </contour>
  </outline>
</glyph>
<glyph name="seven" format="2">
  <advance width="355"/>
  <unicode hex="0037"/>
  <outline>
    <contour>
      <point x="198.41131264621043" y="351.0738882418971" type="curve" smooth="yes"/>
      <point x="198.41253940368188" y="351.07845328250926" type="line"/>
      <point x="253.56686833623257" y="556.0784532825093" type="line"/>
      <point x="261.2921535706059" y="546.0" type="line"/>
      <point x="131.02416623130696" y="546.0"/>
      <point x="95.5400538462238" y="534.983286464834"/>
      <point x="71.54331933635294" y="517.5302255180491" type="curve" smooth="yes"/>
      <point x="66.25558612687253" y="513.6844051653908"/>
      <point x="58.8377887443053" y="517.4616166616232"/>
      <point x="58.8377887443053" y="524.0" type="curve" smooth="yes"/>
      <point x="58.8377887443053" y="680.0" type="line" smooth="yes"/>
      <point x="58.8377887443053" y="684.4182779986463"/>
      <point x="62.419510745658954" y="688.0"/>
      <point x="66.8377887443053" y="688.0" type="curve" smooth="yes"/>
      <point x="397.76376233960957" y="688.0" type="line" smooth="yes"/>
      <point x="403.0607361654763" y="688.0"/>
      <point x="406.8952928565915" y="682.9450096993637"/>
      <point x="405.4677706119424" y="677.8440184277626" type="curve" smooth="yes"/>
      <point x="312.8376428982734" y="346.84709607164956" type="line" smooth="yes"/>
      <point x="244.39468437954469" y="101.90164580472032"/>
      <point x="239.5113412375814" y="50.30254357069144"/>
      <point x="251.38409934797318" y="1.9060634776287926" type="curve" smooth="yes"/>
      <point x="252.62066456335455" y="-3.1345010882068167"/>
      <point x="248.80451146613456" y="-8.0"/>
      <point x="243.61448404094222" y="-8.0" type="curve" smooth="yes"/>
      <point x="92.29363286702102" y="-8.0" type="line" smooth="yes"/>
      <point x="86.13205351190743" y="-7.999999999999999"/>
      <point x="82.28345046747916" y="-1.3271429754416388"/>
      <point x="85.36900548381224" y="4.006187165337533" type="curve" smooth="yes"/>
      <point x="110.71261780003698" y="47.81219636849741"/>
      <point x="132.94031416262985" y="107.15406426975694"/>
    </contour>
    <contour>
      <point x="213.86433662989992" y="346.9261117581029" type="line"/>
      <point x="147.82813734570635" y="100.9005664286044"/>
      <point x="124.78065997314344" y="40.17799240404179"/>
      <point x="99.21826025022979" y="-4.006187165337533" type="curve"/>
      <point x="92.29363286702102" y="8.0" type="line"/>
      <point x="243.61448404094222" y="8.0" type="line"/>
      <point x="235.84486873391126" y="-1.9060634776287926" type="line"/>
      <point x="223.6766356695564" y="47.69485012570318"/>
      <point x="227.28162038614212" y="100.1115452829152"/>
      <point x="297.4279051100703" y="351.15290392835044" type="curve" smooth="yes"/>
      <point x="390.05975406727674" y="682.1559815722374" type="line"/>
      <point x="397.76376233960957" y="672.0" type="line"/>
      <point x="66.8377887443053" y="672.0" type="line"/>
      <point x="74.8377887443053" y="680.0" type="line"/>
      <point x="74.8377887443053" y="524.0" type="line"/>
      <point x="62.13225815225766" y="530.4697744819509" type="line"/>
      <point x="87.6022425566324" y="548.9943445621154"/>
      <point x="123.02652394685727" y="562.0"/>
      <point x="261.2921535706059" y="562.0" type="curve" smooth="yes"/>
      <point x="266.55576196131295" y="562.0"/>
      <point x="270.38495932216773" y="557.0044062400224"/>
      <point x="269.0174388049792" y="551.9215467174907" type="curve" smooth="yes"/>
      <point x="213.86310987242848" y="346.92154671749074" type="line"/>
    </contour>
  </outline>
</glyph>
<glyph name="eight" format="2">
  <advance width="402"/>
  <unicode hex="0038"/>
  <outline>
    <contour>
      <point x="244.1335136523794" y="-26.0" type="curve" smooth="yes"/>
      <point x="136.816808863865" y="-26.000000000000032"/>
      <point x="60.06392513692903" y="63.21905845812391"/>
      <point x="60.06392513692904" y="189.0" type="curve"/>
      <point x="60.06392513692904" y="269.8391085838173"/>
      <point x="86.92118631029808" y="328.92124957722166"/>
      <point x="129.42617538917222" y="364.15880972914204" type="curve"/>
      <point x="129.0751494427264" y="352.149940982283" type="line"/>
      <point x="94.51024077727054" y="384.391367389158"/>
      <point x="73.49895397947346" y="435.397009146875"/>
      <point x="73.49895397947347" y="503.0" type="curve" smooth="yes"/>
      <point x="73.4989539794735" y="618.7918759871196"/>
      <point x="146.7660079350989" y="706.0"/>
      <point x="244.1335136523794" y="706.0" type="curve" smooth="yes"/>
      <point x="340.8117016871386" y="706.0"/>
      <point x="413.35385976291235" y="618.8497719251131"/>
      <point x="413.35385976291224" y="503.0" type="curve" smooth="yes"/>
      <point x="413.3538597629122" y="435.39794148080944"/>
      <point x="392.3762703876114" y="384.44983379053485"/>
      <point x="358.5472518637634" y="352.2088520352286" type="curve"/>
      <point x="358.1862681434621" y="364.1148864258234" type="line"/>
      <point x="399.9375369486428" y="328.8949362489914"/>
      <point x="426.7888886054567" y="269.7987092292027"/>
      <point x="426.7888886054567" y="189.0" type="curve" smooth="yes"/>
      <point x="426.7888886054567" y="63.15443241187501"/>
      <point x="350.03451041462716" y="-25.999999999999968"/>
    </contour>
    <contour>
      <point x="244.1335136523794" y="420.0" type="curve" smooth="yes"/>
      <point x="273.419782088857" y="420.0"/>
      <point x="292.7020561473032" y="450.7017484110648"/>
      <point x="292.7020561473032" y="493.0" type="curve" smooth="yes"/>
      <point x="292.7020561473032" y="535.2982515889353"/>
      <point x="273.419782088857" y="566.0"/>
      <point x="244.1335136523794" y="566.0" type="curve" smooth="yes"/>
      <point x="214.1496584276838" y="566.0"/>
      <point x="194.1507575950825" y="535.403574710996"/>
      <point x="194.1507575950825" y="493.0" type="curve" smooth="yes"/>
      <point x="194.1507575950825" y="450.63823753339153"/>
      <point x="214.80327184720912" y="420.0"/>
    </contour>
    <contour>
      <point x="244.1335136523794" y="114.0" type="curve" smooth="yes"/>
      <point x="278.4939437045192" y="114.0"/>
      <point x="304.7228714274745" y="151.8075333528688"/>
      <point x="304.7228714274745" y="204.0" type="curve" smooth="yes"/>
      <point x="304.7228714274745" y="257.2245372772473"/>
      <point x="278.57950156169994" y="292.0"/>
      <point x="244.1335136523794" y="292.0" type="curve" smooth="yes"/>
      <point x="208.98228147776257" y="292.0"/>
      <point x="182.1299423149112" y="257.32672013186624"/>
      <point x="182.1299423149112" y="204.0" type="curve" smooth="yes"/>
      <point x="182.1299423149112" y="151.7037347373"/>
      <point x="209.06717901635852" y="114.0"/>
    </contour>
    <contour>
      <point x="244.1335136523794" y="-10.0" type="curve" smooth="yes"/>
      <point x="341.88299706464016" y="-9.99999999999997"/>
      <point x="410.7888886054567" y="72.84113844481568"/>
      <point x="410.7888886054567" y="189.0" type="curve" smooth="yes"/>
      <point x="410.7888886054567" y="264.1794582291187"/>
      <point x="386.7172704465639" y="319.11458049994536"/>
      <point x="347.8696477667533" y="351.8851135741766" type="curve" smooth="yes"/>
      <point x="344.2299351369289" y="354.9554513423188"/>
      <point x="344.0616475492123" y="360.5059448803426"/>
      <point x="347.508664046452" y="363.7911479647714" type="curve" smooth="yes"/>
      <point x="378.74981404481235" y="393.5657435949064"/>
      <point x="397.3538597629122" y="440.5693962593943"/>
      <point x="397.35385976291224" y="503.0" type="curve" smooth="yes"/>
      <point x="397.35385976291235" y="609.1880139768431"/>
      <point x="332.74883513032745" y="690.0"/>
      <point x="244.1335136523794" y="690.0" type="curve" smooth="yes"/>
      <point x="154.84173933872182" y="690.0"/>
      <point x="89.4989539794735" y="609.1880139768431"/>
      <point x="89.49895397947347" y="503.0" type="curve" smooth="yes"/>
      <point x="89.49895397947346" y="440.6006115612646"/>
      <point x="108.08443041381204" y="393.6097673500369"/>
      <point x="139.98877569420262" y="363.850059017717" type="curve" smooth="yes"/>
      <point x="143.51607404613154" y="360.55986863042216"/>
      <point x="143.35120961912818" y="354.91972924769135"/>
      <point x="139.6377497477568" y="351.84119027085796" type="curve" smooth="yes"/>
      <point x="100.10858982794964" y="319.0706571966267"/>
      <point x="76.06392513692904" y="264.1794582291187"/>
      <point x="76.06392513692904" y="189.0" type="curve"/>
      <point x="76.06392513692903" y="72.78302995979558"/>
      <point x="144.976820179323" y="-10.00000000000003"/>
    </contour>
    <contour>
      <point x="244.1335136523794" y="404.0" type="curve" smooth="yes"/>
      <point x="207.06220126079813" y="404.0"/>
      <point x="178.1507575950825" y="439.4577844161933"/>
      <point x="178.1507575950825" y="493.0" type="curve" smooth="yes"/>
      <point x="178.1507575950825" y="546.4887134981299"/>
      <point x="206.31128162090715" y="582.0"/>
      <point x="244.1335136523794" y="582.0" type="curve" smooth="yes"/>
      <point x="281.24190662418033" y="582.0"/>
      <point x="308.7020561473032" y="546.595771184944"/>
      <point x="308.7020561473032" y="493.0" type="curve" smooth="yes"/>
      <point x="308.7020561473032" y="439.4042288150556"/>
      <point x="281.24190662418033" y="404.0"/>
    </contour>
    <contour>
      <point x="244.1335136523794" y="98.0" type="curve" smooth="yes"/>
      <point x="201.47130052140466" y="98.0"/>
      <point x="166.1299423149112" y="140.37560247601434"/>
      <point x="166.1299423149112" y="204.0" type="curve" smooth="yes"/>
      <point x="166.1299423149112" y="268.62438484145997"/>
      <point x="201.53522990106921" y="308.0"/>
      <point x="244.1335136523794" y="308.0" type="curve" smooth="yes"/>
      <point x="285.9991173791094" y="308.0"/>
      <point x="320.7228714274745" y="268.68902538239763"/>
      <point x="320.7228714274745" y="204.0" type="curve" smooth="yes"/>
      <point x="320.7228714274745" y="140.2792393605906"/>
      <point x="286.0834899511126" y="98.0"/>
    </contour>
  </outline>
</glyph>
<glyph name="nine" format="2">
  <advance width="404"/>
  <unicode hex="0039"/>
  <outline>
    <contour>
      <point x="87.22687604083131" y="177.0" type="line" smooth="yes"/>
      <point x="87.22687604083131" y="184.16025291139675"/>
      <point x="95.91226485869237" y="187.71445117229607"/>
      <point x="100.93187097298673" y="182.60830035073738" type="curve" smooth="yes"/>
      <point x="139.22117826613405" y="143.65883430895767"/>
      <point x="178.4184769198763" y="121.0"/>
      <point x="214.0208152801713" y="121.0" type="curve" smooth="yes"/>
      <point x="265.4147111232549" y="121.0"/>
      <point x="301.8047955336169" y="162.74490607902115"/>
      <point x="307.14442107575553" y="287.3425252638424" type="curve"/>
      <point x="321.26366127671895" y="281.8555794299897" type="line"/>
      <point x="292.7468990307676" y="247.89449149466893"/>
      <point x="255.07840477288204" y="229.99999999999997"/>
      <point x="217.55634918610406" y="230.0" type="curve" smooth="yes"/>
      <point x="137.43634355632278" y="230.00000000000006"/>
      <point x="56.11417766862321" y="304.11272487818565"/>
      <point x="56.11417766862323" y="459.0" type="curve" smooth="yes"/>
      <point x="56.11417766862324" y="596.9099646457502"/>
      <point x="128.76178909968957" y="704.0"/>
      <point x="239.47665940288704" y="704.0" type="curve" smooth="yes"/>
      <point x="350.816876942011" y="704.0"/>
      <point x="429.20310216782997" y="591.5279832198271"/>
      <point x="429.20310216782974" y="361.0" type="curve" smooth="yes"/>
      <point x="429.2031021678294" y="38.92427865819574"/>
      <point x="286.4154407219977" y="-81.22134057163616"/>
      <point x="91.93106529407673" y="6.710443667713583" type="curve" smooth="yes"/>
      <point x="89.06721780339234" y="8.005268607203874"/>
      <point x="87.22687604083131" y="10.857040554855132"/>
      <point x="87.22687604083131" y="14.000000000000002" type="curve" smooth="yes"/>
    </contour>
    <contour>
      <point x="238.76955262170048" y="563.0" type="curve" smooth="yes"/>
      <point x="201.756555571658" y="563.0"/>
      <point x="177.47308806541886" y="519.9542329234348"/>
      <point x="177.4730880654188" y="464.0" type="curve" smooth="yes"/>
      <point x="177.47308806541875" y="406.12512886206764"/>
      <point x="201.68243695245178" y="365.0"/>
      <point x="238.76955262170048" y="365.0" type="curve" smooth="yes"/>
      <point x="275.8195904470589" y="365.0"/>
      <point x="299.3589103967956" y="404.9897708499726"/>
      <point x="299.3589103967956" y="461.0" type="curve" smooth="yes"/>
      <point x="299.3589103967956" y="519.7204015282546"/>
      <point x="275.8195904470589" y="563.0"/>
    </contour>
    <contour>
      <point x="103.22687604083131" y="177.0" type="line"/>
      <point x="103.22687604083131" y="13.999999999999998" type="line"/>
      <point x="98.5226867875859" y="21.289556332286416" type="line"/>
      <point x="284.5269313939582" y="-62.80812538812739"/>
      <point x="413.2031021678294" y="52.9677936984843"/>
      <point x="413.20310216782974" y="361.0" type="curve" smooth="yes"/>
      <point x="413.20310216782997" y="578.3022984870089"/>
      <point x="344.42914650387297" y="688.0"/>
      <point x="239.47665940288704" y="688.0" type="curve" smooth="yes"/>
      <point x="136.66742255859776" y="688.0"/>
      <point x="72.11417766862324" y="587.0624561057091"/>
      <point x="72.11417766862323" y="459.0" type="curve" smooth="yes"/>
      <point x="72.11417766862321" y="315.8898468099963"/>
      <point x="143.5284067986852" y="246.00000000000006"/>
      <point x="217.55634918610406" y="246.0" type="curve" smooth="yes"/>
      <point x="250.74682738070757" y="245.99999999999997"/>
      <point x="283.78574527507755" y="262.10382895115794"/>
      <point x="309.01050870297627" y="292.1444205700103" type="curve" smooth="yes"/>
      <point x="313.9227764405433" y="297.99452217546303"/>
      <point x="323.4568169925566" y="294.2894528273913"/>
      <point x="323.1297489039397" y="286.6574747361576" type="curve" smooth="yes"/>
      <point x="317.16518896859316" y="147.47730909261276"/>
      <point x="271.4297046578815" y="105.0"/>
      <point x="214.0208152801713" y="105.0" type="curve" smooth="yes"/>
      <point x="174.71018605893346" y="105.0"/>
      <point x="131.7993502711392" y="128.3853105059819"/>
      <point x="89.5218811086759" y="171.39169964926262" type="curve"/>
    </contour>
    <contour>
      <point x="238.76955262170048" y="579.0" type="curve" smooth="yes"/>
      <point x="283.64649096550374" y="579.0"/>
      <point x="315.3589103967956" y="532.1252131867794"/>
      <point x="315.3589103967956" y="461.0" type="curve" smooth="yes"/>
      <point x="315.3589103967956" y="393.1574889603027"/>
      <point x="283.64649096550374" y="349.0"/>
      <point x="238.76955262170048" y="349.0" type="curve" smooth="yes"/>
      <point x="193.93745758096165" y="349.0"/>
      <point x="161.47308806541875" y="394.03899935314496"/>
      <point x="161.4730880654188" y="464.0" type="curve" smooth="yes"/>
      <point x="161.47308806541886" y="531.9103705113648"/>
      <point x="193.84772612031875" y="579.0"/>
    </contour>
  </outline>
</glyph>
<glyph name="less" format="2">
  <advance width="323"/>
  <unicode hex="003C"/>
  <outline>
    <contour>
      <point x="44.16321851434487" y="301.9726749108938" type="line" smooth="yes"/>
      <point x="40.51036073779472" y="305.16071180562733"/>
      <point x="40.51036073779471" y="310.83928819437267"/>
      <point x="44.16321851434486" y="314.0273250891062" type="curve" smooth="yes"/>
      <point x="324.8846106454042" y="559.0273250891062" type="line" smooth="yes"/>
      <point x="330.0594157853003" y="563.5436437410265"/>
      <point x="338.1449673129916" y="559.8684599730636"/>
      <point x="338.1449673129916" y="553.0" type="curve" smooth="yes"/>
      <point x="338.1449673129916" y="398.0" type="line" smooth="yes"/>
      <point x="338.1449673129916" y="395.522867898859"/>
      <point x="336.997445622943" y="393.18546736866926"/>
      <point x="335.0375737867121" y="391.67051329938135" type="curve" smooth="yes"/>
      <point x="221.1933820156779" y="303.67051329938135" type="line"/>
      <point x="221.22796370079115" y="316.30260397355323" type="line"/>
      <point x="335.07215547182534" y="227.3026039735532" type="line" smooth="yes"/>
      <point x="337.0115841225868" y="225.7864163909234"/>
      <point x="338.1449673129916" y="223.46174902805205"/>
      <point x="338.1449673129916" y="221.0" type="curve" smooth="yes"/>
      <point x="338.1449673129916" y="63.0" type="line" smooth="yes"/>
      <point x="338.1449673129916" y="56.131540026935944"/>
      <point x="330.0594157853006" y="52.45635625897324"/>
      <point x="324.8846106454042" y="56.97267491089379" type="curve" smooth="yes"/>
    </contour>
    <contour>
      <point x="54.683931849519574" y="314.0273250891062" type="line"/>
      <point x="335.40532398057894" y="69.02732508910621" type="line"/>
      <point x="322.1449673129916" y="63.0" type="line"/>
      <point x="322.1449673129916" y="221.0" type="line"/>
      <point x="325.2177791541578" y="214.6973960264468" type="line"/>
      <point x="211.3735873831237" y="303.69739602644677" type="line" smooth="yes"/>
      <point x="207.26225854243793" y="306.9115105203768"/>
      <point x="207.27930402639302" y="313.13793060952685"/>
      <point x="211.40816906823693" y="316.32948670061865" type="curve" smooth="yes"/>
      <point x="325.2523608392711" y="404.32948670061865" type="line"/>
      <point x="322.1449673129916" y="398.0" type="line"/>
      <point x="322.1449673129916" y="553.0" type="line"/>
      <point x="335.40532398057894" y="546.9726749108938" type="line"/>
      <point x="54.68393184951958" y="301.9726749108938" type="line"/>
    </contour>
  </outline>
</glyph>
<glyph name="equal" format="2">
  <advance width="346"/>
  <unicode hex="003D"/>
  <outline>
    <contour>
      <point x="78.4695167279506" y="125.0" type="line"/>
      <point x="70.4695167279506" y="133.0" type="line"/>
      <point x="360.38329701443513" y="133.0" type="line"/>
      <point x="352.38329701443513" y="125.0" type="line"/>
      <point x="352.38329701443513" y="252.0" type="line"/>
      <point x="360.38329701443513" y="244.0" type="line"/>
      <point x="70.4695167279506" y="244.0" type="line"/>
      <point x="78.4695167279506" y="252.0" type="line"/>
    </contour>
    <contour>
      <point x="78.4695167279506" y="365.0" type="line"/>
      <point x="70.4695167279506" y="373.0" type="line"/>
      <point x="360.38329701443513" y="373.0" type="line"/>
      <point x="352.38329701443513" y="365.0" type="line"/>
      <point x="352.38329701443513" y="492.0" type="line"/>
      <point x="360.38329701443513" y="484.0" type="line"/>
      <point x="70.4695167279506" y="484.0" type="line"/>
      <point x="78.4695167279506" y="492.0" type="line"/>
    </contour>
    <contour>
      <point x="62.469516727950605" y="125.0" type="curve" smooth="yes"/>
      <point x="62.469516727950605" y="252.0" type="line" smooth="yes"/>
      <point x="62.469516727950605" y="256.4182779986464"/>
      <point x="66.05123872930426" y="260.0"/>
      <point x="70.4695167279506" y="260.0" type="curve" smooth="yes"/>
      <point x="360.38329701443513" y="260.0" type="line" smooth="yes"/>
      <point x="364.8015750130815" y="260.0"/>
      <point x="368.38329701443513" y="256.4182779986464"/>
      <point x="368.38329701443513" y="252.0" type="curve" smooth="yes"/>
      <point x="368.38329701443513" y="125.0" type="line" smooth="yes"/>
      <point x="368.38329701443513" y="120.58172200135365"/>
      <point x="364.8015750130815" y="117.0"/>
      <point x="360.38329701443513" y="117.0" type="curve" smooth="yes"/>
      <point x="70.4695167279506" y="117.0" type="line" smooth="yes"/>
      <point x="66.05123872930426" y="117.0"/>
      <point x="62.469516727950605" y="120.58172200135365"/>
    </contour>
    <contour>
      <point x="62.469516727950605" y="365.0" type="curve" smooth="yes"/>
      <point x="62.469516727950605" y="492.0" type="line" smooth="yes"/>
      <point x="62.469516727950605" y="496.4182779986464"/>
      <point x="66.05123872930426" y="500.0"/>
      <point x="70.4695167279506" y="500.0" type="curve" smooth="yes"/>
      <point x="360.38329701443513" y="500.0" type="line" smooth="yes"/>
      <point x="364.8015750130815" y="500.0"/>
      <point x="368.38329701443513" y="496.4182779986464"/>
      <point x="368.38329701443513" y="492.0" type="curve" smooth="yes"/>
      <point x="368.38329701443513" y="365.0" type="line" smooth="yes"/>
      <point x="368.38329701443513" y="360.5817220013536"/>
      <point x="364.8015750130815" y="357.0"/>
      <point x="360.38329701443513" y="357.0" type="curve" smooth="yes"/>
      <point x="70.4695167279506" y="357.0" type="line" smooth="yes"/>
      <point x="66.05123872930426" y="357.0"/>
      <point x="62.469516727950605" y="360.5817220013536"/>
    </contour>
  </outline>
</glyph>
<glyph name="greater" format="2">
  <advance width="317"/>
  <unicode hex="003E"/>
  <outline>
    <contour>
      <point x="357.15406132210813" y="315.0273250891062" type="line" smooth="yes"/>
      <point x="360.80691909865834" y="311.8392881943726"/>
      <point x="360.80691909865834" y="306.1607118056274"/>
      <point x="357.15406132210813" y="302.9726749108938" type="curve" smooth="yes"/>
      <point x="76.43266919104875" y="57.97267491089379" type="line" smooth="yes"/>
      <point x="71.25786405115242" y="53.456356258973265"/>
      <point x="63.172312523461386" y="57.13154002693599"/>
      <point x="63.172312523461386" y="64.0" type="curve" smooth="yes"/>
      <point x="63.172312523461386" y="219.0" type="line" smooth="yes"/>
      <point x="63.172312523461386" y="221.47713210114097"/>
      <point x="64.31983421350998" y="223.81453263133074"/>
      <point x="66.27970604974088" y="225.32948670061865" type="curve" smooth="yes"/>
      <point x="180.12389782077503" y="313.32948670061865" type="line"/>
      <point x="180.0893161356618" y="300.69739602644677" type="line"/>
      <point x="66.24512436462766" y="389.69739602644677" type="line" smooth="yes"/>
      <point x="64.30569571386621" y="391.2135836090766"/>
      <point x="63.172312523461386" y="393.53825097194795"/>
      <point x="63.172312523461386" y="396.0" type="curve" smooth="yes"/>
      <point x="63.172312523461386" y="554.0" type="line" smooth="yes"/>
      <point x="63.172312523461386" y="560.868459973064"/>
      <point x="71.25786405115244" y="564.5436437410267"/>
      <point x="76.43266919104875" y="560.0273250891062" type="curve" smooth="yes"/>
    </contour>
    <contour>
      <point x="346.6333479869334" y="302.9726749108938" type="line"/>
      <point x="65.91195585587403" y="547.9726749108938" type="line"/>
      <point x="79.17231252346139" y="554.0" type="line"/>
      <point x="79.17231252346139" y="396.0" type="line"/>
      <point x="76.09950068229512" y="402.30260397355323" type="line"/>
      <point x="189.94369245332925" y="313.30260397355323" type="line" smooth="yes"/>
      <point x="194.055021294015" y="310.0884894796232"/>
      <point x="194.03797581005992" y="303.86206939047315"/>
      <point x="189.909110768216" y="300.67051329938135" type="curve" smooth="yes"/>
      <point x="76.06491899718189" y="212.67051329938135" type="line"/>
      <point x="79.17231252346139" y="219.0" type="line"/>
      <point x="79.17231252346139" y="64.0" type="line"/>
      <point x="65.91195585587403" y="70.02732508910621" type="line"/>
      <point x="346.6333479869334" y="315.0273250891062" type="line"/>
    </contour>
  </outline>
</glyph>
<glyph name="question" format="2">
  <advance width="369"/>
  <unicode hex="003F"/>
  <outline>
    <contour>
      <point x="395.08609280994585" y="510.0" type="curve" smooth="yes"/>
      <point x="395.08609280994585" y="419.07128829176503"/>
      <point x="350.8998618694402" y="377.367762681946"/>
      <point x="310.9944193131089" y="342.9425221103692" type="curve" smooth="yes"/>
      <point x="281.2694489608665" y="317.2996726691073"/>
      <point x="252.25052301026324" y="294.97430423526487"/>
      <point x="252.25052301026324" y="257.0" type="curve" smooth="yes"/>
      <point x="252.25052301026324" y="252.58172200135365"/>
      <point x="248.66880100890958" y="249.0"/>
      <point x="244.25052301026324" y="249.0" type="curve" smooth="yes"/>
      <point x="168.59009742330267" y="249.0" type="line" smooth="yes"/>
      <point x="164.40904591397822" y="249.0"/>
      <point x="160.93315069780687" y="252.2195859419352"/>
      <point x="160.6135099927014" y="256.38840130643194" type="curve" smooth="yes"/>
      <point x="154.03117375036481" y="342.2364926885463"/>
      <point x="190.40633041840866" y="384.90981710805227"/>
      <point x="222.86208249736669" y="419.4760123042184" type="curve" smooth="yes"/>
      <point x="246.85327889759816" y="445.0272420444038"/>
      <point x="270.8987552884041" y="466.7305059340293"/>
      <point x="270.8987552884041" y="501.0" type="curve" smooth="yes"/>
      <point x="270.8987552884041" y="535.7982948198222"/>
      <point x="244.32469431372772" y="556.0"/>
      <point x="203.94543648263004" y="556.0" type="curve" smooth="yes"/>
      <point x="160.0419233414129" y="556.0"/>
      <point x="116.8568624003557" y="528.6835962407987"/>
      <point x="79.70773589624889" y="488.56458645240406" type="curve" smooth="yes"/>
      <point x="74.76396605490471" y="483.22558741471386"/>
      <point x="65.8377887443053" y="486.7236155290803"/>
      <point x="65.8377887443053" y="494.0" type="curve" smooth="yes"/>
      <point x="65.8377887443053" y="665.0" type="line" smooth="yes"/>
      <point x="65.8377887443053" y="668.2217343637095"/>
      <point x="67.77035680278125" y="671.1290979715844"/>
      <point x="70.74090296405653" y="672.3762658889233" type="curve" smooth="yes"/>
      <point x="117.08172030321606" y="691.8322101870074"/>
      <point x="164.08735960231408" y="700.0"/>
      <point x="205.35965004500315" y="700.0" type="curve" smooth="yes"/>
      <point x="320.6465442728651" y="700.0"/>
      <point x="395.08609280994585" y="633.578308511649"/>
    </contour>
    <contour>
      <point x="149.4982143312659" y="-8.0" type="line" smooth="yes"/>
      <point x="145.07993633261955" y="-7.999999999999999"/>
      <point x="141.4982143312659" y="-4.418277998646345"/>
      <point x="141.4982143312659" y="1.959434878635765e-15" type="curve" smooth="yes"/>
      <point x="141.4982143312659" y="161.0" type="line" smooth="yes"/>
      <point x="141.4982143312659" y="165.41827799864635"/>
      <point x="145.07993633261955" y="169.0"/>
      <point x="149.4982143312659" y="169.0" type="curve" smooth="yes"/>
      <point x="263.34240610230006" y="169.0" type="line" smooth="yes"/>
      <point x="267.76068410094643" y="169.0"/>
      <point x="271.34240610230006" y="165.41827799864635"/>
      <point x="271.34240610230006" y="161.0" type="curve" smooth="yes"/>
      <point x="271.34240610230006" y="-9.797174393178826e-16" type="line" smooth="yes"/>
      <point x="271.34240610230006" y="-4.418277998646348"/>
      <point x="267.76068410094643" y="-8.0"/>
      <point x="263.34240610230006" y="-8.0" type="curve" smooth="yes"/>
    </contour>
    <contour>
      <point x="379.08609280994585" y="510.0" type="curve" smooth="yes"/>
      <point x="379.08609280994585" y="624.410410194239"/>
      <point x="312.09376072743083" y="684.0"/>
      <point x="205.35965004500315" y="684.0" type="curve" smooth="yes"/>
      <point x="166.02487920210143" y="684.0"/>
      <point x="121.10003126044367" y="676.1663229106999"/>
      <point x="76.93467452455407" y="657.6237341110767" type="curve"/>
      <point x="81.8377887443053" y="665.0" type="line"/>
      <point x="81.8377887443053" y="494.0" type="line"/>
      <point x="67.96784159236171" y="499.43541354759594" type="line"/>
      <point x="108.57821557772596" y="543.2923799085435"/>
      <point x="155.9513581362905" y="572.0"/>
      <point x="203.94543648263004" y="572.0" type="curve" smooth="yes"/>
      <point x="254.04704896304517" y="572.0"/>
      <point x="286.8987552884041" y="544.1768877311879"/>
      <point x="286.8987552884041" y="501.0" type="curve" smooth="yes"/>
      <point x="286.8987552884041" y="461.35667383831424"/>
      <point x="262.2795439730006" y="438.0819301758305"/>
      <point x="234.5262651509518" y="408.5239876957816" type="curve" smooth="yes"/>
      <point x="204.22180394289575" y="376.24897157894856"/>
      <point x="170.42065092965555" y="337.7693515857468"/>
      <point x="176.56668485390392" y="257.61159869356806" type="curve"/>
      <point x="168.59009742330267" y="265.0" type="line"/>
      <point x="244.25052301026324" y="265.0" type="line"/>
      <point x="236.25052301026324" y="257.0" type="line"/>
      <point x="236.25052301026324" y="300.95105569771425"/>
      <point x="266.13984220432974" y="325.3787167710956"/>
      <point x="300.54320663387693" y="355.0574778896308" type="curve" smooth="yes"/>
      <point x="337.87815975108344" y="387.26523353534424"/>
      <point x="379.08609280994585" y="424.928416497505"/>
    </contour>
    <contour>
      <point x="149.4982143312659" y="8.0" type="line"/>
      <point x="263.34240610230006" y="8.0" type="line"/>
      <point x="255.34240610230006" y="9.797174393178826e-16" type="line"/>
      <point x="255.34240610230006" y="161.0" type="line"/>
      <point x="263.34240610230006" y="153.0" type="line"/>
      <point x="149.4982143312659" y="153.0" type="line"/>
      <point x="157.4982143312659" y="161.0" type="line"/>
      <point x="157.4982143312659" y="-1.959434878635765e-15" type="line"/>
    </contour>
  </outline>
</glyph>
<glyph name="at" format="2">
  <advance width="634"/>
  <unicode hex="0040"/>
  <outline>
    <contour>
      <point x="365.7903679018718" y="227.0" type="curve" smooth="yes"/>
      <point x="391.40567810494" y="227.0"/>
      <point x="406.58073580374355" y="267.386746078382"/>
      <point x="406.58073580374355" y="320.0" type="curve" smooth="yes"/>
      <point x="406.58073580374355" y="372.69225278819727"/>
      <point x="391.4441395252531" y="412.0"/>
      <point x="365.7903679018718" y="412.0" type="curve" smooth="yes"/>
      <point x="340.8220931334483" y="412.0"/>
      <point x="326.4142135623731" y="373.396324731875"/>
      <point x="326.4142135623731" y="320.0" type="curve" smooth="yes"/>
      <point x="326.4142135623731" y="266.7103878497965"/>
      <point x="340.8719922430555" y="227.0"/>
    </contour>
    <contour>
      <point x="424.9411323673269" y="171.76619166618224" type="curve"/>
      <point x="439.33803350953633" y="171.27456514111984" type="line"/>
      <point x="415.0091044064776" y="125.04109750646217"/>
      <point x="379.6031723052064" y="102.00000000000001"/>
      <point x="343.8700576850888" y="102.0" type="curve" smooth="yes"/>
      <point x="273.3245615767732" y="101.99999999999997"/>
      <point x="211.41926419625648" y="179.27687109119728"/>
      <point x="211.41926419625645" y="320.0" type="curve" smooth="yes"/>
      <point x="211.41926419625642" y="462.9663332963818"/>
      <point x="277.04307345755547" y="537.0"/>
      <point x="342.4558441227157" y="537.0" type="curve" smooth="yes"/>
      <point x="370.04643376157026" y="537.0"/>
      <point x="398.63642016355766" y="523.1345233143377"/>
      <point x="420.86217292819055" y="494.95414449240417" type="curve"/>
      <point x="406.58073580374355" y="490.0" type="line"/>
      <point x="406.58073580374355" y="519.0" type="line" smooth="yes"/>
      <point x="406.58073580374355" y="523.4182779986463"/>
      <point x="410.1624578050972" y="527.0"/>
      <point x="414.58073580374355" y="527.0" type="curve" smooth="yes"/>
      <point x="510.04015126392756" y="527.0" type="line" smooth="yes"/>
      <point x="514.4584292625739" y="527.0"/>
      <point x="518.0401512639276" y="523.4182779986463"/>
      <point x="518.0401512639276" y="519.0" type="curve" smooth="yes"/>
      <point x="518.0401512639276" y="255.0" type="line" smooth="yes"/>
      <point x="518.0401512639276" y="240.2269513662804"/>
      <point x="520.9568077638498" y="226.0"/>
      <point x="529.1320343559643" y="226.0" type="curve" smooth="yes"/>
      <point x="551.142986911537" y="226.0"/>
      <point x="574.8721497261419" y="283.45018718095974"/>
      <point x="574.8721497261419" y="363.0" type="curve" smooth="yes"/>
      <point x="574.8721497261419" y="520.9681394365973"/>
      <point x="495.5698863401965" y="629.0"/>
      <point x="374.27564927611036" y="629.0" type="curve" smooth="yes"/>
      <point x="248.49286618081595" y="629.0"/>
      <point x="160.95122676472099" y="501.77188646074603"/>
      <point x="160.95122676472096" y="320.0" type="curve" smooth="yes"/>
      <point x="160.9512267647209" y="75.89536211074909"/>
      <point x="322.43298912454475" y="-45.9853261387323"/>
      <point x="499.16712261473606" y="74.60820014918447" type="curve" smooth="yes"/>
      <point x="504.4773658327309" y="78.23161427105265"/>
      <point x="511.6761902332486" y="74.42867116384203"/>
      <point x="511.6761902332486" y="68.0" type="curve" smooth="yes"/>
      <point x="511.6761902332486" y="-57.0" type="line" smooth="yes"/>
      <point x="511.6761902332486" y="-60.096964606601816"/>
      <point x="509.88871158287714" y="-62.91572212455538"/>
      <point x="507.08740169493836" y="-64.23627226986633" type="curve" smooth="yes"/>
      <point x="273.1895850671029" y="-174.4967604313797"/>
      <point x="67.87658761538734" y="-5.6140209170205795"/>
      <point x="67.87658761538728" y="317.0" type="curve" smooth="yes"/>
      <point x="67.87658761538724" y="568.2744641460753"/>
      <point x="200.16362767269334" y="745.0"/>
      <point x="376.39696961967" y="745.0" type="curve" smooth="yes"/>
      <point x="546.4696219607259" y="745.0"/>
      <point x="667.239682094289" y="593.0963156676528"/>
      <point x="667.239682094289" y="371.0" type="curve" smooth="yes"/>
      <point x="667.239682094289" y="203.21744581580242"/>
      <point x="589.5652919928547" y="110.00000000000003"/>
      <point x="511.45436482630055" y="110.0" type="curve" smooth="yes"/>
      <point x="467.74742201465" y="109.99999999999999"/>
      <point x="440.27690177492366" y="137.06530672914283"/>
    </contour>
    <contour>
      <point x="365.7903679018718" y="211.0" type="curve" smooth="yes"/>
      <point x="333.02716542543067" y="211.0"/>
      <point x="310.4142135623731" y="249.9337012703551"/>
      <point x="310.4142135623731" y="320.0" type="curve" smooth="yes"/>
      <point x="310.4142135623731" y="389.99531960502827"/>
      <point x="333.06035546791304" y="428.0"/>
      <point x="365.7903679018718" y="428.0" type="curve" smooth="yes"/>
      <point x="399.2684311144735" y="428.0"/>
      <point x="422.58073580374355" y="388.7631665064752"/>
      <point x="422.58073580374355" y="320.0" type="curve" smooth="yes"/>
      <point x="422.58073580374355" y="251.16805313622672"/>
      <point x="399.3019175472019" y="211.0"/>
    </contour>
    <contour>
      <point x="439.57567829948766" y="178.23380833381776" type="curve" smooth="yes"/>
      <point x="452.5119398891664" y="148.96238979537"/>
      <point x="474.58601929571597" y="125.99999999999999"/>
      <point x="511.45436482630055" y="126.0" type="curve" smooth="yes"/>
      <point x="583.1583654115103" y="126.00000000000003"/>
      <point x="651.239682094289" y="216.97954729484945"/>
      <point x="651.239682094289" y="371.0" type="curve" smooth="yes"/>
      <point x="651.239682094289" y="582.987817426694"/>
      <point x="538.7289302619167" y="729.0"/>
      <point x="376.39696961967" y="729.0" type="curve" smooth="yes"/>
      <point x="207.51283585176324" y="729.0"/>
      <point x="83.87658761538724" y="557.7959228740763"/>
      <point x="83.87658761538728" y="317.0" type="curve" smooth="yes"/>
      <point x="83.87658761538734" y="7.530177169039461"/>
      <point x="275.8968137841398" y="-155.53189502679106"/>
      <point x="500.2649787715588" y="-49.763727730133674" type="curve"/>
      <point x="495.6761902332486" y="-57.0" type="line"/>
      <point x="495.6761902332486" y="68.0" type="line"/>
      <point x="508.1852578517611" y="61.39179985081553" type="line"/>
      <point x="321.4430543249237" y="-66.03067584953936"/>
      <point x="144.9512267647209" y="62.072246767830045"/>
      <point x="144.95122676472096" y="320.0" type="curve" smooth="yes"/>
      <point x="144.95122676472099" y="512.2573948180996"/>
      <point x="241.23708835379918" y="645.0"/>
      <point x="374.27564927611036" y="645.0" type="curve" smooth="yes"/>
      <point x="503.2760827081171" y="645.0"/>
      <point x="590.8721497261419" y="531.0043417479262"/>
      <point x="590.8721497261419" y="363.0" type="curve" smooth="yes"/>
      <point x="590.8721497261419" y="259.7069440014786"/>
      <point x="557.712598839196" y="210.0"/>
      <point x="529.1320343559643" y="210.0" type="curve" smooth="yes"/>
      <point x="512.5809749820238" y="210.0"/>
      <point x="502.04015126392756" y="225.0913971844341"/>
      <point x="502.04015126392756" y="255.0" type="curve" smooth="yes"/>
      <point x="502.04015126392756" y="519.0" type="line"/>
      <point x="510.04015126392756" y="511.0" type="line"/>
      <point x="414.58073580374355" y="511.0" type="line"/>
      <point x="422.58073580374355" y="519.0" type="line"/>
      <point x="422.58073580374355" y="490.0" type="line" smooth="yes"/>
      <point x="422.58073580374355" y="482.4099731913715"/>
      <point x="412.9995598681924" y="479.08632098618745"/>
      <point x="408.29929867929656" y="485.04585550759583" type="curve" smooth="yes"/>
      <point x="389.5229477173882" y="508.8526839468167"/>
      <point x="365.764417730602" y="521.0"/>
      <point x="342.4558441227157" y="521.0" type="curve" smooth="yes"/>
      <point x="283.4844901301577" y="521.0"/>
      <point x="227.41926419625642" y="448.88795512111494"/>
      <point x="227.41926419625645" y="320.0" type="curve" smooth="yes"/>
      <point x="227.41926419625648" y="192.88211079075856"/>
      <point x="280.1449641056289" y="117.99999999999997"/>
      <point x="343.8700576850888" y="118.0" type="curve" smooth="yes"/>
      <point x="374.5596820851155" y="118.00000000000001"/>
      <point x="404.28371373598327" y="139.0175120678562"/>
      <point x="425.1787771572782" y="178.72543485888016" type="curve" smooth="yes"/>
      <point x="428.29482062752675" y="184.64700642989555"/>
      <point x="436.8708430992133" y="184.3541517325572"/>
    </contour>
  </outline>
</glyph>
<glyph name="A" format="2">
  <advance width="474"/>
  <unicode hex="0041"/>
  <outline>
    <contour>
      <point x="137.34475662402082" y="351.0557345114403" type="curve" smooth="yes"/>
      <point x="198.1780591704589" y="579.8422194294994"/>
      <point x="215.57690556442472" y="640.4789331935544"/>
      <point x="216.9841800372062" y="680.282666101335" type="curve" smooth="yes"/>
      <point x="217.1364051588763" y="684.5882427333303"/>
      <point x="220.67091794284627" y="688.0"/>
      <point x="224.9791847198287" y="688.0" type="curve" smooth="yes"/>
      <point x="333.873629022557" y="688.0" type="line" smooth="yes"/>
      <point x="337.9024652976134" y="688.0"/>
      <point x="341.30270868465374" y="685.0040280879938"/>
      <point x="341.80996581005905" y="681.0072528954247" type="curve" smooth="yes"/>
      <point x="346.74775860847905" y="642.10144600902"/>
      <point x="357.9082408411973" y="589.4549671749887"/>
      <point x="421.5063593220862" y="351.06210912748924" type="curve" smooth="yes"/>
      <point x="489.01110469602645" y="98.025548206302"/>
      <point x="505.7800880921965" y="43.591736798728576"/>
      <point x="526.9103301434092" y="3.748170285326537" type="curve" smooth="yes"/>
      <point x="529.7360394534036" y="-1.5800382873642556"/>
      <point x="525.8738350648741" y="-8.0"/>
      <point x="519.842712474619" y="-8.0" type="curve" smooth="yes"/>
      <point x="364.9863273947651" y="-8.0" type="line" smooth="yes"/>
      <point x="359.708277705751" y="-7.999999999999999"/>
      <point x="355.8767180079239" y="-2.978728812576956"/>
      <point x="357.27016214280565" y="2.1120591384838177" type="curve" smooth="yes"/>
      <point x="365.5636004692325" y="32.4111826183229"/>
      <point x="366.6569687761605" y="61.35544165167262"/>
      <point x="350.07009212330684" y="144.43368345123142" type="curve"/>
      <point x="357.91525958289964" y="138.0" type="line"/>
      <point x="191.03805922287438" y="138.0" type="line"/>
      <point x="198.88322668246718" y="144.43368345123142" type="line"/>
      <point x="182.29635002961345" y="61.35544165167262"/>
      <point x="183.3897183365416" y="32.4111826183229"/>
      <point x="191.6831566629684" y="2.1120591384838154" type="curve" smooth="yes"/>
      <point x="193.07660079785015" y="-2.9787288125769504"/>
      <point x="189.245041100023" y="-8.0"/>
      <point x="183.9669914110089" y="-8.0" type="curve" smooth="yes"/>
      <point x="39.010101267766686" y="-8.0" type="line" smooth="yes"/>
      <point x="32.97897867751166" y="-7.999999999999999"/>
      <point x="29.116774288982064" y="-1.5800382873642036"/>
      <point x="31.94248359897651" y="3.7481702853265455" type="curve" smooth="yes"/>
      <point x="53.07272565018938" y="43.59173679872858"/>
      <point x="70.04868926207595" y="97.96359490920214"/>
    </contour>
    <contour>
      <point x="266.728125078777" y="481.0099708976779" type="line"/>
      <point x="282.2251937269971" y="481.0099708976779" type="line"/>
      <point x="227.77797157563285" y="269.0099708976779" type="line"/>
      <point x="220.02943725152284" y="279.0" type="line"/>
      <point x="328.9238815542512" y="279.0" type="line"/>
      <point x="321.17534723014114" y="269.0099708976779" type="line"/>
    </contour>
    <contour>
      <point x="152.80748026747682" y="346.9442654885597" type="curve" smooth="yes"/>
      <point x="84.999234852936" y="91.92588793111337"/>
      <point x="67.3687793928998" y="36.39863832089432"/>
      <point x="46.07771893655686" y="-3.7481702853265455" type="curve"/>
      <point x="39.010101267766686" y="8.0" type="line"/>
      <point x="183.9669914110089" y="8.0" type="line"/>
      <point x="176.2508261590494" y="-2.1120591384838154" type="line"/>
      <point x="167.5749432403318" y="29.584281691979463"/>
      <point x="165.84112592584626" y="60.65699491685315"/>
      <point x="183.19289176328158" y="147.56631654876858" type="curve" smooth="yes"/>
      <point x="183.93972123569773" y="151.30694118781128"/>
      <point x="187.2236094655591" y="154.0"/>
      <point x="191.03805922287438" y="154.0" type="curve" smooth="yes"/>
      <point x="357.91525958289964" y="154.0" type="line" smooth="yes"/>
      <point x="361.7297093402149" y="154.0"/>
      <point x="365.0135975700763" y="151.30694118781128"/>
      <point x="365.76042704249244" y="147.56631654876858" type="curve" smooth="yes"/>
      <point x="383.1121928799277" y="60.65699491685315"/>
      <point x="381.3783755654421" y="29.58428169197946"/>
      <point x="372.7024926467246" y="-2.1120591384838177" type="curve"/>
      <point x="364.9863273947651" y="8.0" type="line"/>
      <point x="519.842712474619" y="8.0" type="line"/>
      <point x="512.7750948058289" y="-3.748170285326537" type="line"/>
      <point x="491.48403434948614" y="36.398638320894335"/>
      <point x="474.06554290788216" y="91.97551499528512"/>
      <point x="406.04703127118756" y="346.93789087251076" type="curve" smooth="yes"/>
      <point x="342.1248924438015" y="586.5453152988911"/>
      <point x="330.90024215088175" y="639.8887225141067"/>
      <point x="325.93729223505494" y="678.9927471045753" type="curve"/>
      <point x="333.873629022557" y="672.0" type="line"/>
      <point x="224.9791847198287" y="672.0" type="line"/>
      <point x="232.97418940245123" y="679.717333898665" type="line"/>
      <point x="231.55334601785262" y="639.5298142085157"/>
      <point x="214.2273362786178" y="577.9367050365431"/>
    </contour>
    <contour>
      <point x="282.2251937269971" y="484.9900291023221" type="curve" smooth="yes"/>
      <point x="336.6724158783612" y="272.9900291023221" type="line" smooth="yes"/>
      <point x="337.9723436146734" y="267.92852790521704"/>
      <point x="334.1496452771849" y="263.0"/>
      <point x="328.9238815542512" y="263.0" type="curve" smooth="yes"/>
      <point x="220.02943725152284" y="263.0" type="line" smooth="yes"/>
      <point x="214.8036735285893" y="263.0"/>
      <point x="210.9809751911007" y="267.9285279052172"/>
      <point x="212.28090292741282" y="272.9900291023221" type="curve" smooth="yes"/>
      <point x="266.728125078777" y="484.9900291023221" type="line" smooth="yes"/>
      <point x="268.78615162336257" y="493.0033236325594"/>
      <point x="280.1671671824115" y="493.0033236325594"/>
    </contour>
  </outline>
</glyph>
<glyph name="B" format="2">
  <advance width="419"/>
  <unicode hex="0042"/>
  <outline>
    <contour>
      <point x="82.57433277701472" y="-8.0" type="line" smooth="yes"/>
      <point x="77.05285981482761" y="-7.999999999999999"/>
      <point x="73.19136945696252" y="-2.5390279649342316"/>
      <point x="75.03186044435822" y="2.6666666666666674" type="curve" smooth="yes"/>
      <point x="89.07667332249572" y="42.39139637317538"/>
      <point x="93.66621586905147" y="96.74796636366959"/>
      <point x="93.66621586905148" y="349.0" type="curve" smooth="yes"/>
      <point x="93.6662158690515" y="587.2292040499328"/>
      <point x="89.0913211848436" y="638.5605696550532"/>
      <point x="75.05353071314515" y="677.2728153131673" type="curve" smooth="yes"/>
      <point x="73.16199985127976" y="682.4891210802369"/>
      <point x="77.02566312952676" y="688.0"/>
      <point x="82.57433277701472" y="688.0" type="curve" smooth="yes"/>
      <point x="253.69417382415924" y="688.0" type="line" smooth="yes"/>
      <point x="361.90957564663216" y="688.0"/>
      <point x="429.278480965371" y="609.5605814256088"/>
      <point x="429.278480965371" y="494.0" type="curve" smooth="yes"/>
      <point x="429.278480965371" y="429.3234566558431"/>
      <point x="406.76754253772765" y="378.1951588048362"/>
      <point x="369.88591158421224" y="346.9000571866958" type="curve"/>
      <point x="369.2794751451911" y="359.56653139626775" type="line"/>
      <point x="415.70389412153924" y="327.26057375831664"/>
      <point x="443.4206165891019" y="270.99106426756543"/>
      <point x="443.4206165891019" y="197.0" type="curve" smooth="yes"/>
      <point x="443.4206165891019" y="75.13199710982322"/>
      <point x="372.305500614997" y="-8.0"/>
      <point x="270.66473657263634" y="-8.0" type="curve" smooth="yes"/>
    </contour>
    <contour>
      <point x="256.5226009489054" y="549.0" type="curve" smooth="yes"/>
      <point x="205.61091270347396" y="549.0" type="line"/>
      <point x="213.60507541703456" y="556.6944472073153" type="line"/>
      <point x="212.19288497760064" y="519.7473780734431"/>
      <point x="211.48812170114448" y="471.8198777851172"/>
      <point x="210.7820264814275" y="405.9142950057776" type="curve"/>
      <point x="202.7824855787278" y="414.0" type="line"/>
      <point x="256.5226009489054" y="414.0" type="line" smooth="yes"/>
      <point x="285.91117374874307" y="414.0"/>
      <point x="305.79825022501575" y="439.43828176768045"/>
      <point x="305.79825022501575" y="481.0" type="curve" smooth="yes"/>
      <point x="305.79825022501575" y="522.6866218772971"/>
      <point x="288.50816570899053" y="549.0"/>
    </contour>
    <contour>
      <point x="263.59366876077087" y="281.0" type="curve" smooth="yes"/>
      <point x="202.7824855787278" y="281.0" type="line"/>
      <point x="210.78211030020057" y="289.07748751900687" type="line"/>
      <point x="211.48820551991756" y="216.1819186873131"/>
      <point x="212.19372694666257" y="163.22544354335895"/>
      <point x="213.60591738609648" y="123.28266610133502" type="curve"/>
      <point x="205.61091270347396" y="131.0" type="line"/>
      <point x="263.59366876077087" y="131.0" type="line" smooth="yes"/>
      <point x="297.2503968704309" y="131.0"/>
      <point x="319.9403858487467" y="158.40219864221504"/>
      <point x="319.9403858487467" y="206.0" type="curve" smooth="yes"/>
      <point x="319.9403858487467" y="253.74084498387532"/>
      <point x="299.8993081565713" y="281.0"/>
    </contour>
    <contour>
      <point x="82.57433277701472" y="8.0" type="line"/>
      <point x="270.66473657263634" y="8.0" type="line" smooth="yes"/>
      <point x="364.20216249301586" y="8.0"/>
      <point x="427.4206165891019" y="84.8479574626803"/>
      <point x="427.4206165891019" y="197.0" type="curve" smooth="yes"/>
      <point x="427.4206165891019" y="265.0240480567489"/>
      <point x="402.8209192164817" y="316.7328279028983"/>
      <point x="360.14040179570327" y="346.43346860373225" type="curve" smooth="yes"/>
      <point x="355.82979980449375" y="349.4331426630464"/>
      <point x="355.52965561528066" y="355.70217332676464"/>
      <point x="359.53396535668213" y="359.0999428133042" type="curve" smooth="yes"/>
      <point x="393.3566071421585" y="387.7994060502888"/>
      <point x="413.278480965371" y="434.6877759768985"/>
      <point x="413.278480965371" y="494.0" type="curve" smooth="yes"/>
      <point x="413.278480965371" y="600.4006557405341"/>
      <point x="353.3318666523896" y="672.0"/>
      <point x="253.69417382415924" y="672.0" type="curve" smooth="yes"/>
      <point x="82.57433277701472" y="672.0" type="line"/>
      <point x="90.09513484088428" y="682.7271846868327" type="line"/>
      <point x="104.339125310335" y="643.4462979036227"/>
      <point x="109.6662158690515" y="590.728534050524"/>
      <point x="109.66621586905148" y="349.0" type="curve" smooth="yes"/>
      <point x="109.66621586905147" y="93.29848555375196"/>
      <point x="104.35367714310523" y="37.601288364238535"/>
      <point x="90.11680510967122" y="-2.6666666666666674" type="curve"/>
    </contour>
    <contour>
      <point x="256.5226009489054" y="565.0" type="line" smooth="yes"/>
      <point x="296.5878222543104" y="565.0"/>
      <point x="321.79825022501575" y="533.2167966554981"/>
      <point x="321.79825022501575" y="481.0" type="curve" smooth="yes"/>
      <point x="321.79825022501575" y="428.6256346997476"/>
      <point x="293.55686981305536" y="398.0"/>
      <point x="256.5226009489054" y="398.0" type="curve" smooth="yes"/>
      <point x="202.7824855787278" y="398.0" type="line" smooth="yes"/>
      <point x="198.33069980394973" y="398.0"/>
      <point x="194.73525214176476" y="401.63417469479816"/>
      <point x="194.7829446760281" y="406.0857049942224" type="curve" smooth="yes"/>
      <point x="195.49122905969145" y="472.19562016621103"/>
      <point x="196.20018122258676" y="520.2439336811153"/>
      <point x="197.61674998991336" y="557.3055527926847" type="curve" smooth="yes"/>
      <point x="197.78096131364393" y="561.6018055933124"/>
      <point x="201.3115228065533" y="565.0"/>
      <point x="205.61091270347396" y="565.0" type="curve" smooth="yes"/>
    </contour>
    <contour>
      <point x="263.59366876077087" y="297.0" type="line" smooth="yes"/>
      <point x="307.8520700976541" y="297.0"/>
      <point x="335.9403858487467" y="264.1984923725844"/>
      <point x="335.9403858487467" y="206.0" type="curve" smooth="yes"/>
      <point x="335.9403858487467" y="147.6558658274869"/>
      <point x="304.84920167661267" y="115.0"/>
      <point x="263.59366876077087" y="115.0" type="curve" smooth="yes"/>
      <point x="205.61091270347396" y="115.0" type="line" smooth="yes"/>
      <point x="201.3026459264915" y="115.0"/>
      <point x="197.76813314252155" y="118.41175726666975"/>
      <point x="197.61590802085144" y="122.71733389866498" type="curve" smooth="yes"/>
      <point x="196.19933925352484" y="162.7839491544156"/>
      <point x="195.49114524091837" y="215.80093963924818"/>
      <point x="194.78286085725503" y="288.92251248099313" type="curve" smooth="yes"/>
      <point x="194.73977227886974" y="293.3708734723124"/>
      <point x="198.33391590582414" y="297.0"/>
      <point x="202.7824855787278" y="297.0" type="curve" smooth="yes"/>
    </contour>
  </outline>
</glyph>
<glyph name="C" format="2">
  <advance width="432"/>
  <unicode hex="0043"/>
  <outline>
    <contour>
      <point x="184.4020202535533" y="340.0" type="curve" smooth="yes"/>
      <point x="184.40202025355327" y="207.88575312516306"/>
      <point x="233.18307928813132" y="125.0"/>
      <point x="305.09545442950497" y="125.0" type="curve" smooth="yes"/>
      <point x="349.5192227447574" y="125.0"/>
      <point x="391.7770020189209" y="153.127843091252"/>
      <point x="425.4313719547183" y="195.01097352001887" type="curve" smooth="yes"/>
      <point x="430.16274150079556" y="200.8992004630009"/>
      <point x="439.66756826189703" y="197.55361332830896"/>
      <point x="439.66756826189703" y="190.0" type="curve" smooth="yes"/>
      <point x="439.66756826189703" y="22.0" type="line" smooth="yes"/>
      <point x="439.66756826189703" y="19.26194163598483"/>
      <point x="438.2672593480371" y="16.714071399245327"/>
      <point x="435.95578927045347" y="15.24639647434238" type="curve" smooth="yes"/>
      <point x="400.0464019451977" y="-7.554377741606076"/>
      <point x="354.7487248945577" y="-20.000000000000007"/>
      <point x="310.0452018978108" y="-20.0" type="curve" smooth="yes"/>
      <point x="157.1103924839716" y="-19.999999999999982"/>
      <point x="60.92178951319812" y="124.79262474191876"/>
      <point x="60.92178951319809" y="338.0" type="curve" smooth="yes"/>
      <point x="60.921789513198064" y="551.2073752580812"/>
      <point x="157.1103924839716" y="700.0"/>
      <point x="310.0452018978108" y="700.0" type="curve" smooth="yes"/>
      <point x="354.7487248945577" y="700.0"/>
      <point x="400.0464019451977" y="687.554377741606"/>
      <point x="435.95578927045347" y="664.7536035256576" type="curve" smooth="yes"/>
      <point x="438.26725934803704" y="663.2859286007547"/>
      <point x="439.66756826189703" y="660.738058364015"/>
      <point x="439.66756826189703" y="658.0" type="curve" smooth="yes"/>
      <point x="439.66756826189703" y="490.0" type="line" smooth="yes"/>
      <point x="439.66756826189703" y="482.5046660692886"/>
      <point x="430.28478499184916" y="479.12489351036277"/>
      <point x="425.5051587322787" y="484.8985581656487" type="curve" smooth="yes"/>
      <point x="393.2615315380493" y="523.8480242074284"/>
      <point x="348.7233350403838" y="556.0"/>
      <point x="304.3883476483185" y="556.0" type="curve" smooth="yes"/>
      <point x="232.47597250694477" y="556.0"/>
      <point x="184.40202025355333" y="472.11424687483714"/>
    </contour>
    <contour>
      <point x="168.4020202535533" y="340.0" type="curve" smooth="yes"/>
      <point x="168.40202025355333" y="485.7292839169689"/>
      <point x="225.06504087392372" y="572.0"/>
      <point x="304.3883476483185" y="572.0" type="curve" smooth="yes"/>
      <point x="353.36568310805427" y="572.0"/>
      <point x="402.210097457162" y="538.1293341722037"/>
      <point x="437.8299777915154" y="495.1014418343513" type="curve"/>
      <point x="423.66756826189703" y="490.0" type="line"/>
      <point x="423.66756826189703" y="658.0" type="line"/>
      <point x="427.3793472533406" y="651.2463964743424" type="line"/>
      <point x="393.9840224935035" y="672.4508590517862"/>
      <point x="351.618973537608" y="684.0"/>
      <point x="310.0452018978108" y="684.0" type="curve" smooth="yes"/>
      <point x="164.58311266774822" y="684.0"/>
      <point x="76.92178951319806" y="540.7896092666267"/>
      <point x="76.92178951319809" y="338.0" type="curve" smooth="yes"/>
      <point x="76.92178951319812" y="135.21039073337354"/>
      <point x="164.58311266774822" y="-3.999999999999983"/>
      <point x="310.0452018978108" y="-4.0" type="curve" smooth="yes"/>
      <point x="351.618973537608" y="-4.000000000000005"/>
      <point x="393.9840224935035" y="7.5491409482138705"/>
      <point x="427.3793472533406" y="28.75360352565762" type="curve"/>
      <point x="423.66756826189703" y="22.0" type="line"/>
      <point x="423.66756826189703" y="190.0" type="line"/>
      <point x="437.90376456907575" y="184.98902647998113" type="line"/>
      <point x="400.855323007429" y="138.8819469812655"/>
      <point x="353.99939729087856" y="109.0"/>
      <point x="305.09545442950497" y="109.0" type="curve" smooth="yes"/>
      <point x="225.77214765511027" y="109.0"/>
      <point x="168.40202025355327" y="194.27071608303118"/>
    </contour>
  </outline>
</glyph>
<glyph name="E" format="2">
  <advance width="389"/>
  <unicode hex="0045"/>
  <outline>
    <contour>
      <point x="83.13068196311875" y="-8.0" type="line" smooth="yes"/>
      <point x="77.60920900093164" y="-7.999999999999999"/>
      <point x="73.74771864306655" y="-2.5390279649342316"/>
      <point x="75.58820963046225" y="2.6666666666666674" type="curve" smooth="yes"/>
      <point x="89.63302250859975" y="42.39139637317538"/>
      <point x="94.22256505515553" y="96.74796636366959"/>
      <point x="94.22256505515554" y="349.0" type="curve" smooth="yes"/>
      <point x="94.22256505515556" y="587.2292040499328"/>
      <point x="89.64767037094762" y="638.5605696550532"/>
      <point x="75.60987989924918" y="677.2728153131673" type="curve" smooth="yes"/>
      <point x="73.71834903738379" y="682.4891210802369"/>
      <point x="77.58201231563079" y="688.0"/>
      <point x="83.13068196311875" y="688.0" type="curve" smooth="yes"/>
      <point x="379.4084232802822" y="688.0" type="line" smooth="yes"/>
      <point x="383.82670127892857" y="688.0"/>
      <point x="387.4084232802822" y="684.4182779986463"/>
      <point x="387.4084232802822" y="680.0" type="curve" smooth="yes"/>
      <point x="387.4084232802822" y="524.0" type="line" smooth="yes"/>
      <point x="387.4084232802822" y="517.4586801237818"/>
      <point x="379.9847431151425" y="513.6822133589149"/>
      <point x="374.6977161308586" y="517.5339936473608" type="curve" smooth="yes"/>
      <point x="351.9363404449489" y="534.1164356257185"/>
      <point x="324.99958303944794" y="549.9287459282463"/>
      <point x="206.36453400985835" y="547.002432637948" type="curve"/>
      <point x="214.16109618538653" y="554.6859725312084" type="line"/>
      <point x="212.7495924911337" y="518.7549545116713"/>
      <point x="212.04406637134647" y="471.78996404896185"/>
      <point x="211.33831452422004" y="409.90876634864793" type="curve"/>
      <point x="203.26812684868716" y="417.9996875183094" type="line"/>
      <point x="311.0698854514018" y="418.952529449957"/>
      <point x="335.2863669014686" y="423.14148463858527"/>
      <point x="355.4991966394776" y="438.3869555449482" type="curve" smooth="yes"/>
      <point x="360.7703220456556" y="442.36268729875417"/>
      <point x="368.3165401882454" y="438.6023636696168"/>
      <point x="368.3165401882454" y="432.0" type="curve" smooth="yes"/>
      <point x="368.3165401882454" y="269.0" type="line" smooth="yes"/>
      <point x="368.3165401882454" y="262.5104596223417"/>
      <point x="360.99642556487885" y="258.7212894686202"/>
      <point x="355.69773803472845" y="262.4680273525782" type="curve" smooth="yes"/>
      <point x="335.44470970335317" y="276.7890810252571"/>
      <point x="311.2842779493555" y="281.04557557017876"/>
      <point x="203.26812684868716" y="282.0003124816906" type="curve"/>
      <point x="211.33844899026863" y="290.07856363146783" type="line"/>
      <point x="212.04454420998562" y="218.1815642358246"/>
      <point x="212.75007613276657" y="165.22544354335895"/>
      <point x="214.16226657220054" y="125.28266610133502" type="curve"/>
      <point x="206.35788822921313" y="132.99772852744061" type="line"/>
      <point x="327.24755561417237" y="130.116316047105"/>
      <point x="361.6744497840666" y="143.4238691007854"/>
      <point x="386.1240454349572" y="171.2775230773633" type="curve" smooth="yes"/>
      <point x="391.2174472172106" y="177.08006692439835"/>
      <point x="400.76286747120315" y="173.01394131429566"/>
      <point x="400.1074706354329" y="165.32091123506885" type="curve" smooth="yes"/>
      <point x="385.96533501170194" y="-0.6790887649311492" type="line" smooth="yes"/>
      <point x="385.6126303171017" y="-4.819126794646293"/>
      <point x="382.14924467433013" y="-8.0"/>
      <point x="377.9942097179091" y="-8.0" type="curve" smooth="yes"/>
    </contour>
    <contour>
      <point x="83.13068196311875" y="8.0" type="line"/>
      <point x="377.9942097179091" y="8.0" type="line"/>
      <point x="370.02308442411623" y="0.6790887649311492" type="line"/>
      <point x="384.1652200478472" y="166.67908876493115" type="line"/>
      <point x="398.14864524832285" y="160.7224769226367" type="line"/>
      <point x="371.7266448332245" y="130.62180501625534"/>
      <point x="336.61874871348493" y="113.8884088615544"/>
      <point x="205.9766355499429" y="117.00227147255939" type="curve" smooth="yes"/>
      <point x="201.74330960155422" y="117.1031730507081"/>
      <point x="198.32187690677475" y="120.48544972501374"/>
      <point x="198.1722572069555" y="124.71733389866498" type="curve" smooth="yes"/>
      <point x="196.75568843962884" y="164.7839491544156"/>
      <point x="196.04750492305843" y="217.80152890818096"/>
      <point x="195.3392205393951" y="289.92143636853217" type="curve" smooth="yes"/>
      <point x="195.29525744782694" y="294.39790679297823"/>
      <point x="198.9330312428807" y="298.03925466323363"/>
      <point x="203.40954268097656" y="297.9996875183094" type="curve" smooth="yes"/>
      <point x="321.3128289701149" y="296.95755985256903"/>
      <point x="342.82847616254895" y="291.1638876335271"/>
      <point x="364.9353423417624" y="275.5319726474218" type="curve"/>
      <point x="352.3165401882454" y="269.0" type="line"/>
      <point x="352.3165401882454" y="432.0" type="line"/>
      <point x="365.13388373701326" y="425.6130444550518" type="line"/>
      <point x="342.98277065408723" y="408.9056286985004"/>
      <point x="321.5488124565816" y="403.0445259664751"/>
      <point x="203.40954268097656" y="402.0003124816906" type="curve" smooth="yes"/>
      <point x="198.92806309535186" y="401.9607014241313"/>
      <point x="195.2882452908304" y="405.609870453694"/>
      <point x="195.33935500544368" y="410.09123365135207" type="curve" smooth="yes"/>
      <point x="196.04763938910702" y="472.1944872977656"/>
      <point x="196.75685882644285" y="519.2540737386161"/>
      <point x="198.1734275937695" y="555.3140274687916" type="curve" smooth="yes"/>
      <point x="198.3390716009471" y="559.5306354953668"/>
      <point x="201.75141261545454" y="562.8935097627808"/>
      <point x="205.96998976929768" y="562.997567362052" type="curve" smooth="yes"/>
      <point x="330.510936368289" y="566.0695585670127"/>
      <point x="360.2246464892016" y="547.8739565140826"/>
      <point x="384.11913042970576" y="530.4660063526392" type="curve"/>
      <point x="371.4084232802822" y="524.0" type="line"/>
      <point x="371.4084232802822" y="680.0" type="line"/>
      <point x="379.4084232802822" y="672.0" type="line"/>
      <point x="83.13068196311875" y="672.0" type="line"/>
      <point x="90.65148402698831" y="682.7271846868327" type="line"/>
      <point x="104.89547449643904" y="643.4462979036227"/>
      <point x="110.22256505515556" y="590.728534050524"/>
      <point x="110.22256505515554" y="349.0" type="curve" smooth="yes"/>
      <point x="110.22256505515553" y="93.29848555375196"/>
      <point x="104.91002632920926" y="37.601288364238535"/>
      <point x="90.67315429577525" y="-2.6666666666666674" type="curve"/>
    </contour>
  </outline>
</glyph>
<glyph name="F" format="2">
  <advance width="369"/>
  <unicode hex="0046"/>
  <outline>
    <contour>
      <point x="83.03017689973044" y="-8.0" type="line" smooth="yes"/>
      <point x="77.50870393754333" y="-7.999999999999999"/>
      <point x="73.64721357967824" y="-2.5390279649342316"/>
      <point x="75.48770456707393" y="2.6666666666666674" type="curve" smooth="yes"/>
      <point x="89.53251744521144" y="42.39139637317538"/>
      <point x="94.12205999176719" y="96.74796636366959"/>
      <point x="94.1220599917672" y="349.0" type="curve" smooth="yes"/>
      <point x="94.12205999176722" y="587.2292040499328"/>
      <point x="89.54716530755931" y="638.5605696550532"/>
      <point x="75.50937483586087" y="677.2728153131673" type="curve" smooth="yes"/>
      <point x="73.61784397399548" y="682.4891210802369"/>
      <point x="77.48150725224248" y="688.0"/>
      <point x="83.03017689973044" y="688.0" type="curve" smooth="yes"/>
      <point x="379.3079182168939" y="688.0" type="line" smooth="yes"/>
      <point x="383.72619621554026" y="688.0"/>
      <point x="387.3079182168939" y="684.4182779986463"/>
      <point x="387.3079182168939" y="680.0" type="curve" smooth="yes"/>
      <point x="387.3079182168939" y="524.0" type="line" smooth="yes"/>
      <point x="387.3079182168939" y="517.4586801237818"/>
      <point x="379.8842380517542" y="513.6822133589149"/>
      <point x="374.5972110674703" y="517.5339936473608" type="curve" smooth="yes"/>
      <point x="351.83583538156057" y="534.1164356257185"/>
      <point x="324.89907797605963" y="549.9287459282463"/>
      <point x="206.2640289464701" y="547.002432637948" type="curve"/>
      <point x="214.0555305011767" y="554.5763312970789" type="line"/>
      <point x="211.94039168602498" y="514.692891314554"/>
      <point x="211.2383297014435" y="462.7872779681073"/>
      <point x="211.2383297014435" y="390.0" type="curve"/>
      <point x="203.1676217852988" y="397.9996875183094" type="line"/>
      <point x="310.9693803880134" y="398.952529449957"/>
      <point x="335.18586183808026" y="403.14148463858527"/>
      <point x="355.39869157608916" y="418.3869555449482" type="curve" smooth="yes"/>
      <point x="360.66981698226715" y="422.3626872987542"/>
      <point x="368.21603512485706" y="418.60236366961686"/>
      <point x="368.21603512485706" y="412.0" type="curve" smooth="yes"/>
      <point x="368.21603512485706" y="249.0" type="line" smooth="yes"/>
      <point x="368.21603512485706" y="242.51045962234173"/>
      <point x="360.8959205014905" y="238.72128946862023"/>
      <point x="355.5972329713401" y="242.4680273525782" type="curve" smooth="yes"/>
      <point x="335.34420463996486" y="256.7890810252571"/>
      <point x="311.18377288596713" y="261.04557557017876"/>
      <point x="203.1676217852988" y="262.0003124816906" type="curve"/>
      <point x="211.2381009371993" y="270.06049938490634" type="line"/>
      <point x="212.63767390789093" y="84.99640971505481"/>
      <point x="217.25235864683043" y="37.37173153891691"/>
      <point x="229.8485153830551" y="2.7340676969660804" type="curve" smooth="yes"/>
      <point x="231.74588025571475" y="-2.4834195113114697"/>
      <point x="227.88198424307572" y="-8.0"/>
      <point x="222.3302127934803" y="-8.0" type="curve" smooth="yes"/>
    </contour>
    <contour>
      <point x="83.03017689973044" y="8.0" type="line"/>
      <point x="222.3302127934803" y="8.0" type="line"/>
      <point x="214.81191020390554" y="-2.7340676969660804" type="line"/>
      <point x="201.9536345691133" y="32.62438634197351"/>
      <point x="196.66725575844237" y="81.02433189275924"/>
      <point x="195.23855846568767" y="269.93950061509366" type="curve" smooth="yes"/>
      <point x="195.2047574163576" y="274.4089784880932"/>
      <point x="198.83960651758542" y="278.03919208129514"/>
      <point x="203.3090376175882" y="277.9996875183094" type="curve" smooth="yes"/>
      <point x="321.2123239067265" y="276.95755985256903"/>
      <point x="342.72797109916064" y="271.1638876335271"/>
      <point x="364.83483727837404" y="255.5319726474218" type="curve"/>
      <point x="352.21603512485706" y="249.0" type="line"/>
      <point x="352.21603512485706" y="412.0" type="line"/>
      <point x="365.03337867362495" y="405.6130444550518" type="line"/>
      <point x="342.882265590699" y="388.9056286985004"/>
      <point x="321.4483073931932" y="383.0445259664751"/>
      <point x="203.3090376175882" y="382.0003124816906" type="curve" smooth="yes"/>
      <point x="198.86329441705672" y="381.9610172921342"/>
      <point x="195.2383297014435" y="385.55408314101646"/>
      <point x="195.2383297014435" y="390.0" type="curve" smooth="yes"/>
      <point x="195.2383297014435" y="463.19471269498"/>
      <point x="195.95100461584843" y="515.3169768152608"/>
      <point x="198.07798315120272" y="555.4236687029211" type="curve" smooth="yes"/>
      <point x="198.29922322073472" y="559.5954114612214"/>
      <point x="201.69314987856004" y="562.8945517337871"/>
      <point x="205.86948470590931" y="562.997567362052" type="curve" smooth="yes"/>
      <point x="330.41043130490056" y="566.0695585670127"/>
      <point x="360.12414142581326" y="547.8739565140826"/>
      <point x="384.01862536631745" y="530.4660063526392" type="curve"/>
      <point x="371.3079182168939" y="524.0" type="line"/>
      <point x="371.3079182168939" y="680.0" type="line"/>
      <point x="379.3079182168939" y="672.0" type="line"/>
      <point x="83.03017689973044" y="672.0" type="line"/>
      <point x="90.5509789636" y="682.7271846868327" type="line"/>
      <point x="104.79496943305072" y="643.4462979036227"/>
      <point x="110.12205999176722" y="590.728534050524"/>
      <point x="110.1220599917672" y="349.0" type="curve" smooth="yes"/>
      <point x="110.12205999176719" y="93.29848555375196"/>
      <point x="104.80952126582095" y="37.601288364238535"/>
      <point x="90.57264923238694" y="-2.6666666666666674" type="curve"/>
    </contour>
  </outline>
</glyph>
<glyph name="G" format="2">
  <advance width="474"/>
  <unicode hex="0047"/>
  <outline>
    <contour>
      <point x="480.4665186292401" y="40.02514145028718" type="curve" smooth="yes"/>
      <point x="480.47537119999055" y="37.20827068643527"/>
      <point x="479.00211965634605" y="34.59432937828008"/>
      <point x="476.5877702563324" y="33.143206970312264" type="curve" smooth="yes"/>
      <point x="418.6617485823829" y="-1.672693352575012"/>
      <point x="364.91262452167985" y="-23.000000000000007"/>
      <point x="307.71067811865476" y="-23.0" type="curve" smooth="yes"/>
      <point x="157.60008901230856" y="-22.999999999999982"/>
      <point x="60.708586077601694" y="130.941500811295"/>
      <point x="60.708586077601666" y="334.0" type="curve" smooth="yes"/>
      <point x="60.70858607760164" y="548.1253480420319"/>
      <point x="163.32023875071405" y="700.0"/>
      <point x="316.90306627407983" y="700.0" type="curve" smooth="yes"/>
      <point x="365.4895854534287" y="700.0"/>
      <point x="415.5315974541271" y="684.7366329324926"/>
      <point x="464.84328856152587" y="659.0979335399794" type="curve" smooth="yes"/>
      <point x="467.4913880572477" y="657.721103311537"/>
      <point x="469.15284963613556" y="654.984642762073"/>
      <point x="469.15284963613556" y="652.0" type="curve" smooth="yes"/>
      <point x="469.15284963613556" y="484.0" type="line" smooth="yes"/>
      <point x="469.15284963613556" y="476.43068650604056"/>
      <point x="459.6151126089573" y="473.0945026887775"/>
      <point x="454.8970659770399" y="479.0135011470379" type="curve" smooth="yes"/>
      <point x="412.83152613277326" y="531.786583930859"/>
      <point x="362.9535738166964" y="557.0"/>
      <point x="314.78174593052023" y="557.0" type="curve" smooth="yes"/>
      <point x="232.37822895777418" y="557.0"/>
      <point x="184.1888168179569" y="472.81960359043984"/>
      <point x="184.18881681795688" y="341.0" type="curve" smooth="yes"/>
      <point x="184.18881681795685" y="209.2463062113554"/>
      <point x="232.41943071626056" y="122.0"/>
      <point x="314.78174593052023" y="122.0" type="curve" smooth="yes"/>
      <point x="333.53597675819884" y="122.0"/>
      <point x="352.9537855057916" y="125.80041884796316"/>
      <point x="372.37781029160175" y="134.3255041442278" type="curve"/>
      <point x="367.5950365608488" y="126.81638428381433" type="line"/>
      <point x="364.10130201404843" y="278.99569708984274"/>
      <point x="358.7516314927631" y="316.6237847557425"/>
      <point x="347.5716809430019" y="347.2572827881249" type="curve" smooth="yes"/>
      <point x="345.66697634777904" y="352.4762472379522"/>
      <point x="349.53116062446634" y="358.0"/>
      <point x="355.0868324581534" y="358.0" type="curve" smooth="yes"/>
      <point x="480.95183950935893" y="358.0" type="line" smooth="yes"/>
      <point x="485.86529840541306" y="358.0"/>
      <point x="489.61758296965843" y="353.6120587763061"/>
      <point x="488.85486622861663" y="348.7581591588699" type="curve" smooth="yes"/>
      <point x="483.2144960548786" y="312.86306317459787"/>
      <point x="479.7614723575229" y="264.36949135198785"/>
    </contour>
    <contour>
      <point x="464.4665976410005" y="39.97485854971282" type="line"/>
      <point x="463.7572502994598" y="265.6878004887359"/>
      <point x="467.374034057776" y="315.1277701308865"/>
      <point x="473.04881279010124" y="351.2418408411301" type="curve"/>
      <point x="480.95183950935893" y="342.0" type="line"/>
      <point x="355.0868324581534" y="342.0" type="line"/>
      <point x="362.6019839733049" y="352.7427172118751" type="line"/>
      <point x="374.042994751079" y="321.39390403157927"/>
      <point x="380.01550579622335" y="282.9164295795906"/>
      <point x="383.59082166427777" y="127.18361571618567" type="curve" smooth="yes"/>
      <point x="383.66522588375716" y="123.94273326259173"/>
      <point x="381.7764671378649" y="120.97731683088524"/>
      <point x="378.80804793352485" y="119.6744958557722" type="curve" smooth="yes"/>
      <point x="357.21921579967864" y="110.19928989731245"/>
      <point x="335.6261355769924" y="106.0"/>
      <point x="314.78174593052023" y="106.0" type="curve" smooth="yes"/>
      <point x="224.70055272662137" y="106.0"/>
      <point x="168.18881681795685" y="196.89853909974372"/>
      <point x="168.18881681795688" y="341.0" type="curve" smooth="yes"/>
      <point x="168.1888168179569" y="485.0294461771678"/>
      <point x="224.74557081417953" y="573.0"/>
      <point x="314.78174593052023" y="573.0" type="curve" smooth="yes"/>
      <point x="367.02292826041366" y="573.0"/>
      <point x="421.78957266912704" y="546.217630840198"/>
      <point x="467.4086332952312" y="488.9864988529621" type="curve"/>
      <point x="453.15284963613556" y="484.0" type="line"/>
      <point x="453.15284963613556" y="652.0" type="line"/>
      <point x="457.46241071074525" y="644.9020664600206" type="line"/>
      <point x="410.60707252775734" y="669.2636306982408"/>
      <point x="363.06935536614145" y="684.0"/>
      <point x="316.90306627407983" y="684.0" type="curve" smooth="yes"/>
      <point x="170.67847095853938" y="684.0"/>
      <point x="76.70858607760164" y="537.8664925574562"/>
      <point x="76.70858607760167" y="334.0" type="curve" smooth="yes"/>
      <point x="76.7085860776017" y="141.15288302767826"/>
      <point x="165.14883287782317" y="-6.999999999999983"/>
      <point x="307.71067811865476" y="-7.0" type="curve" smooth="yes"/>
      <point x="362.2272903395184" y="-7.000000000000007"/>
      <point x="413.1386500940462" y="13.67531833562532"/>
      <point x="468.34534601390817" y="46.856793029687736" type="curve"/>
    </contour>
  </outline>
</glyph>
<glyph name="H" format="2">
  <advance width="497"/>
  <unicode hex="0048"/>
  <outline>
    <contour>
      <point x="82.6834598117546" y="-8.0" type="line" smooth="yes"/>
      <point x="77.1619868495675" y="-7.999999999999999"/>
      <point x="73.3004964917024" y="-2.5390279649342316"/>
      <point x="75.1409874790981" y="2.6666666666666674" type="curve" smooth="yes"/>
      <point x="89.1858003572356" y="42.39139637317538"/>
      <point x="93.77534290379135" y="96.74796636366959"/>
      <point x="93.77534290379137" y="349.0" type="curve" smooth="yes"/>
      <point x="93.77534290379138" y="587.2292040499328"/>
      <point x="89.20044821958348" y="638.5605696550532"/>
      <point x="75.16265774788504" y="677.2728153131673" type="curve" smooth="yes"/>
      <point x="73.27112688601964" y="682.4891210802369"/>
      <point x="77.13479016426665" y="688.0"/>
      <point x="82.6834598117546" y="688.0" type="curve" smooth="yes"/>
      <point x="221.98349570550448" y="688.0" type="line" smooth="yes"/>
      <point x="227.53526715509994" y="688.0"/>
      <point x="231.39916316773895" y="682.4834195113115"/>
      <point x="229.50179829507925" y="677.2659323030339" type="curve" smooth="yes"/>
      <point x="216.9119396372227" y="642.6455872930039"/>
      <point x="212.2902442918853" y="597.9636326952419"/>
      <point x="210.89137110767902" y="417.9378386430867" type="curve"/>
      <point x="202.89161261346766" y="426.0" type="line"/>
      <point x="378.961201128918" y="426.0" type="line"/>
      <point x="370.96144263470666" y="417.9378386430867" type="line"/>
      <point x="369.5625694505004" y="597.9636326952419"/>
      <point x="364.940874105163" y="642.6455872930039"/>
      <point x="352.35101544730645" y="677.2659323030339" type="curve" smooth="yes"/>
      <point x="350.45365057464676" y="682.4834195113115"/>
      <point x="354.3175465872858" y="688.0"/>
      <point x="359.8693180368812" y="688.0" type="curve" smooth="yes"/>
      <point x="499.16935393063113" y="688.0" type="line" smooth="yes"/>
      <point x="504.71802357811885" y="688.0"/>
      <point x="508.581686856366" y="682.4891210802367"/>
      <point x="506.6901559945007" y="677.2728153131673" type="curve" smooth="yes"/>
      <point x="492.6523655228023" y="638.5605696550532"/>
      <point x="488.07747083859437" y="587.2292040499328"/>
      <point x="488.0774708385943" y="349.0" type="curve" smooth="yes"/>
      <point x="488.07747083859425" y="96.74796636366959"/>
      <point x="492.6670133851502" y="42.39139637317538"/>
      <point x="506.71182626328766" y="2.6666666666666647" type="curve" smooth="yes"/>
      <point x="508.55231725068336" y="-2.5390279649342147"/>
      <point x="504.6908268928182" y="-8.0"/>
      <point x="499.16935393063113" y="-8.0" type="curve" smooth="yes"/>
      <point x="359.8693180368812" y="-8.0" type="line" smooth="yes"/>
      <point x="354.37661833763366" y="-7.999999999999999"/>
      <point x="350.51768494634064" y="-2.591661344778846"/>
      <point x="352.30440193790264" y="2.602315202932727" type="curve" smooth="yes"/>
      <point x="364.9384133624313" y="39.32931749396405"/>
      <point x="370.2593591956282" y="87.54014912083558"/>
      <point x="370.96124871921313" y="291.0275942468199" type="curve"/>
      <point x="378.961201128918" y="283.0" type="line"/>
      <point x="202.89161261346766" y="283.0" type="line"/>
      <point x="210.89156502317252" y="291.0275942468199" type="line"/>
      <point x="211.59345454675744" y="87.54014912083558"/>
      <point x="216.91440037995446" y="39.32931749396404"/>
      <point x="229.54841180448307" y="2.6023152029327243" type="curve" smooth="yes"/>
      <point x="231.33512879604504" y="-2.5916613447788417"/>
      <point x="227.47619540475202" y="-8.0"/>
      <point x="221.98349570550448" y="-8.0" type="curve" smooth="yes"/>
    </contour>
    <contour>
      <point x="82.6834598117546" y="8.0" type="line"/>
      <point x="221.98349570550448" y="8.0" type="line"/>
      <point x="214.4185796065259" y="-2.6023152029327243" type="line"/>
      <point x="201.59898818402016" y="34.66416712985641"/>
      <point x="195.60385972723532" y="84.49594958502426"/>
      <point x="194.8916602037628" y="290.9724057531801" type="curve" smooth="yes"/>
      <point x="194.87638313847472" y="295.40143750253407"/>
      <point x="198.46255451659093" y="299.0"/>
      <point x="202.89161261346766" y="299.0" type="curve" smooth="yes"/>
      <point x="378.961201128918" y="299.0" type="line" smooth="yes"/>
      <point x="383.3902592257948" y="299.0"/>
      <point x="386.97643060391096" y="295.4014375025342"/>
      <point x="386.96115353862285" y="290.9724057531801" type="curve" smooth="yes"/>
      <point x="386.2489540151503" y="84.49594958502426"/>
      <point x="380.2538255583654" y="34.6641671298564"/>
      <point x="367.4342341358598" y="-2.602315202932727" type="curve"/>
      <point x="359.8693180368812" y="8.0" type="line"/>
      <point x="499.16935393063113" y="8.0" type="line"/>
      <point x="491.6268815979746" y="-2.6666666666666647" type="line"/>
      <point x="477.3900095645406" y="37.601288364238535"/>
      <point x="472.07747083859425" y="93.29848555375196"/>
      <point x="472.0774708385943" y="349.0" type="curve" smooth="yes"/>
      <point x="472.07747083859437" y="590.728534050524"/>
      <point x="477.4045613973109" y="643.4462979036227"/>
      <point x="491.6485518667616" y="682.7271846868327" type="curve"/>
      <point x="499.16935393063113" y="672.0" type="line"/>
      <point x="359.8693180368812" y="672.0" type="line"/>
      <point x="367.387620626456" y="682.7340676969661" type="line"/>
      <point x="380.2458962612482" y="647.3756136580266"/>
      <point x="385.53226233037464" y="601.9261223593992"/>
      <point x="386.9609596231293" y="418.0621613569133" type="curve" smooth="yes"/>
      <point x="386.9954791715221" y="413.6197221280442"/>
      <point x="383.4037744711844" y="410.0"/>
      <point x="378.961201128918" y="410.0" type="curve" smooth="yes"/>
      <point x="202.89161261346766" y="410.0" type="line" smooth="yes"/>
      <point x="198.44903927120123" y="410.0"/>
      <point x="194.85733457086351" y="413.6197221280442"/>
      <point x="194.8918541192563" y="418.0621613569133" type="curve" smooth="yes"/>
      <point x="196.32055141201099" y="601.9261223593992"/>
      <point x="201.60691748113746" y="647.3756136580266"/>
      <point x="214.4651931159297" y="682.7340676969661" type="curve"/>
      <point x="221.98349570550448" y="672.0" type="line"/>
      <point x="82.6834598117546" y="672.0" type="line"/>
      <point x="90.20426187562417" y="682.7271846868327" type="line"/>
      <point x="104.44825234507489" y="643.4462979036227"/>
      <point x="109.77534290379138" y="590.728534050524"/>
      <point x="109.77534290379137" y="349.0" type="curve" smooth="yes"/>
      <point x="109.77534290379135" y="93.29848555375196"/>
      <point x="104.46280417784511" y="37.601288364238535"/>
      <point x="90.2259321444111" y="-2.6666666666666674" type="curve"/>
    </contour>
  </outline>
</glyph>
<glyph name="I" format="2">
  <advance width="225"/>
  <unicode hex="0049"/>
  <outline>
    <contour>
      <point x="85.2763889243179" y="-8.0" type="line" smooth="yes"/>
      <point x="79.7549159621308" y="-7.999999999999999"/>
      <point x="75.8934256042657" y="-2.5390279649342316"/>
      <point x="77.7339165916614" y="2.6666666666666674" type="curve" smooth="yes"/>
      <point x="91.77872946979893" y="42.39139637317538"/>
      <point x="96.36827201635468" y="96.74796636366959"/>
      <point x="96.3682720163547" y="349.0" type="curve" smooth="yes"/>
      <point x="96.36827201635471" y="587.2292040499328"/>
      <point x="91.7933773321468" y="638.5605696550532"/>
      <point x="77.75558686044833" y="677.2728153131673" type="curve" smooth="yes"/>
      <point x="75.86405599858294" y="682.4891210802369"/>
      <point x="79.72771927682994" y="688.0"/>
      <point x="85.2763889243179" y="688.0" type="curve" smooth="yes"/>
      <point x="224.57642481806778" y="688.0" type="line" smooth="yes"/>
      <point x="230.1250944655555" y="688.0"/>
      <point x="233.98875774380264" y="682.4891210802367"/>
      <point x="232.09722688193733" y="677.2728153131673" type="curve" smooth="yes"/>
      <point x="218.05943641023887" y="638.5605696550532"/>
      <point x="213.48454172603107" y="587.2292040499328"/>
      <point x="213.484541726031" y="349.0" type="curve" smooth="yes"/>
      <point x="213.48454172603095" y="96.74796636366959"/>
      <point x="218.07408427258676" y="42.39139637317538"/>
      <point x="232.11889715072428" y="2.6666666666666647" type="curve" smooth="yes"/>
      <point x="233.95938813811998" y="-2.539027964934221"/>
      <point x="230.09789778025487" y="-8.0"/>
      <point x="224.57642481806778" y="-8.0" type="curve" smooth="yes"/>
    </contour>
    <contour>
      <point x="85.2763889243179" y="8.0" type="line"/>
      <point x="224.57642481806778" y="8.0" type="line"/>
      <point x="217.03395248541128" y="-2.6666666666666647" type="line"/>
      <point x="202.79708045197725" y="37.601288364238535"/>
      <point x="197.48454172603095" y="93.29848555375196"/>
      <point x="197.484541726031" y="349.0" type="curve" smooth="yes"/>
      <point x="197.48454172603107" y="590.728534050524"/>
      <point x="202.81163228474747" y="643.4462979036227"/>
      <point x="217.05562275419823" y="682.7271846868327" type="curve"/>
      <point x="224.57642481806778" y="672.0" type="line"/>
      <point x="85.2763889243179" y="672.0" type="line"/>
      <point x="92.79719098818747" y="682.7271846868327" type="line"/>
      <point x="107.04118145763822" y="643.4462979036227"/>
      <point x="112.36827201635471" y="590.728534050524"/>
      <point x="112.3682720163547" y="349.0" type="curve" smooth="yes"/>
      <point x="112.36827201635468" y="93.29848555375196"/>
      <point x="107.05573329040844" y="37.601288364238535"/>
      <point x="92.8188612569744" y="-2.6666666666666674" type="curve"/>
    </contour>
  </outline>
</glyph>
<glyph name="J" format="2">
  <advance width="331"/>
  <unicode hex="004A"/>
  <outline>
    <contour>
      <point x="211.59366876077087" y="236.0" type="curve" smooth="yes"/>
      <point x="211.59366876077087" y="349.0" type="line" smooth="yes"/>
      <point x="211.59366876077087" y="587.2292040499328"/>
      <point x="207.018774076563" y="638.5605696550532"/>
      <point x="192.98098360486455" y="677.2728153131673" type="curve" smooth="yes"/>
      <point x="191.08945274299916" y="682.4891210802369"/>
      <point x="194.95311602124613" y="688.0"/>
      <point x="200.5017856687341" y="688.0" type="curve" smooth="yes"/>
      <point x="339.80182156248395" y="688.0" type="line" smooth="yes"/>
      <point x="345.35049120997166" y="688.0"/>
      <point x="349.2141544882188" y="682.4891210802367"/>
      <point x="347.3226236263535" y="677.2728153131673" type="curve" smooth="yes"/>
      <point x="333.28483315465513" y="638.5605696550532"/>
      <point x="328.7099384704472" y="587.2292040499328"/>
      <point x="328.7099384704472" y="349.0" type="curve" smooth="yes"/>
      <point x="328.7099384704472" y="231.0" type="line" smooth="yes"/>
      <point x="328.7099384704472" y="87.8339029423001"/>
      <point x="265.9868946618196" y="-16.398684639061855"/>
      <point x="159.6099363951367" y="-17.999094780860293" type="curve" smooth="yes"/>
      <point x="128.18026992665534" y="-18.471944896045947"/>
      <point x="91.61412178917587" y="-9.836018292803434"/>
      <point x="53.601851857308034" y="7.738538446850164" type="curve" smooth="yes"/>
      <point x="50.7712454919198" y="9.047238302588973"/>
      <point x="48.95910908786496" y="11.88150233154053"/>
      <point x="48.95910908786496" y="15.000000000000002" type="curve" smooth="yes"/>
      <point x="48.95910908786496" y="186.0" type="line" smooth="yes"/>
      <point x="48.95910908786496" y="193.88234273464766"/>
      <point x="59.155428716477694" y="197.01396872500658"/>
      <point x="63.57991842252332" y="190.4905326804401" type="curve" smooth="yes"/>
      <point x="94.51525821182618" y="144.87968848371767"/>
      <point x="124.01816350990094" y="126.0"/>
      <point x="151.00431098567577" y="126.0" type="curve" smooth="yes"/>
      <point x="189.7936913623276" y="126.0"/>
      <point x="211.59366876077087" y="162.85804292705362"/>
    </contour>
    <contour>
      <point x="227.59366876077087" y="236.0" type="line" smooth="yes"/>
      <point x="227.59366876077087" y="149.29114208635826"/>
      <point x="196.98862705043345" y="110.0"/>
      <point x="151.00431098567577" y="110.0" type="curve" smooth="yes"/>
      <point x="120.03520466463067" y="110.0"/>
      <point x="85.83947041391684" y="129.16679467282768"/>
      <point x="50.3382997532066" y="181.5094673195599" type="curve"/>
      <point x="64.95910908786496" y="186.0" type="line"/>
      <point x="64.95910908786496" y="14.999999999999998" type="line"/>
      <point x="60.316366318421885" y="22.261461553149836" type="line"/>
      <point x="95.84454863857266" y="5.835395518119807"/>
      <point x="129.99349879552236" y="-2.4428547562899734"/>
      <point x="159.369248324692" y="-2.000905219139706" type="curve" smooth="yes"/>
      <point x="258.0022503553292" y="-0.5170006279769661"/>
      <point x="312.7099384704472" y="98.25600946015037"/>
      <point x="312.7099384704472" y="231.0" type="curve" smooth="yes"/>
      <point x="312.7099384704472" y="349.0" type="line" smooth="yes"/>
      <point x="312.7099384704472" y="590.728534050524"/>
      <point x="318.0370290291637" y="643.4462979036227"/>
      <point x="332.2810194986144" y="682.7271846868327" type="curve"/>
      <point x="339.80182156248395" y="672.0" type="line"/>
      <point x="200.5017856687341" y="672.0" type="line"/>
      <point x="208.02258773260365" y="682.7271846868327" type="line"/>
      <point x="222.2665782020544" y="643.4462979036227"/>
      <point x="227.59366876077087" y="590.728534050524"/>
      <point x="227.59366876077087" y="349.0" type="curve" smooth="yes"/>
    </contour>
  </outline>
</glyph>
